<svg xmlns="http://www.w3.org/2000/svg" width="16" height="16" viewBox="0 0 16 16">
  <path fill="#333" fill-rule="evenodd" d="M15.556226,12.0907382 C15.3162262,12.6682861 14.974033,13.1838986 14.5389366,13.6220917 C13.6966147,14.4706071 12.5910673,14.9382196 11.4266812,14.9382196 C10.0997146,14.9382196 8.85636088,14.3343492 7.99855517,13.2752533 C7.14074947,14.3343492 5.89739572,14.9382196 4.57042913,14.9382196 C3.40759144,14.9382196 2.30204402,14.4675104 1.4566254,13.6128014 C1.01998062,13.1715115 0.676238985,12.6543507 0.43778758,12.0752544 C0.190045861,11.4744807 0.0661750014,10.8380942 0.0723685444,10.183127 C0.0832072446,8.76325727 0.693271228,7.43938746 1.74617353,6.54751727 C1.79417349,6.50725924 1.83907668,6.4685496 1.88397987,6.42674318 C2.11468934,6.21925949 2.7820436,5.60919551 3.62746222,4.83655102 C5.07520289,3.51268121 6.87752389,1.86519878 7.61455551,1.21023161 C7.72294251,1.11578008 7.85920046,1.06313496 8.00010356,1.06313496 C8.14255505,1.06313496 8.28036138,1.11578008 8.38565161,1.21023161 C8.91984469,1.68558603 10.0238437,2.69513354 11.1944234,3.76506809 C12.3433256,4.81487362 13.5309374,5.90184042 14.2261626,6.52429149 C15.3022907,7.42080683 15.9231934,8.7601605 15.9278386,10.1986109 C15.929387,10.8566748 15.8039677,11.4930613 15.556226,12.0907382 L15.556226,12.0907382 Z" transform="matrix(1 0 0 -1 0 16.001)"/>
</svg>
