<svg xmlns="http://www.w3.org/2000/svg" width="16" height="16" viewBox="0 0 16 16">
  <path fill="#333" fill-rule="evenodd" d="M3,6 C3,3.23857625 5.23857625,1 8,1 C10.7614237,1 13,3.23857625 13,6 C13,8.41895791 11.2822403,10.4367116 9,10.8999819 L9,11 C9,11.5522847 8.55228475,12 8,12 C7.44771525,12 7,11.5522847 7,11 L7,10 C7,9.44771525 7.44771525,9 8,9 C9.65685425,9 11,7.65685425 11,6 C11,4.34314575 9.65685425,3 8,3 C6.34314575,3 5,4.34314575 5,6 C5,6.55228475 4.55228475,7 4,7 C3.44771525,7 3,6.55228475 3,6 Z M8,15 C7.44771525,15 7,14.5522847 7,14 C7,13.4477153 7.44771525,13 8,13 C8.55228475,13 9,13.4477153 9,14 C9,14.5522847 8.55228475,15 8,15 Z"/>
</svg>
