<?xml version="1.0" encoding="UTF-8"?>
<svg width="18px" height="18px" viewBox="0 0 18 18" version="1.1" xmlns="http://www.w3.org/2000/svg" xmlns:xlink="http://www.w3.org/1999/xlink">
    <!-- Generator: Sketch 52.4 (67378) - http://www.bohemiancoding.com/sketch -->
    <title>achievement</title>
    <desc>Created with Sketch.</desc>
    <defs>
        <path d="M3,0 L15,0 C16.1045695,-2.02906125e-16 17,0.8954305 17,2 L17,16 C17,17.1045695 16.1045695,18 15,18 L3,18 C1.8954305,18 1,17.1045695 1,16 L1,2 C1,0.8954305 1.8954305,2.02906125e-16 3,0 Z M2.96105957,1.0206386 C2.42698238,1.0206386 1.99402727,1.45359371 1.99402727,1.9876709 L1.99402727,16.0247803 C1.99402727,16.5588575 2.42698238,16.9918126 2.96105957,16.9918126 L15.0511475,16.9918126 C15.5852247,16.9918126 16.0181798,16.5588575 16.0181798,16.0247803 L16.0181798,1.9876709 C16.0181798,1.45359371 15.5852247,1.0206386 15.0511475,1.0206386 L2.96105957,1.0206386 Z M3.87543218,9.49534475 C3.83638765,9.49948689 3.74552262,9.46203281 3.70406621,9.44284264 C3.38999725,9.31111544 3.048681,9.29264183 3.00484767,8.8871136 C2.96269217,8.49705287 3.20457945,7.5951139 3.37727369,7.22128969 C3.84468941,6.21607674 4.38629672,5.3132639 4.5805406,4.99243117 L4.56323797,4.97851916 L3.85265912,5.33927027 C3.82303492,5.35828568 3.68166018,5.4367068 3.65044554,5.44009741 C3.56457905,5.44932549 3.5658549,5.31508154 3.56863381,5.26742065 C3.55980773,5.03953276 3.70819089,4.95239043 3.88362909,4.8230052 C4.12497457,4.64706015 4.949978,4.02923389 5.16828827,4.00565687 C5.37111355,3.98381011 5.57255813,4.38809744 5.58519429,4.50514363 C5.60971508,4.73130125 5.60716337,4.70786404 4.60757815,6.92272316 C4.38426933,7.41242258 3.86346015,8.58131142 3.91991217,9.10392078 C3.92999664,9.19744239 3.96267937,9.28073969 3.97286871,9.37434867 C3.98041894,9.44450298 3.94558648,9.48770712 3.87543218,9.49534475 Z M7.78105544,8.90768448 C7.06928812,9.03981366 6.57140928,8.37551498 6.4997869,7.71256205 C6.40457,6.83122896 6.86172648,5.80329538 7.36989951,5.10142026 C7.97454781,4.27068425 9.10215502,3.53336498 9.60915708,3.47859078 C9.92892367,3.444003 10.3515798,3.7771573 10.3701582,3.94868055 C10.3793863,4.03452956 10.1921509,4.05480335 10.1434413,4.11520526 C10.5063072,4.18653054 10.5874024,4.57232677 10.6211512,4.88424603 C10.7829046,6.3818499 9.64650627,8.57206587 7.78105544,8.90768448 Z M11.7766524,4.62528332 C12.3813007,3.79456478 13.5090128,3.05722801 14.0160148,3.00248878 C14.3358164,2.9679709 14.758455,3.3010378 14.777016,3.47264845 C14.7862441,3.55849746 14.5990086,3.57868385 14.5502991,3.63917316 C14.9130951,3.71049845 14.9942776,4.09618982 15.0279391,4.40824889 C15.1897974,5.90581782 14.0532592,8.09596388 12.1879307,8.4316524 C11.4761808,8.56378158 10.978302,7.8994829 10.906767,7.23646006 C10.8114627,6.35509201 11.2685842,5.32728077 11.7766524,4.62528332 Z M9.1600926,4.7265474 C7.84114277,5.66595792 7.34460969,6.84014241 7.38463293,7.64857725 C7.39281235,7.7975896 7.47294625,8.24663658 7.69125652,8.22297216 C7.92527898,8.19773479 8.39250245,7.84736524 8.55415097,7.66428943 L9.24277821,6.87972873 C9.544613,6.46037589 10.1073505,5.46068578 10.0517374,4.94581891 C10.0340153,4.78205563 9.92406494,4.4940979 9.70563233,4.51765745 C9.50280705,4.53953915 9.33116146,4.85009517 9.25315979,4.85846685 C9.19074797,4.86524808 9.16507366,4.77333442 9.1600926,4.7265474 Z M13.566863,4.25041045 C12.248018,5.18992583 11.7515199,6.36400548 11.7915257,7.1724403 C11.7997051,7.32148762 11.879839,7.77053459 12.0981493,7.74697504 C12.3322067,7.72159786 12.7993952,7.37136814 12.9610437,7.1881525 L13.6495486,6.40359179 C13.9514882,5.98437875 14.5142257,4.98456632 14.4586126,4.46978683 C14.4408905,4.30591868 14.3309402,4.01797842 14.1125076,4.04153797 C13.9096648,4.0634896 13.7380542,4.37406308 13.6600525,4.38245224 C13.5976407,4.3891461 13.5719664,4.29723241 13.566863,4.25041045 Z M4.5,11 L13.5,11 C13.7761424,11 14,11.2238576 14,11.5 C14,11.7761424 13.7761424,12 13.5,12 L4.5,12 C4.22385763,12 4,11.7761424 4,11.5 C4,11.2238576 4.22385763,11 4.5,11 Z M4.5,14 L13.5,14 C13.7761424,14 14,14.2238576 14,14.5 C14,14.7761424 13.7761424,15 13.5,15 L4.5,15 C4.22385763,15 4,14.7761424 4,14.5 C4,14.2238576 4.22385763,14 4.5,14 Z" id="path-1"></path>
    </defs>
    <g id="achievement" stroke="none" stroke-width="1" fill="none" fill-rule="evenodd">
        <mask id="mask-2" fill="white">
            <use xlink:href="#path-1"></use>
        </mask>
        <use id="Combined-Shape" fill="#000000" fill-rule="nonzero" xlink:href="#path-1"></use>
    </g>
</svg>