<?xml version="1.0" encoding="UTF-8"?>
<svg width="18px" height="18px" viewBox="0 0 18 18" version="1.1" xmlns="http://www.w3.org/2000/svg" xmlns:xlink="http://www.w3.org/1999/xlink">
    <!-- Generator: Sketch 52.4 (67378) - http://www.bohemiancoding.com/sketch -->
    <title>activity</title>
    <desc>Created with Sketch.</desc>
    <defs>
        <path d="M7.47668457,16.7606201 C7.57434425,16.9771608 7.62780252,17.432251 7.29089355,17.5615234 C6.95398459,17.6907959 6.62390912,17.3598678 6.52977133,17.1432365 L0.39831543,2.76580811 C0.264347069,2.46439288 0.372760231,2.11034087 0.596846904,1.98744479 C0.628232947,1.9443838 0.664680321,1.90525083 0.706715867,1.86979112 C0.985063225,1.63896662 1.13244933,1.54058257 1.77215576,1.23486328 C2.04163015,1.10607996 2.56060458,0.902460375 2.85522461,0.798706055 C3.65419302,0.516524173 4.21202738,0.465731303 5.04589844,0.433031352 C6.10870457,0.394490928 7.32672281,0.678521964 8.32061768,1.06744385 C10.6716919,1.98744479 11.5643921,1.98744479 12.5683594,1.30183436 C13.5723267,0.616223926 13.7730713,0.0514526367 14.6385859,0.125709219 C15.0005514,0.360268339 15.074928,0.753339859 15.0118501,1.30183436 C14.9699005,1.65672753 14.8638071,2.08704273 14.7051427,2.54749602 C14.2912411,3.75328042 13.7540841,4.64259882 12.9786987,5.4786377 C12.480005,6.01778831 11.8918744,6.40841324 11.3192139,6.68225098 C10.6645788,7.0018085 9.72527679,7.17552269 9,7.11022949 C6.32614219,6.87297929 5.45751953,7.24221802 4.55633545,8.57955933 C4.50367984,8.65769933 4.37251872,8.95742797 4.29318237,9.1088562 L7.47668457,16.7606201 Z M16.0601807,2.35868761 C16.1863403,2.03013537 16.5548096,1.87663195 16.8584595,2.11765978 C17.1621094,2.35868761 17.0255737,2.85233996 16.8584595,3.49986193 C16.6913452,4.1473839 16.1306763,5.58842394 15.4302979,6.62675402 C14.7299194,7.6650841 13.2658691,8.74442009 11.640564,9.04942248 C10.0152588,9.35442486 8.53173828,9.01914904 7.79760742,9.28996203 C7.30818685,9.47050402 6.89552816,9.8768354 6.55963135,10.5089562 L6,9.36802599 C6.43570964,8.5319322 7.1850179,8.11388531 8.2479248,8.11388531 C9.84228516,8.11388531 10.7120361,8.12090435 11.4243774,7.94475689 C12.1367187,7.76860943 13.1870117,7.63004992 14.3086548,6.16380236 C15.4302979,4.6975548 15.5396729,4.1295006 16.0601807,2.35868761 Z M4.92747752,6.79693534 C5.95389198,6.12905721 7.36184713,5.88915026 9.22790361,6.05418685 C10.2145882,6.14225702 11.447866,5.7536523 12.2989502,4.77192595 C12.8420734,4.14488671 13.4255755,3.32570216 13.7625122,2.44592285 C13.7914278,2.37153689 13.9635043,1.47834942 13.989502,1.4039917 C13.5929327,1.67192537 12.59021,2.69415283 11.5437622,2.76863212 C10.4447279,2.84685418 9.70163892,2.65514935 7.74479879,1.99611411 C6.15659184,1.4620406 4.92747752,1.1184082 3.05548096,1.91583252 C2.53962561,2.13557416 1.965843,2.44251137 1.47676505,2.76863212 L3.77006154,7.9497024 C4.08935146,7.47947097 4.45234385,7.10640937 4.92747752,6.79693534 Z" id="path-1"></path>
    </defs>
    <g id="activity" stroke="none" stroke-width="1" fill="none" fill-rule="evenodd">
        <mask id="mask-2" fill="white">
            <use xlink:href="#path-1"></use>
        </mask>
        <use id="Combined-Shape" fill="#000000" fill-rule="nonzero" xlink:href="#path-1"></use>
    </g>
</svg>