<svg xmlns="http://www.w3.org/2000/svg" width="16" height="16" viewBox="0 0 16 16">
  <path fill="#333" fill-rule="evenodd" d="M1.5,3 L14.5,3 C14.7761424,3 15,3.22385763 15,3.5 L15,3.5 C15,3.77614237 14.7761424,4 14.5,4 L1.5,4 C1.22385763,4 1,3.77614237 1,3.5 L1,3.5 L1,3.5 C1,3.22385763 1.22385763,3 1.5,3 L1.5,3 Z M4.5,6 L11.5,6 C11.7761424,6 12,6.22385763 12,6.5 C12,6.77614237 11.7761424,7 11.5,7 L4.5,7 C4.22385763,7 4,6.77614237 4,6.5 C4,6.22385763 4.22385763,6 4.5,6 Z M4.5,12 L11.5,12 C11.7761424,12 12,12.2238576 12,12.5 C12,12.7761424 11.7761424,13 11.5,13 L4.5,13 C4.22385763,13 4,12.7761424 4,12.5 C4,12.2238576 4.22385763,12 4.5,12 Z M1.5,9 L14.5,9 C14.7761424,9 15,9.22385763 15,9.5 C15,9.77614237 14.7761424,10 14.5,10 L1.5,10 C1.22385763,10 1,9.77614237 1,9.5 C1,9.22385763 1.22385763,9 1.5,9 L1.5,9 Z"/>
</svg>
