<?xml version="1.0" encoding="UTF-8"?>
<svg width="16px" height="16px" viewBox="0 0 16 16" version="1.1" xmlns="http://www.w3.org/2000/svg" xmlns:xlink="http://www.w3.org/1999/xlink">
    <!-- Generator: Sketch 52.4 (67378) - http://www.bohemiancoding.com/sketch -->
    <title>annex</title>
    <desc>Created with Sketch.</desc>
    <defs>
        <path d="M7.20709181,4.97279795 L4.05221758,8.12767218 C2.96395933,9.21593043 2.96437825,10.9803321 4.05316819,12.0691382 C5.14020191,13.1561719 6.90750378,13.1572192 7.99463418,12.0701049 L11.938952,8.12577096 C12.1566907,7.90804842 12.5096902,7.90804842 12.7274289,8.12577096 C12.9451675,8.34350961 12.9451675,8.69652529 12.7274289,8.91424783 L8.78311106,12.8585818 C7.2602939,14.3813667 4.78697678,14.3799005 3.26469131,12.8576151 C1.74052073,11.3334284 1.73992459,8.86302753 3.26372459,7.33919531 L8.7850284,1.81790761 C9.87600958,0.728183166 11.6340309,0.726394725 12.7264622,1.81887433 C13.8170083,2.90940438 13.8195701,4.66818296 12.7267844,5.7609687 L9.57123347,8.91650353 L7.20941195,11.2783412 C6.55437532,11.9333778 5.49732618,11.9363263 4.84164507,11.2806452 C4.18583506,10.6248191 4.18330546,9.57353805 4.8439652,8.91289442 L10.3587114,3.39813211 C10.5764339,3.18040957 10.9294496,3.18040957 11.1471883,3.39813211 C11.3649108,3.61587077 11.3649108,3.96890256 11.1471883,4.18660899 L5.63244208,9.70138741 C5.40809747,9.9257159 5.4089353,10.2709656 5.63012194,10.4921683 C5.84934291,10.7113893 6.20036069,10.7104064 6.42091896,10.4898643 L8.78274048,8.12802665 L11.9382753,4.97249182 C12.5950682,4.31569898 12.5935697,3.26295176 11.9379531,2.60736732 C11.6250779,2.2923402 11.1994511,2.11515234 10.7554545,2.11509488 C10.311458,2.11503741 9.88578524,2.29211507 9.57282857,2.60706119 L7.20709181,4.97279795 Z" id="path-1"></path>
    </defs>
    <g id="annex" stroke="none" stroke-width="1" fill="none" fill-rule="evenodd">
        <mask id="mask-2" fill="white">
            <use xlink:href="#path-1"></use>
        </mask>
        <use id="Shape" fill="#000000" fill-rule="nonzero" xlink:href="#path-1"></use>
    </g>
</svg>