<?xml version="1.0" encoding="UTF-8"?>
<svg width="18px" height="18px" viewBox="0 0 18 18" version="1.1" xmlns="http://www.w3.org/2000/svg" xmlns:xlink="http://www.w3.org/1999/xlink">
    <!-- Generator: Sketch 52.4 (67378) - http://www.bohemiancoding.com/sketch -->
    <title>announcement</title>
    <desc>Created with Sketch.</desc>
    <defs>
        <path d="M9.85355339,1.85355339 L14,6 L17,6 C17.5522847,6 18,6.44771525 18,7 L18,17 C18,17.5522847 17.5522847,18 17,18 L1,18 C0.44771525,18 6.76353751e-17,17.5522847 0,17 L0,7 C-6.76353751e-17,6.44771525 0.44771525,6 1,6 L4,6 L8.14644661,1.85355339 C8.05596441,1.76307119 8,1.63807119 8,1.5 L8,0.5 C8,0.223857625 8.22385763,5.07265313e-17 8.5,0 L9.5,0 C9.77614237,-5.07265313e-17 10,0.223857625 10,0.5 L10,1.5 C10,1.63807119 9.94403559,1.76307119 9.85355339,1.85355339 Z M1.0098877,7.51605225 L1.0098877,16.4950562 C1.0098877,16.7711985 1.23374532,16.9950562 1.5098877,16.9950562 L16.4923706,16.9950562 C16.768513,16.9950562 16.9923706,16.7711985 16.9923706,16.4950562 L16.9923706,7.51605225 C16.9923706,7.23990987 16.768513,7.01605225 16.4923706,7.01605225 L1.5098877,7.01605225 C1.23374532,7.01605225 1.0098877,7.23990987 1.0098877,7.51605225 Z M4.5,9 L13.5,9 C13.7761424,9 14,9.22385763 14,9.5 C14,9.77614237 13.7761424,10 13.5,10 L4.5,10 C4.22385763,10 4,9.77614237 4,9.5 C4,9.22385763 4.22385763,9 4.5,9 Z M4.5,11 L13.5,11 C13.7761424,11 14,11.2238576 14,11.5 C14,11.7761424 13.7761424,12 13.5,12 L4.5,12 C4.22385763,12 4,11.7761424 4,11.5 C4,11.2238576 4.22385763,11 4.5,11 Z M4.5,14 L10.5,14 C10.7761424,14 11,14.2238576 11,14.5 C11,14.7761424 10.7761424,15 10.5,15 L4.5,15 C4.22385763,15 4,14.7761424 4,14.5 C4,14.2238576 4.22385763,14 4.5,14 Z M9,2.5 L5.5,6 L12.5,6 L9,2.5 Z" id="path-1"></path>
    </defs>
    <g id="announcement" stroke="none" stroke-width="1" fill="none" fill-rule="evenodd">
        <mask id="mask-2" fill="white">
            <use xlink:href="#path-1"></use>
        </mask>
        <use id="Combined-Shape" fill="#000000" fill-rule="nonzero" xlink:href="#path-1"></use>
    </g>
</svg>