<?xml version="1.0" encoding="UTF-8"?>
<svg width="18px" height="18px" viewBox="0 0 18 18" version="1.1" xmlns="http://www.w3.org/2000/svg" xmlns:xlink="http://www.w3.org/1999/xlink">
    <!-- Generator: Sketch 52.4 (67378) - http://www.bohemiancoding.com/sketch -->
    <title>Attendance</title>
    <desc>Created with Sketch.</desc>
    <defs>
        <path d="M16.0021973,5 L16.0021973,3.52416992 C16.0021973,3.24802755 15.7783396,3.02416992 15.5021973,3.02416992 L2.50219727,3.02416992 C2.22605489,3.02416992 2.00219727,3.24802755 2.00219727,3.52416992 L2.00219727,5 L16.0021973,5 Z M16.0021973,6 L2.00219727,6 L2.00219727,16.5241699 C2.00219727,16.8003123 2.22605489,17.0241699 2.50219727,17.0241699 L15.5021973,17.0241699 C15.7783396,17.0241699 16.0021973,16.8003123 16.0021973,16.5241699 L16.0021973,6 Z M2,2.00040928 L16,2.00040928 C16.5522847,2.00040928 17,2.44812453 17,3.00040928 L17,17.0004366 C17,17.5527213 16.5522847,18.0004366 16,18.0004366 L2,18.0004366 C1.44771525,18.0004366 1,17.5527213 1,17.0004366 L1,3.00040928 C1,2.44812453 1.44771525,2.00040928 2,2.00040928 Z M4.5,-4.4408921e-16 L5.5,-4.4408921e-16 C5.77614237,-4.94815741e-16 6,0.223857625 6,0.5 L6,2 L4,2 L4,0.5 C4,0.223857625 4.22385763,-3.93362679e-16 4.5,-4.4408921e-16 Z M12.5,-4.4408921e-16 L13.5,-4.4408921e-16 C13.7761424,-4.94815741e-16 14,0.223857625 14,0.5 L14,2 L12,2 L12,0.5 C12,0.223857625 12.2238576,-3.93362679e-16 12.5,-4.4408921e-16 Z M7.4228456,12.6306947 C7.42821765,12.6360667 7.43371145,12.6413156 7.4393227,12.6464373 C7.64327927,12.8325994 7.95953294,12.8181741 8.14569504,12.6142176 L12.2086296,8.1629237 C12.2137513,8.15731245 12.2190002,8.15181866 12.2243722,8.14644661 C12.4196344,7.95118446 12.7362169,7.95118446 12.931479,8.14644661 L13.22106,8.4360276 C13.4110975,8.62606509 13.4169155,8.93233395 13.2342325,9.12945175 L8.49895995,14.2388852 C8.49035234,14.2481729 8.4815691,14.2572963 8.47261497,14.2662505 C8.08209068,14.6567748 7.4489257,14.6567748 7.05840141,14.2662505 L5.14644661,12.3542957 C4.95118446,12.1590335 4.95118446,11.842451 5.14644661,11.6471889 L5.43933983,11.3542957 C5.63460197,11.1590335 5.95118446,11.1590335 6.14644661,11.3542957 L7.4228456,12.6306947 Z" id="path-1"></path>
    </defs>
    <g id="Attendance" stroke="none" stroke-width="1" fill="none" fill-rule="evenodd">
        <mask id="mask-2" fill="white">
            <use xlink:href="#path-1"></use>
        </mask>
        <use id="Combined-Shape" fill="#000000" xlink:href="#path-1"></use>
    </g>
</svg>