<?xml version="1.0" encoding="UTF-8"?>
<svg width="16px" height="16px" viewBox="0 0 16 16" version="1.1" xmlns="http://www.w3.org/2000/svg" xmlns:xlink="http://www.w3.org/1999/xlink">
    <!-- Generator: Sketch 52.4 (67378) - http://www.bohemiancoding.com/sketch -->
    <title>audio</title>
    <desc>Created with Sketch.</desc>
    <defs>
        <path d="M2.98571777,5.00437301 L1.142474,5.00437301 C1.1103661,5.01508209 1.01601414,5.13284324 1.01601414,5.3322176 L1.01601414,10.684436 C1.01601414,10.8811621 1.10833641,10.9975701 1.1451416,11.0109468 L2.98571777,11.0109468 L2.98571777,5.00437301 Z M3.99571895,4.77663177 C3.99912791,4.79496797 4.00091553,4.81369491 4.00091553,4.83273103 L4.00091553,11.1661821 C4.00091553,11.1887945 3.99839315,11.2109705 3.99362707,11.2325733 L8,13.538147 C8.02541956,13.4672235 8.04550391,12.5406215 8.04550391,13.3079792 L8,2.62902832 C8,2.55342688 7.98059223,2.47046056 7.95449609,2.39953711 L3.99571895,4.77663177 Z M8.32141267,14.9955495 C8.17823195,14.9955495 8.03839541,14.9393558 7.92264461,14.8323037 L3.03820801,12.0303955 L0.950921105,12.0303955 C0.419004845,12.0303955 0.00283938607,11.5259092 0.00283938607,10.8822629 L0.00283938607,5.17632192 C0.00283938607,4.5313418 0.419004845,4.02685547 0.950921105,4.02685547 L3.03820801,4.02685547 L7.92198738,1.16796254 C8.10197329,1.00069607 8.33747627,0.958536349 8.55560119,1.05422211 C8.92291857,1.21412367 8.99365234,1.76544771 8.99365234,2.18428077 L8.99365234,13.8153089 C8.99365234,14.234142 8.92291859,14.7841322 8.55560119,14.9447103 C8.47864663,14.978152 8.39970102,14.9955495 8.32141267,14.9955495 Z M10.5808232,13.1265698 C10.4777918,13.1265698 10.3754177,13.0891074 10.2957955,13.0114956 C10.1318732,12.8535851 9.93401898,12.5939963 10.0919102,12.4307313 C11.286204,11.1916101 11.9445801,9.56174313 11.9445801,7.83955383 C11.9445801,6.23243876 11.3604716,4.68287046 10.3000026,3.47452345 C10.1507908,3.30323625 10.3606879,3.04364751 10.5313178,2.89375913 C10.7019285,2.74522388 11.0575199,2.7612875 11.2087227,2.93122155 C12.4003489,4.29077144 13.0159302,6.03304508 13.0159302,7.83953451 C13.0159302,9.77582797 12.3173632,11.6090901 10.973877,13.0007672 C10.8935782,13.0850866 10.6885325,13.1265698 10.5808232,13.1265698 Z M12.4813843,14.7608643 C12.3152317,14.6569734 12.1453649,14.1898184 12.3032561,14.0265533 C13.9244244,12.3445134 14.817627,10.1312144 14.817627,7.7947998 C14.817627,5.61362808 14.0247688,3.50871503 12.5849396,1.86815826 C12.4357277,1.69687106 12.5545481,1.34373603 12.7251587,1.19384766 C12.8964459,1.04598897 13.4133526,1.15557954 13.5638982,1.32485636 C15.1348846,3.11663531 16,5.4142344 16,7.7947998 C16,10.3439655 15.0251649,12.7606595 13.2554614,14.5965893 C13.1751627,14.6809087 12.7904976,14.9541448 12.4813843,14.7608643 Z" id="path-1"></path>
    </defs>
    <g id="audio" stroke="none" stroke-width="1" fill="none" fill-rule="evenodd">
        <mask id="mask-2" fill="white">
            <use xlink:href="#path-1"></use>
        </mask>
        <use id="Combined-Shape" fill="#000000" fill-rule="nonzero" xlink:href="#path-1"></use>
    </g>
</svg>