<?xml version="1.0" encoding="UTF-8"?>
<svg width="16px" height="16px" viewBox="0 0 16 16" version="1.1" xmlns="http://www.w3.org/2000/svg" xmlns:xlink="http://www.w3.org/1999/xlink">
    <!-- Generator: Sketch 52.4 (67378) - http://www.bohemiancoding.com/sketch -->
    <title>bars</title>
    <desc>Created with Sketch.</desc>
    <defs>
        <path d="M4.5,2 L14.5,2 C14.7761424,2 15,2.22385763 15,2.5 C15,2.77614237 14.7761424,3 14.5,3 L4.5,3 C4.22385763,3 4,2.77614237 4,2.5 C4,2.22385763 4.22385763,2 4.5,2 Z M4.5,7 L14.5,7 C14.7761424,7 15,7.22385763 15,7.5 C15,7.77614237 14.7761424,8 14.5,8 L4.5,8 C4.22385763,8 4,7.77614237 4,7.5 C4,7.22385763 4.22385763,7 4.5,7 Z M4.5,12 L14.5,12 C14.7761424,12 15,12.2238576 15,12.5 C15,12.7761424 14.7761424,13 14.5,13 L4.5,13 C4.22385763,13 4,12.7761424 4,12.5 C4,12.2238576 4.22385763,12 4.5,12 Z M1.50111389,1.75630188 C1.91532745,1.75630188 2.25111389,2.09208832 2.25111389,2.50630188 C2.25111389,2.92051544 1.91532745,3.25630188 1.50111389,3.25630188 C1.08690033,3.25630188 0.751113892,2.92051544 0.751113892,2.50630188 C0.751113892,2.09208832 1.08690033,1.75630188 1.50111389,1.75630188 Z M1.50111389,6.75630188 C1.91532745,6.75630188 2.25111389,7.09208832 2.25111389,7.50630188 C2.25111389,7.92051544 1.91532745,8.25630188 1.50111389,8.25630188 C1.08690033,8.25630188 0.751113892,7.92051544 0.751113892,7.50630188 C0.751113892,7.09208832 1.08690033,6.75630188 1.50111389,6.75630188 Z M1.50111389,11.7563019 C1.91532745,11.7563019 2.25111389,12.0920883 2.25111389,12.5063019 C2.25111389,12.9205154 1.91532745,13.2563019 1.50111389,13.2563019 C1.08690033,13.2563019 0.751113892,12.9205154 0.751113892,12.5063019 C0.751113892,12.0920883 1.08690033,11.7563019 1.50111389,11.7563019 Z" id="path-1"></path>
    </defs>
    <g id="bars" stroke="none" stroke-width="1" fill="none" fill-rule="evenodd">
        <mask id="mask-2" fill="white">
            <use xlink:href="#path-1"></use>
        </mask>
        <use id="Combined-Shape" fill="#000000" xlink:href="#path-1"></use>
    </g>
</svg>