<?xml version="1.0" encoding="UTF-8"?>
<svg width="18px" height="18px" viewBox="0 0 18 18" version="1.1" xmlns="http://www.w3.org/2000/svg" xmlns:xlink="http://www.w3.org/1999/xlink">
    <!-- Generator: Sketch 52.4 (67378) - http://www.bohemiancoding.com/sketch -->
    <title>bedroom</title>
    <desc>Created with Sketch.</desc>
    <defs>
        <path d="M17.0217285,7.65472392 L17.0217285,17 C17.0217285,17.5522847 16.5740133,18 16.0217285,18 L11,18 L2,18 C1.44771525,18 1,17.5522847 1,17 L1,5.36461567 L0.789554182,5.43495375 C0.784941935,5.43649532 0.780307443,5.43796951 0.775652186,5.43937587 C0.511309081,5.51923408 0.232278781,5.36967953 0.152420567,5.10533643 L0.0722729532,4.84003537 C-0.00594257613,4.58112981 0.135896871,4.30696133 0.392410399,4.22122587 L12.2903526,0.244533054 C12.2949648,0.242991486 12.2995993,0.241517288 12.3042546,0.240110932 C12.5685977,0.160252717 12.847628,0.30980727 12.9274862,0.574150374 L13.0076338,0.839451433 C13.0858493,1.09835699 12.9440099,1.37252547 12.6874964,1.45826093 L11.0013908,2.02181418 C11.0500437,2.03571622 11.0973966,2.05729913 11.1417367,2.08690418 L17.7562047,6.50326027 C17.9831422,6.65478218 18.0466855,6.96027178 17.8989914,7.18971886 L17.7008832,7.4974857 C17.69937,7.49983646 17.6978371,7.50217449 17.6962847,7.50449954 C17.5471184,7.72790909 17.2492442,7.79253515 17.0217285,7.6547244 Z M15.9976807,6.97158026 L11,3.63472276 L11,16.9960327 L15.4976807,16.9960327 C15.773823,16.9960327 15.9976807,16.7721751 15.9976807,16.4960327 L15.9976807,6.97158026 Z M2.0123291,5.02626121 L2.0123291,16.5187544 C2.0123291,16.5192365 2.0123298,16.5197185 2.01233119,16.5202005 C2.01312986,16.7963418 2.237634,17.019551 2.51377522,17.0187523 L9.49070393,16.9985733 C9.76628058,16.9977763 9.98925781,16.7741532 9.98925781,16.4985754 L9.98925781,2.36010309 L2.0123291,5.02626121 Z M3.50019584,9.00004896 L3.50019584,9 C3.22407258,9 3.00022288,8.77617221 3.00019584,8.50004896 L3,7.50004896 C3,7.50003264 3,7.50001632 3,7.5 C3,7.22385763 3.22385763,7 3.5,7 L4.5,7.00004896 C4.77614237,7.00004896 5,7.22390658 5,7.50004896 L5,8.50004896 C5,8.77619133 4.77614237,9.00004896 4.5,9.00004896 L3.50019584,9.00004896 Z M7.50019584,9.00004896 L7.50019584,9 C7.22407258,9 7.00022288,8.77617221 7.00019584,8.50004896 L7,7.50004896 C7,7.50003264 7,7.50001632 7,7.5 C7,7.22385763 7.22385763,7 7.5,7 L8.5,7.00004896 C8.77614237,7.00004896 9,7.22390658 9,7.50004896 L9,8.50004896 C9,8.77619133 8.77614237,9.00004896 8.5,9.00004896 L7.50019584,9.00004896 Z M3.5,13 C3.22385763,13 3,12.7761424 3,12.5 L3,11.5 C3,11.2238576 3.22385763,11 3.5,11 L4.5,11 C4.77614237,11 5,11.2238576 5,11.5 L5,12.5 C5,12.7761424 4.77614237,13 4.5,13 L3.5,13 Z M7.5,13 C7.22385763,13 7,12.7761424 7,12.5 L7,11.5 C7,11.2238576 7.22385763,11 7.5,11 L8.5,11 C8.77614237,11 9,11.2238576 9,11.5 L9,12.5 C9,12.7761424 8.77614237,13 8.5,13 L7.5,13 Z M12.5,13 C12.2238576,13 12,12.7761424 12,12.5 L12,11.5 C12,11.2238576 12.2238576,11 12.5,11 L13.5,11 C13.7761424,11 14,11.2238576 14,11.5 L14,12.5 C14,12.7761424 13.7761424,13 13.5,13 L12.5,13 Z" id="path-1"></path>
    </defs>
    <g id="bedroom" stroke="none" stroke-width="1" fill="none" fill-rule="evenodd">
        <mask id="mask-2" fill="white">
            <use xlink:href="#path-1"></use>
        </mask>
        <use id="Combined-Shape" fill="#000000" xlink:href="#path-1"></use>
    </g>
</svg>