<svg xmlns="http://www.w3.org/2000/svg" width="16" height="16" viewBox="0 0 16 16">
  <path fill="#333" d="M14,12 L15.5,12 C15.7761424,12 16,12.2238576 16,12.5 C16,12.7761424 15.7761424,13 15.5,13 L0.5,13 C0.223857625,13 3.38176876e-17,12.7761424 0,12.5 C-3.38176876e-17,12.2238576 0.223857625,12 0.5,12 L0.5,12 L2,12 L2,6 C2,2.6862915 4.6862915,6.08718376e-16 8,0 C11.3137085,-6.08718376e-16 14,2.6862915 14,6 L14,12 Z M3,12 L13,12 L13,6 C13,3.23857625 10.7614237,1 8,1 C5.23857625,1 3,3.23857625 3,6 L3,12 Z M8,16 C6.8954305,16 6,15.1045695 6,14 C7,14 9,14 10,14 C10,15.1045695 9.1045695,16 8,16 Z"/>
</svg>
