<svg xmlns="http://www.w3.org/2000/svg" width="16" height="16" viewBox="0 0 16 16">
  <path fill="#333" d="M3,12 L12,12 C12.5522847,12 13,11.5522847 13,11 L13,2 C13,1.44771525 12.5522847,1 12,1 L4,1 C3.44771525,1 3,1.44771525 3,2 L3,12 Z M13.3229122,12.5 C13.7381226,12.8664722 14,13.4026537 14,14 C14,15.1045695 13.1045695,16 12,16 L4,16 C2.8954305,16 2,15.1045695 2,14 L2,12.5 L2,2 C2,0.8954305 2.8954305,2.02906125e-16 4,0 L12,0 C13.1045695,-2.02906125e-16 14,0.8954305 14,2 L14,11 C14,11.5973463 13.7381226,12.1335278 13.3229122,12.5 Z M3,13 L3,14 C3,14.5522847 3.44771525,15 4,15 L12,15 C12.5522847,15 13,14.5522847 13,14 C13,13.4477153 12.5522847,13 12,13 L3,13 Z"/>
</svg>
