<svg xmlns="http://www.w3.org/2000/svg" width="16" height="16" viewBox="0 0 16 16">
  <path fill="#333" d="M3,1 L3,14.9288387 L6.52374523,11.0736115 C6.56413484,11.0294224 6.60648816,10.9870691 6.65067726,10.9466795 C7.46599025,10.2014691 8.73104439,10.2582985 9.47625477,11.0736115 L13,14.9288387 L13,1 L3,1 Z M3,0 L13,0 C13.5522847,-1.01453063e-16 14,0.44771525 14,1 L14,14.9288387 C14,15.4811234 13.5522847,15.9288387 13,15.9288387 C12.7191919,15.9288387 12.451323,15.8107722 12.2618726,15.6035 L8.73812738,11.7482729 C8.3655222,11.3406164 7.73299513,11.3122017 7.32533863,11.6848068 C7.30324408,11.7050016 7.28206742,11.7261783 7.26187262,11.7482729 L3.73812738,15.6035 C3.3655222,16.0111565 2.73299513,16.0395712 2.32533863,15.666966 C2.11806646,15.4775156 2,15.2096468 2,14.9288387 L2,1 C2,0.44771525 2.44771525,1.01453063e-16 3,0 Z"/>
</svg>
