<svg xmlns="http://www.w3.org/2000/svg" width="16" height="16" viewBox="0 0 16 16">
  <path fill="#333" d="M4,5 L4,3 C4,1.8954305 4.8954305,1 6,1 L10,1 C11.1045695,1 12,1.8954305 12,3 L12,5 L14,5 C15.1045695,5 16,5.8954305 16,7 L16,13 C16,14.1045695 15.1045695,15 14,15 L2,15 C0.8954305,15 1.3527075e-16,14.1045695 0,13 L0,7 C-1.3527075e-16,5.8954305 0.8954305,5 2,5 L4,5 Z M4,6 L2,6 C1.44771525,6 1,6.44771525 1,7 L1,13 C1,13.5522847 1.44771525,14 2,14 L4,14 L4,6 Z M12,6 L12,14 L14,14 C14.5522847,14 15,13.5522847 15,13 L15,7 C15,6.44771525 14.5522847,6 14,6 L12,6 Z M5,14 L11,14 L11,6 L5,6 L5,14 Z M5,5 L11,5 L11,2.25 C11,2.11192881 10.5522847,2 10,2 L6,2 C5.44771525,2 5,2.11192881 5,2.25 L5,5 Z"/>
</svg>
