<svg xmlns="http://www.w3.org/2000/svg" width="16" height="16" viewBox="0 0 16 16">
  <path fill="#333" fill-rule="evenodd" d="M8.5,4.69230769 C7.82777778,4.69230769 7.27777778,4.13846154 7.27777778,3.46153846 C7.27777778,3.22769231 7.33888889,3.01230769 7.455,2.82769231 L8.5,1 L9.545,2.82769231 C9.66111111,3.01230769 9.72222222,3.22769231 9.72222222,3.46153846 C9.72222222,4.13846154 9.17833333,4.69230769 8.5,4.69230769 Z M11.3111111,10.84 C11.7083333,11.24 12.24,11.4615385 12.8022222,11.4615385 C13.2483333,11.4615385 13.6577778,11.32 14,11.0861538 L14,13.9230769 C14,14.2615385 13.725,14.5384615 13.3888889,14.5384615 L3.61111111,14.5384615 C3.275,14.5384615 3,14.2615385 3,13.9230769 L3,11.0861538 C3.34222222,11.32 3.75166667,11.4615385 4.19777778,11.4615385 C4.76,11.4615385 5.29166667,11.24 5.68888889,10.84 L6.355,10.1815385 L7.00888889,10.84 C7.80944444,11.6461538 9.20277778,11.64 9.99722222,10.84 L10.6572222,10.1815385 L11.3111111,10.84 Z M12.1666667,6.53846154 C13.1811111,6.53846154 14,7.36307692 13.9938889,8.38461538 L13.9938889,9.33230769 C13.9938889,9.99692308 13.4561111,10.5384615 12.7961111,10.5384615 C12.4783333,10.5384615 12.1788889,10.4153846 11.9527778,10.1876923 L10.6511111,8.87692308 L9.34333333,10.1876923 C8.89111111,10.6430769 8.10277778,10.6430769 7.65055556,10.1876923 L6.34888889,8.87692308 L5.04111111,10.1876923 C4.82111111,10.4153846 4.51555556,10.5384615 4.19777778,10.5384615 C3.53777778,10.5384615 3,9.99692308 3,9.33230769 L3,8.38461538 C3,7.36307692 3.81888889,6.53846154 4.83333333,6.53846154 L7.88888889,6.53846154 L7.88888889,5.30769231 L9.11111111,5.30769231 L9.11111111,6.53846154 L12.1666667,6.53846154 Z"/>
</svg>
