<svg xmlns="http://www.w3.org/2000/svg" width="16" height="16" viewBox="0 0 16 16">
  <path fill="#333" d="M12,1 L14,1 C15.1045695,1 16,1.8954305 16,3 L16,14 C16,15.1045695 15.1045695,16 14,16 L2,16 C0.8954305,16 1.3527075e-16,15.1045695 0,14 L0,3 C-1.3527075e-16,1.8954305 0.8954305,1 2,1 L4,1 L4,0.5 L4,0.5 C4,0.223857625 4.22385763,5.07265313e-17 4.5,0 C4.77614237,-5.07265313e-17 5,0.223857625 5,0.5 L5,1 L11,1 L11,0.5 L11,0.5 C11,0.223857625 11.2238576,5.07265313e-17 11.5,0 C11.7761424,-5.07265313e-17 12,0.223857625 12,0.5 L12,1 Z M12,2 L12,2.5 C12,2.77614237 11.7761424,3 11.5,3 C11.2238576,3 11,2.77614237 11,2.5 L11,2 L5,2 L5,2.5 C5,2.77614237 4.77614237,3 4.5,3 C4.22385763,3 4,2.77614237 4,2.5 L4,2 L2,2 C1.44771525,2 1,2.44771525 1,3 L1,4 L15,4 L15,3 C15,2.44771525 14.5522847,2 14,2 L12,2 Z M15,5 L1,5 L1,14 C1,14.5522847 1.44771525,15 2,15 L14,15 C14.5522847,15 15,14.5522847 15,14 L15,5 Z"/>
</svg>
