<svg xmlns="http://www.w3.org/2000/svg" width="16" height="16" viewBox="0 0 16 16">
  <path fill="#333" d="M5,3 C5,1.8954305 5.8954305,1 7,1 L9,1 C10.1045695,1 11,1.8954305 11,3 L14,3 C15.1045695,3 16,3.8954305 16,5 L16,13 C16,14.1045695 15.1045695,15 14,15 L2,15 C0.8954305,15 1.3527075e-16,14.1045695 0,13 L0,5 C-1.3527075e-16,3.8954305 0.8954305,3 2,3 L5,3 Z M2,4 C1.44771525,4 1,4.44771525 1,5 L1,13 C1,13.5522847 1.44771525,14 2,14 L14,14 C14.5522847,14 15,13.5522847 15,13 L15,5 C15,4.44771525 14.5522847,4 14,4 L2,4 Z M6,3 L10,3 C10,2.44771525 9.55228475,2 9,2 L7,2 C6.44771525,2 6,2.44771525 6,3 Z M8,13 C5.790861,13 4,11.209139 4,9 C4,6.790861 5.790861,5 8,5 C10.209139,5 12,6.790861 12,9 C12,11.209139 10.209139,13 8,13 Z M8,12 C9.65685425,12 11,10.6568542 11,9 C11,7.34314575 9.65685425,6 8,6 C6.34314575,6 5,7.34314575 5,9 C5,10.6568542 6.34314575,12 8,12 Z"/>
</svg>
