<?xml version="1.0" encoding="UTF-8"?>
<svg width="16px" height="16px" viewBox="0 0 16 16" version="1.1" xmlns="http://www.w3.org/2000/svg" xmlns:xlink="http://www.w3.org/1999/xlink">
    <!-- Generator: Sketch 52.4 (67378) - http://www.bohemiancoding.com/sketch -->
    <title>campus</title>
    <desc>Created with Sketch.</desc>
    <defs>
        <path d="M11.9477627,5.88646969 C11.9811951,5.95354361 12,6.02918695 12,6.10922241 L12,11.5 C12,11.7761424 11.7761424,12 11.5,12 L4.5,12 C4.22385763,12 4,11.7761424 4,11.5 L4,6.10922241 C4,6.01582359 4.02560876,5.92840601 4.07018773,5.85360823 C4.1015291,5.79985754 4.14339628,5.75104992 4.19537842,5.71041439 L7.39216963,3.21141589 C7.75480199,2.9279386 8.26409799,2.92860719 8.62598482,3.21303561 L11.8081511,5.71408972 C11.8085941,5.71443791 11.8090365,5.71478685 11.8094784,5.71513654 C11.8697769,5.76286057 11.916075,5.82171838 11.9477627,5.88646969 Z M11,6.35135452 L8.61719437,4.48080253 C8.25484656,4.19635197 7.74506222,4.19623572 7.38258472,4.480521 L5,6.34914392 L5,8 L11,8 L11,6.35135452 Z M11,9 L5,9 L5,11 L11,11 L11,9 Z M3,-5.45711382e-05 L13,-5.45711382e-05 C14.1045695,-5.45711382e-05 15,0.895375929 15,1.99994543 L15,14 C15,15.1045695 14.1045695,16 13,16 L3,16 C1.8954305,16 1,15.1045695 1,14 L1,1.99994543 C1,0.895375929 1.8954305,-5.45711382e-05 3,-5.45711382e-05 Z M3,1 C2.44771525,1 2,1.44771525 2,2 L2,14 C2,14.5522847 2.44771525,15 3,15 L13,15 C13.5522847,15 14,14.5522847 14,14 L14,2 C14,1.44771525 13.5522847,1 13,1 L3,1 Z" id="path-1"></path>
    </defs>
    <g id="campus" stroke="none" stroke-width="1" fill="none" fill-rule="evenodd">
        <mask id="mask-2" fill="white">
            <use xlink:href="#path-1"></use>
        </mask>
        <use id="Combined-Shape" fill="#000000" xlink:href="#path-1"></use>
    </g>
</svg>