<?xml version="1.0" encoding="UTF-8"?>
<svg width="16px" height="16px" viewBox="0 0 16 16" version="1.1" xmlns="http://www.w3.org/2000/svg" xmlns:xlink="http://www.w3.org/1999/xlink">
    <!-- Generator: Sketch 52.4 (67378) - http://www.bohemiancoding.com/sketch -->
    <title>Child</title>
    <desc>Created with Sketch.</desc>
    <defs>
        <path d="M10,12 L8,12 L8,13 L9.25,13 L10,13 L10,15 L11,15 L11,13.75 L11,13 L13,13 L13,12 L11,12 L11,10 L10,10 L10,12 Z M3,7 L3,11.1512859 C3,11.7035706 3.44771525,12.1512859 4,12.1512859 L5,12.1512859 L5,10 C5,9.44771525 5.44771525,9 6,9 L15,9 C15.5522847,9 16,9.44771525 16,10 L16,15 C16,15.5522847 15.5522847,16 15,16 L6,16 C5.44771525,16 5,15.5522847 5,15 L5,13.1512859 L4,13.1512859 C2.8954305,13.1512859 2,12.2558554 2,11.1512859 L2,7 L1,7 C0.44771525,7 9.55813795e-16,6.55228475 8.8817842e-16,6 L0,1 C-6.76353751e-17,0.44771525 0.44771525,1.01453063e-16 1,0 L15,0 C15.5522847,-1.08250786e-15 16,0.44771525 16,1 L16,6 C16,6.55228475 15.5522847,7 15,7 L3,7 Z M1.5,1 C1.22385763,1 1,1.22385763 1,1.5 L1,5.5 C1,5.77614237 1.22385763,6 1.5,6 L14.5,6 C14.7761424,6 15,5.77614237 15,5.5 L15,1.5 C15,1.22385763 14.7761424,1 14.5,1 L1.5,1 Z" id="path-1"></path>
    </defs>
    <g id="Child" stroke="none" stroke-width="1" fill="none" fill-rule="evenodd">
        <mask id="mask-2" fill="white">
            <use xlink:href="#path-1"></use>
        </mask>
        <use id="Combined-Shape" fill="#000000" xlink:href="#path-1"></use>
    </g>
</svg>