<?xml version="1.0" encoding="UTF-8"?>
<svg width="32px" height="32px" viewBox="0 0 32 32" version="1.1" xmlns="http://www.w3.org/2000/svg" xmlns:xlink="http://www.w3.org/1999/xlink">
    <!-- Generator: Sketch 52.4 (67378) - http://www.bohemiancoding.com/sketch -->
    <title>circle-plus</title>
    <desc>Created with Sketch.</desc>
    <g id="circle-plus" stroke="none" stroke-width="1" fill="none" fill-rule="evenodd">
        <path d="M15,15 L7,15 C6.44771525,15 6,15.4477153 6,16 C6,16.5522847 6.44771525,17 7,17 L15,17 L15,25 C15,25.5522847 15.4477153,26 16,26 C16.5522847,26 17,25.5522847 17,25 L17,17 L25,17 C25.5522847,17 26,16.5522847 26,16 C26,15.4477153 25.5522847,15 25,15 L17,15 L17,7 C17,6.44771525 16.5522847,6 16,6 C15.4477153,6 15,6.44771525 15,7 L15,15 Z M16,32 C7.163444,32 0,24.836556 0,16 C0,7.163444 7.163444,0 16,0 C24.836556,0 32,7.163444 32,16 C32,24.836556 24.836556,32 16,32 Z" id="Combined-Shape" fill="#000000" fill-rule="nonzero"></path>
    </g>
</svg>