<?xml version="1.0" encoding="UTF-8"?>
<svg width="16px" height="16px" viewBox="0 0 16 16" version="1.1" xmlns="http://www.w3.org/2000/svg" xmlns:xlink="http://www.w3.org/1999/xlink">
    <!-- Generator: Sketch 52.4 (67378) - http://www.bohemiancoding.com/sketch -->
    <title>circle-check-outline</title>
    <desc>Created with Sketch.</desc>
    <g id="circle-check-outline" stroke="none" stroke-width="1" fill="none" fill-rule="evenodd">
        <path d="M0,8 C0,3.58162268 3.58162268,0 8,0 C12.4183773,0 16,3.58162268 16,8 C16,12.4183773 12.4183773,16 8,16 C3.58162268,16 0,12.4183773 0,8 Z M1,8 C1,11.8660926 4.13390743,15 8,15 C11.8660926,15 15,11.8660926 15,8 C15,4.13390743 11.8660926,1 8,1 C4.13390743,1 1,4.13390743 1,8 Z M11.5403806,4.54038059 C11.7942214,4.2865398 12.2057786,4.2865398 12.4596194,4.54038059 C12.7134602,4.79422138 12.7134602,5.20577862 12.4596194,5.45961941 L6.8131728,11.106066 C6.36406986,11.555169 5.63593014,11.555169 5.1868272,11.106066 L3.04038059,8.95961941 C2.7865398,8.70577862 2.7865398,8.29422138 3.04038059,8.04038059 C3.29422138,7.7865398 3.70577862,7.7865398 3.95961941,8.04038059 L6,10.0807612 L11.5403806,4.54038059 Z" id="Combined-Shape" fill="#000000" fill-rule="nonzero"></path>
    </g>
</svg>