<?xml version="1.0" encoding="UTF-8"?>
<svg width="16px" height="16px" viewBox="0 0 16 16" version="1.1" xmlns="http://www.w3.org/2000/svg" xmlns:xlink="http://www.w3.org/1999/xlink">
    <!-- Generator: Sketch 52.4 (67378) - http://www.bohemiancoding.com/sketch -->
    <title>circle-close</title>
    <desc>Created with Sketch.</desc>
    <g id="circle-close" stroke="none" stroke-width="1" fill="none" fill-rule="evenodd">
        <path d="M-5.32907052e-15,8 C-5.32907052e-15,3.581722 3.59071231,5.32907052e-15 8,5.32907052e-15 C12.418278,5.32907052e-15 16,3.59071231 16,8 C16,12.418278 12.4092877,16 8,16 C3.581722,16 -5.32907052e-15,12.4092877 -5.32907052e-15,8 Z M8.91923882,8 L11.9596194,4.95961941 C12.2134602,4.70577862 12.2134602,4.29422138 11.9596194,4.04038059 C11.7057786,3.7865398 11.2942214,3.7865398 11.0403806,4.04038059 L8,7.08076118 L4.95961941,4.04038059 C4.70577862,3.7865398 4.29422138,3.7865398 4.04038059,4.04038059 C3.7865398,4.29422138 3.7865398,4.70577862 4.04038059,4.95961941 L7.08076118,8 L4.04038059,11.0403806 C3.7865398,11.2942214 3.7865398,11.7057786 4.04038059,11.9596194 C4.29422138,12.2134602 4.70577862,12.2134602 4.95961941,11.9596194 L8,8.91923882 L11.0403806,11.9596194 C11.2942214,12.2134602 11.7057786,12.2134602 11.9596194,11.9596194 C12.2134602,11.7057786 12.2134602,11.2942214 11.9596194,11.0403806 L8.91923882,8 Z" id="合并形状" fill="#000000"></path>
    </g>
</svg>