<?xml version="1.0" encoding="UTF-8"?>
<svg width="16px" height="16px" viewBox="0 0 16 16" version="1.1" xmlns="http://www.w3.org/2000/svg" xmlns:xlink="http://www.w3.org/1999/xlink">
    <!-- Generator: Sketch 52.4 (67378) - http://www.bohemiancoding.com/sketch -->
    <title>circle-close-outline</title>
    <desc>Created with Sketch.</desc>
    <g id="circle-close-outline" stroke="none" stroke-width="1" fill="none" fill-rule="evenodd">
        <path d="M8,7.29289322 L11.1464466,4.14644661 C11.3417088,3.95118446 11.6582912,3.95118446 11.8535534,4.14644661 C12.0488155,4.34170876 12.0488155,4.65829124 11.8535534,4.85355339 L8.70710678,8 L11.8535534,11.1464466 C12.0488155,11.3417088 12.0488155,11.6582912 11.8535534,11.8535534 C11.6582912,12.0488155 11.3417088,12.0488155 11.1464466,11.8535534 L8,8.70710678 L4.85355339,11.8535534 C4.65829124,12.0488155 4.34170876,12.0488155 4.14644661,11.8535534 C3.95118446,11.6582912 3.95118446,11.3417088 4.14644661,11.1464466 L7.29289322,8 L4.14644661,4.85355339 C3.95118446,4.65829124 3.95118446,4.34170876 4.14644661,4.14644661 C4.34170876,3.95118446 4.65829124,3.95118446 4.85355339,4.14644661 L8,7.29289322 Z M0,8 C0,3.581722 3.59071231,0 8,0 C12.418278,0 16,3.59071231 16,8 C16,12.418278 12.4092877,16 8,16 C3.581722,16 0,12.4092877 0,8 Z M1,8 C1,11.8602816 4.13728312,15 8,15 C11.8602816,15 15,11.8627169 15,8 C15,4.13971843 11.8627169,1 8,1 C4.13971843,1 1,4.13728312 1,8 Z" id="Combined-Shape" fill="#000000" fill-rule="nonzero"></path>
    </g>
</svg>