<?xml version="1.0" encoding="UTF-8"?>
<svg width="16px" height="16px" viewBox="0 0 16 16" version="1.1" xmlns="http://www.w3.org/2000/svg" xmlns:xlink="http://www.w3.org/1999/xlink">
    <!-- Generator: Sketch 52.4 (67378) - http://www.bohemiancoding.com/sketch -->
    <title>circle-download</title>
    <desc>Created with Sketch.</desc>
    <defs>
        <path d="M8,16 C3.581722,16 0,12.418278 0,8 C0,3.581722 3.581722,0 8,0 C12.418278,0 16,3.581722 16,8 C16,12.418278 12.418278,16 8,16 Z M8.5,3 L7.5,3 C7.22385763,3 7,3.22385763 7,3.5 L7,9 L9,9 L9,3.5 C9,3.22385763 8.77614237,3 8.5,3 Z M11.0029699,9 L4.99703014,9 C4.45303631,9 4.31604759,9.31604759 4.70591205,9.70591205 L7.64502668,12.6450267 C7.84807968,12.8480797 8.15892697,12.841073 8.35497332,12.6450267 L11.2940879,9.70591205 C11.6861267,9.31387329 11.5536144,9 11.0029699,9 Z" id="path-1"></path>
    </defs>
    <g id="circle-download" stroke="none" stroke-width="1" fill="none" fill-rule="evenodd">
        <mask id="mask-2" fill="white">
            <use xlink:href="#path-1"></use>
        </mask>
        <use id="icon/general/上传" fill="#000000" xlink:href="#path-1"></use>
    </g>
</svg>