<?xml version="1.0" encoding="UTF-8"?>
<svg width="18px" height="18px" viewBox="0 0 18 18" version="1.1" xmlns="http://www.w3.org/2000/svg" xmlns:xlink="http://www.w3.org/1999/xlink">
    <!-- Generator: Sketch 52.4 (67378) - http://www.bohemiancoding.com/sketch -->
    <title>class</title>
    <desc>Created with Sketch.</desc>
    <defs>
        <path d="M2.72670916,6.33830469 L2.72670916,8.73298387 C2.72670916,9.77883326 3.07740139,11.7053223 4.43444824,12.9698486 L0.956737519,14.5619631 C0.956737519,14.5619631 0,14.9872698 0,15.5195107 L0,17.0416423 C0,17.5706428 0.429357227,18 0.956737519,18 L13.0424524,18 C13.5706428,18 14,17.5706428 14,17.0416423 L14,15.5195107 C14,14.9556756 13.0424524,14.5619631 13.0424524,14.5619631 L9.64190674,12.9787598 C10.9688636,11.9345306 11.2271721,9.88333719 11.2271721,8.73298387 L11.2271721,6.33830469 C11.2271721,4.75292338 9.12089141,2.71875 7.00488938,2.71875 C4.88969746,2.71875 2.72670916,4.75292338 2.72670916,6.33830469 Z M10.1080933,6.23242188 L10.1080933,8.62710105 C10.1080933,9.5157895 9.83184644,11.2121556 8.85323601,11.9817582 C8.55430616,12.2174996 8.39228457,12.5885291 8.42387878,12.9684697 C8.4562831,13.3476002 8.67663247,13.6862254 9.01120706,13.8684997 L12.6699713,15.4272502 C12.854341,15.5057975 12.973999,15.6868403 12.973999,15.8872446 L12.973999,16.5244141 C12.973999,16.8005564 12.7501414,17.0244141 12.473999,17.0244141 L1.52389335,17.0244141 C1.24775098,17.0244141 1.02389335,16.8005564 1.02389335,16.5244141 C1.02389335,16.5240824 1.02389368,16.5237508 1.02389434,16.5234191 L1.02515801,15.8883796 C1.02555794,15.6874017 1.14625456,15.5061968 1.33155545,15.4283773 L5.06517111,13.8603986 C5.3989356,13.6805546 5.62009508,13.3443598 5.65411961,12.9660394 C5.68814415,12.5869088 5.53017309,12.2166895 5.23367357,11.9793279 C4.28341692,11.2170162 3.8751225,9.52875123 3.8751225,8.62710105 L3.8751225,6.23242188 C3.8751225,5.41826336 5.41108722,4.01515635 7.01915155,4.01515635 C8.65718988,4.01515635 10.1080933,5.39882077 10.1080933,6.23242188 Z M13.1341376,10.0096941 L17.0299779,11.9871677 C17.0299779,11.9871677 17.9883356,12.3808802 17.9883356,12.9455254 L17.9883356,14.0780359 C17.9883356,14.6070364 17.5581683,15.0355835 17.0299779,15.0355835 L15.1489072,15.0355835 C15.0144293,14.5357469 14.9099253,14.2840925 14.5648193,14.0240479 L17.0299779,14.0240479 L17.0299779,13.738407 C17.0299779,13.4490477 16.8369025,13.1263758 16.598732,12.9950342 C16.598732,12.9950342 16.5842512,12.9811702 16.5,12.9455254 C16.4667856,12.9309435 12.5913652,11.0053168 12.5913652,11.0053168 C12.2567907,10.8230426 12.0364413,10.4844174 12.004037,10.1044768 C11.9732529,9.72453614 12.1336542,9.35431679 12.4333942,9.11857537 C13.4120046,8.34816269 13.7409085,6.65179659 13.7409085,5.76391825 L13.7409085,3.36923907 C13.7409085,2.53563796 12.2373481,1.13415117 10.5993097,1.13415117 C9.77948046,1.13415117 9.02364972,1.41120809 8.42579004,1.87621007 C7.98104076,1.73444118 7.46662219,1.73363107 7,1.70527729 C7.81820906,0.747729661 9.2245565,8.8817842e-16 10.5993097,8.8817842e-16 C12.7153118,8.8817842e-16 14.8750596,1.78385776 14.8750596,3.36923907 L14.8750596,5.76391825 C14.8750596,6.91427157 14.4619046,8.96546496 13.1341376,10.0096941 Z" id="path-1"></path>
    </defs>
    <g id="class" stroke="none" stroke-width="1" fill="none" fill-rule="evenodd">
        <mask id="mask-2" fill="white">
            <use xlink:href="#path-1"></use>
        </mask>
        <use id="Combined-Shape" fill="#000000" xlink:href="#path-1"></use>
    </g>
</svg>