<svg xmlns="http://www.w3.org/2000/svg" width="16" height="16" viewBox="0 0 16 16">
  <path fill="#333" d="M5,2 L5,1.5 C5,0.671572875 5.67157288,1.52179594e-16 6.5,0 L9.5,0 C10.3284271,-1.52179594e-16 11,0.671572875 11,1.5 L11,2 L12,2 C13.1045695,2 14,2.8954305 14,4 L14,14 C14,15.1045695 13.1045695,16 12,16 L4,16 C2.8954305,16 2,15.1045695 2,14 L2,4 C2,2.8954305 2.8954305,2 4,2 L5,2 Z M5.08535285,3 L4,3 C3.44771525,3 3,3.44771525 3,4 L3,14 C3,14.5522847 3.44771525,15 4,15 L12,15 C12.5522847,15 13,14.5522847 13,14 L13,4 C13,3.44771525 12.5522847,3 12,3 L10.9146471,3 C10.7087289,3.58259619 10.1531094,4 9.5,4 L6.5,4 C5.84689059,4 5.29127106,3.58259619 5.08535285,3 Z M6.5,1 C6.22385763,1 6,1.22385763 6,1.5 L6,2.5 C6,2.77614237 6.22385763,3 6.5,3 L9.5,3 C9.77614237,3 10,2.77614237 10,2.5 L10,1.5 C10,1.22385763 9.77614237,1 9.5,1 L6.5,1 Z"/>
</svg>
