<svg xmlns="http://www.w3.org/2000/svg" width="16" height="16" viewBox="0 0 16 16">
  <path fill="#333" d="M8.14644661,7.14644661 C8.23692881,7.05596441 8.36192881,7 8.5,7 C8.63807119,7 8.76307119,7.05596441 8.85355339,7.14644661 L11.8535534,10.1464466 L11.1464466,10.8535534 L9,8.70710678 L9,14.5 C9,14.7761424 8.77614237,15 8.5,15 C8.22385763,15 8,14.7761424 8,14.5 L8,8.70710678 L5.85355339,10.8535534 L5.14644661,10.1464466 L8.14644661,7.14644661 Z M14.7428379,10 L14,10 L14,10.3714189 L14,9.32866717 C14.6253999,8.55580411 15,7.57164832 15,6.5 C15,4.01471863 12.9852814,2 10.5,2 C8.70099806,2 7.09713036,3.06505003 6.38199565,4.68218394 L5.99363722,5.56037872 L5.1004145,5.20795638 C4.75365191,5.07114068 4.38256387,5 4,5 C2.34314575,5 1,6.34314575 1,8 C1,9.30621883 1.83480763,10.4174579 3,10.8292943 L3,11.8739825 C1.27477279,11.4299397 0,9.86383943 0,8 C0,5.790861 1.790861,4 4,4 C4.51804536,4 5.0130893,4.09848075 5.46743185,4.27774228 C6.32118842,2.3471428 8.25327318,1 10.5,1 C13.5375661,1 16,3.46243388 16,6.5 C16,7.82962919 15.5281824,9.04905946 14.7428379,10 Z"/>
</svg>
