<?xml version="1.0" encoding="UTF-8"?>
<svg width="16px" height="16px" viewBox="0 0 16 16" version="1.1" xmlns="http://www.w3.org/2000/svg" xmlns:xlink="http://www.w3.org/1999/xlink">
    <!-- Generator: Sketch 52.4 (67378) - http://www.bohemiancoding.com/sketch -->
    <title>comment-outline</title>
    <desc>Created with Sketch.</desc>
    <defs>
        <path d="M11,12 L8.35355339,14.6464466 C8.15829124,14.8417088 7.84170876,14.8417088 7.64644661,14.6464466 L5,12 L2,12 C0.8954305,12 1.3527075e-16,11.1045695 0,10 L0,2 C-1.3527075e-16,0.8954305 0.8954305,2.02906125e-16 2,0 L14,0 C15.1045695,-2.02906125e-16 16,0.8954305 16,2 L16,10 C16,11.1045695 15.1045695,12 14,12 L11,12 Z M2,1 C1.44771525,1 1,1.44771525 1,2 L1,10 C1,10.5522847 1.44771525,11 2,11 L14,11 C14.5522847,11 15,10.5522847 15,10 L15,2 C15,1.44771525 14.5522847,1 14,1 L2,1 Z M4,5 C4.55228475,5 5,5.44771525 5,6 C5,6.55228475 4.55228475,7 4,7 C3.44771525,7 3,6.55228475 3,6 C3,5.44771525 3.44771525,5 4,5 Z M8,5 C8.55228475,5 9,5.44771525 9,6 C9,6.55228475 8.55228475,7 8,7 C7.44771525,7 7,6.55228475 7,6 C7,5.44771525 7.44771525,5 8,5 Z M12,5 C12.5522847,5 13,5.44771525 13,6 C13,6.55228475 12.5522847,7 12,7 C11.4477153,7 11,6.55228475 11,6 C11,5.44771525 11.4477153,5 12,5 Z M5.5,11.0064087 L7.63778298,13.2530119 C7.82814011,13.4530589 8.14462513,13.460914 8.34467206,13.2705569 C8.35066461,13.2648546 8.35651473,13.2590045 8.36221702,13.2530119 L10.5,11.0064087 L5.5,11.0064087 Z" id="path-1"></path>
    </defs>
    <g id="comment-outline" stroke="none" stroke-width="1" fill="none" fill-rule="evenodd">
        <mask id="mask-2" fill="white">
            <use xlink:href="#path-1"></use>
        </mask>
        <use id="Combined-Shape" fill="#000000" fill-rule="nonzero" xlink:href="#path-1"></use>
    </g>
</svg>