<svg xmlns="http://www.w3.org/2000/svg" width="16" height="16" viewBox="0 0 16 16">
  <path fill="#333" d="M8,16 L6,14 L2,14 C0.8954305,14 1.3527075e-16,13.1045695 0,12 L0,2 C-1.3527075e-16,0.8954305 0.8954305,2.02906125e-16 2,0 L14,0 C15.1045695,-2.02906125e-16 16,0.8954305 16,2 L16,12 C16,13.1045695 15.1045695,14 14,14 L10,14 L8,16 Z M8,14.5857864 L9.58578644,13 L14,13 C14.5522847,13 15,12.5522847 15,12 L15,2 C15,1.44771525 14.5522847,1 14,1 L2,1 C1.44771525,1 1,1.44771525 1,2 L1,12 C1,12.5522847 1.44771525,13 2,13 L6.41421356,13 L8,14.5857864 Z M8,8 C7.44771525,8 7,7.55228475 7,7 C7,6.44771525 7.44771525,6 8,6 C8.55228475,6 9,6.44771525 9,7 C9,7.55228475 8.55228475,8 8,8 Z M12,8 C11.4477153,8 11,7.55228475 11,7 C11,6.44771525 11.4477153,6 12,6 C12.5522847,6 13,6.44771525 13,7 C13,7.55228475 12.5522847,8 12,8 Z M4,8 C3.44771525,8 3,7.55228475 3,7 C3,6.44771525 3.44771525,6 4,6 C4.55228475,6 5,6.44771525 5,7 C5,7.55228475 4.55228475,8 4,8 Z"/>
</svg>
