<svg xmlns="http://www.w3.org/2000/svg" width="20" height="20" viewBox="0 0 20 20">
  <path fill="#333" d="M11.3,4 C11.5761424,4 11.8,4.22385763 11.8,4.5 C11.8,4.77614237 11.5761424,5 11.3,5 L5.5,5 C4.67157288,5 4,5.67157288 4,6.5 L4,15.5 C4,16.3284271 4.67157288,17 5.5,17 L14.5,17 C15.3284271,17 16,16.3284271 16,15.5 L16,9.7 C16,9.42385763 16.2238576,9.2 16.5,9.2 C16.7761424,9.2 17,9.42385763 17,9.7 L17,15.5 C17,16.8807119 15.8807119,18 14.5,18 L5.5,18 C4.11928813,18 3,16.8807119 3,15.5 L3,6.5 C3,5.11928813 4.11928813,4 5.5,4 L11.3,4 Z M17.1464466,3.14644661 C17.3417088,2.95118446 17.6582912,2.95118446 17.8535534,3.14644661 C18.0488155,3.34170875 18.0488155,3.65829124 17.8535534,3.85355339 L10.8535534,10.8535534 C10.6582912,11.0488155 10.3417088,11.0488155 10.1464466,10.8535534 C9.95118446,10.6582912 9.95118446,10.3417088 10.1464466,10.1464466 L17.1464466,3.14644661 Z" id="Shape"></path>
</svg>
