<?xml version="1.0" encoding="UTF-8"?>
<svg width="16px" height="16px" viewBox="0 0 16 16" version="1.1" xmlns="http://www.w3.org/2000/svg" xmlns:xlink="http://www.w3.org/1999/xlink">
    <!-- Generator: Sketch 52.4 (67378) - http://www.bohemiancoding.com/sketch -->
    <title>copy</title>
    <desc>Created with Sketch.</desc>
    <defs>
        <path d="M11.7324356,1 L3,1 C2.44771525,1 2,1.44771525 2,2 L2,12 C2,12.5522847 2.44771525,13 3,13 L3,14 C1.8954305,14 1,13.1045695 1,12 L1,2 C1,0.8954305 1.8954305,2.02906125e-16 3,0 L10,0 C10.7402824,-1.35987663e-16 11.3866262,0.40219863 11.7324356,1 Z M6,2 L13,2 C14.1045695,2 15,2.8954305 15,4 L15,14 C15,15.1045695 14.1045695,16 13,16 L6,16 C4.8954305,16 4,15.1045695 4,14 L4,4 C4,2.8954305 4.8954305,2 6,2 Z M5,4 L5,14 C5,14.5522847 5.44771525,15 6,15 L13,15 C13.5522847,15 14,14.5522847 14,14 L14,4 C14,3.44771525 13.5522847,3 13,3 L6,3 C5.44771525,3 5,3.44771525 5,4 Z M7,5 L12,5 L12,6 L7,6 L7,5 Z M7,8 L12,8 L12,9 L7,9 L7,8 Z M7,11 L12,11 L12,12 L7,12 L7,11 Z" id="path-1"></path>
    </defs>
    <g id="copy" stroke="none" stroke-width="1" fill="none" fill-rule="evenodd">
        <mask id="mask-2" fill="white">
            <use xlink:href="#path-1"></use>
        </mask>
        <use id="Combined-Shape" fill="#000000" fill-rule="nonzero" xlink:href="#path-1"></use>
    </g>
</svg>