<svg xmlns="http://www.w3.org/2000/svg" width="16" height="16" viewBox="0 0 16 16">
  <path fill="#333" d="M9,7.70710678 L9,8 L12,8 L12,9 L9,9 L9,10 L11,10 L11,11 L9,11 L9,13 L8,13 L8,11 L6,11 L6,10 L8,10 L8,9 L5,9 L5,8 L8,8 L8,7.70710678 L5.64644661,5.35355339 L6.35355339,4.64644661 L8.5,6.79289322 L10.6464466,4.64644661 L11.3535534,5.35355339 L9,7.70710678 Z M8.5,16 C4.35786438,16 1,12.6421356 1,8.5 C1,4.35786438 4.35786438,1 8.5,1 C12.6421356,1 16,4.35786438 16,8.5 C16,12.6421356 12.6421356,16 8.5,16 Z M8.5,15 C12.0898509,15 15,12.0898509 15,8.5 C15,4.91014913 12.0898509,2 8.5,2 C4.91014913,2 2,4.91014913 2,8.5 C2,12.0898509 4.91014913,15 8.5,15 Z"/>
</svg>
