<?xml version="1.0" encoding="UTF-8"?>
<svg width="18px" height="18px" viewBox="0 0 18 18" version="1.1" xmlns="http://www.w3.org/2000/svg" xmlns:xlink="http://www.w3.org/1999/xlink">
    <!-- Generator: Sketch 52.4 (67378) - http://www.bohemiancoding.com/sketch -->
    <title>curriculum</title>
    <desc>Created with Sketch.</desc>
    <defs>
        <path d="M2,0 L16,0 C17.1045695,-2.02906125e-16 18,0.8954305 18,2 L18,16 C18,17.1045695 17.1045695,18 16,18 L2,18 C0.8954305,18 1.3527075e-16,17.1045695 0,16 L0,2 C-1.3527075e-16,0.8954305 0.8954305,2.02906125e-16 2,0 Z M2,2 C1.44771525,2 1,2.44771525 1,3 L1,16 C1,16.5522847 1.44771525,17 2,17 L16,17 C16.5522847,17 17,16.5522847 17,16 L17,3 C17,2.44771525 16.5522847,2 16,2 L2,2 Z M7,8 L15,8 C15.5522847,8 16,8.44771525 16,9 L16,10 C16,10.5522847 15.5522847,11 15,11 L7,11 C6.44771525,11 6,10.5522847 6,10 L6,9 C6,8.44771525 6.44771525,8 7,8 Z M7,9 L7,10 L15,10 L15,9 L7,9 Z M7,4 L15,4 C15.5522847,4 16,4.44771525 16,5 L16,6 C16,6.55228475 15.5522847,7 15,7 L7,7 C6.44771525,7 6,6.55228475 6,6 L6,5 C6,4.44771525 6.44771525,4 7,4 Z M7,5 L7,6 L15,6 L15,5 L7,5 Z M3,8 L4,8 C4.55228475,8 5,8.44771525 5,9 L5,10 C5,10.5522847 4.55228475,11 4,11 L3,11 C2.44771525,11 2,10.5522847 2,10 L2,9 C2,8.44771525 2.44771525,8 3,8 Z M3,9 L3,10 L4,10 L4,9 L3,9 Z M3,4 L4,4 C4.55228475,4 5,4.44771525 5,5 L5,6 C5,6.55228475 4.55228475,7 4,7 L3,7 C2.44771525,7 2,6.55228475 2,6 L2,5 C2,4.44771525 2.44771525,4 3,4 Z M3,5 L3,6 L4,6 L4,5 L3,5 Z M3,12 L15,12 C15.5522847,12 16,12.4477153 16,13 L16,14 C16,14.5522847 15.5522847,15 15,15 L3,15 C2.44771525,15 2,14.5522847 2,14 L2,13 C2,12.4477153 2.44771525,12 3,12 Z M3,13 L3,14 L15,14 L15,13 L3,13 Z" id="path-1"></path>
    </defs>
    <g id="curriculum" stroke="none" stroke-width="1" fill="none" fill-rule="evenodd">
        <mask id="mask-2" fill="white">
            <use xlink:href="#path-1"></use>
        </mask>
        <use id="Combined-Shape" fill="#000000" xlink:href="#path-1"></use>
    </g>
</svg>