<?xml version="1.0" encoding="UTF-8"?>
<svg width="18px" height="18px" viewBox="0 0 18 18" version="1.1" xmlns="http://www.w3.org/2000/svg" xmlns:xlink="http://www.w3.org/1999/xlink">
    <!-- Generator: Sketch 52.4 (67378) - http://www.bohemiancoding.com/sketch -->
    <title>data disk</title>
    <desc>Created with Sketch.</desc>
    <g id="data-disk" stroke="none" stroke-width="1" fill="none" fill-rule="evenodd">
        <path d="M17.999998,14.4962158 C17.9999993,14.4974771 18,14.4987385 18,14.5 C18,16.4329966 16.4329966,18 14.5,18 L3.5,18 C1.56700338,18 2.36723813e-16,16.4329966 0,14.5 C-1.54495223e-19,14.4987385 6.67446019e-07,14.4974771 2.0020042e-06,14.4962158 L0,13.050293 L1,2 C1.03743449,1.37004022 1.22278809,0.887318251 1.55606079,0.551834106 C1.88933349,0.216349962 2.36625203,0.03240526 2.98681641,-1.69406589e-21 L15.0397949,1.89653213e-16 C15.7109345,0.0417341516 16.1875682,0.205735616 16.469696,0.492004395 C16.7518239,0.778273173 16.9322133,1.28093837 17.0108643,2 L18,13.050293 L18,14.4962158 Z M16.9302875,11.9813244 C16.3299386,5.5282814 16.0134544,2.20568988 15.980835,2.0135498 C15.9561656,1.86823895 15.987541,1.54781243 15.6991425,1.29147339 C15.5068768,1.12058069 15.2738293,1.0234229 15,1 L3,1 C2.66949875,1.01993742 2.4248495,1.1090284 2.26605225,1.26727295 C2.10725499,1.4255175 2.0128743,1.67427645 1.98291016,2.0135498 L1.1108548,11.9422522 C1.73633468,11.3577558 2.57638817,11 3.5,11 L14.5,11 C15.4440181,11 16.3007447,11.3737389 16.9302875,11.9813244 Z M9.50292208,9 L9,9 L7.17058888,9 C5.00053129,9 4,7.83084388 4,6.24148547 C4,4.65212706 5.27218175,3.61252121 7.00159386,3.61252121 L7.79510604,3.61252121 C8.22745907,2.74559844 8.97500557,2 9.9838293,2 C11.5039847,2 12.4731883,2.96893313 12.4731883,4.41437368 C13.3378943,4.70334793 14,5.17594067 14,6.49225952 C14,7.79264367 13.0889022,9 11.4941192,9 L9.50292208,9 Z M9.47205933,8 C9.48519067,7.99795868 9.49876697,7.99690381 9.51278757,7.99690381 L11.5039847,7.99690381 C12.1789647,7.99690381 13.0047816,7.49535571 13.0047816,6.49225952 C13.0047816,5.48916333 12.2108347,5.32042779 11.634364,5.17594067 C11.634364,4.17370605 11.2967529,2.96893313 10.0158898,2.96893313 C9.25602584,2.96893313 8.74415736,3.7259083 8.46526171,4.61598475 C7.82020482,4.61598475 7.02064331,4.61598475 6.73240796,4.61598475 C5.72358422,4.61598475 5.00053129,5.51904983 5.00053129,6.24148547 C5.00053129,6.96392111 5.58351297,7.99690381 7.00159386,7.99690381 L9.04411867,7.99690381 C9.05813927,7.99690381 9.07165881,7.99795868 9.08468028,8 L9.47205933,8 Z M15,15.5 C15.5522847,15.5 16,15.0522847 16,14.5 C16,13.9477153 15.5522847,13.5 15,13.5 C14.4477153,13.5 14,13.9477153 14,14.5 C14,15.0522847 14.4477153,15.5 15,15.5 Z M6,13.5 C5.44771525,13.5 5,13.9477153 5,14.5 C5,15.0522847 5.44771525,15.5 6,15.5 L11,15.5 C11.5522847,15.5 12,15.0522847 12,14.5 C12,13.9477153 11.5522847,13.5 11,13.5 L6,13.5 Z" id="Combined-Shape" fill="#000000"></path>
    </g>
</svg>