<?xml version="1.0" encoding="UTF-8"?>
<svg width="16px" height="16px" viewBox="0 0 16 16" version="1.1" xmlns="http://www.w3.org/2000/svg" xmlns:xlink="http://www.w3.org/1999/xlink">
    <!-- Generator: Sketch 52.4 (67378) - http://www.bohemiancoding.com/sketch -->
    <title>date</title>
    <desc>Created with Sketch.</desc>
    <defs>
        <path d="M0.5,0 L15.5,0 C15.7761424,-5.07265313e-17 16,0.223857625 16,0.5 L16,15 C16,15.5522847 15.5522847,16 15,16 L1,16 C0.44771525,16 6.76353751e-17,15.5522847 0,15 L0,0.5 C-3.38176876e-17,0.223857625 0.223857625,5.07265313e-17 0.5,0 Z M9.5,0.999972714 C9.22385763,0.999972714 9,1.22383034 9,1.49997271 C9,1.77611509 9.22385763,1.99997271 9.5,1.99997271 L14.5,1.99997271 C14.7761424,1.99997271 15,1.77611509 15,1.49997271 C15,1.22383034 14.7761424,0.999972714 14.5,0.999972714 L9.5,0.999972714 Z M1.5,1 C1.22385763,1 1,1.22385763 1,1.5 C1,1.77614237 1.22385763,2 1.5,2 L6.5,2 C6.77614237,2 7,1.77614237 7,1.5 C7,1.22385763 6.77614237,1 6.5,1 L1.5,1 Z M1.5,2.99997271 C1.22385763,2.99997271 1,3.22383034 1,3.49997271 L1,14.5 C1,14.7761424 1.22385763,15 1.5,15 L14.5,15 C14.7761424,15 15,14.7761424 15,14.5 L15,3.49997271 C15,3.22383034 14.7761424,2.99997271 14.5,2.99997271 L1.5,2.99997271 Z M7.5,5 L8.5,5 C8.77614237,5 9,5.22385763 9,5.5 L9,6.5 C9,6.77614237 8.77614237,7 8.5,7 L7.5,7 C7.22385763,7 7,6.77614237 7,6.5 L7,5.5 C7,5.22385763 7.22385763,5 7.5,5 Z M3.5,5 L4.5,5 C4.77614237,5 5,5.22385763 5,5.5 L5,6.5 C5,6.77614237 4.77614237,7 4.5,7 L3.5,7 C3.22385763,7 3,6.77614237 3,6.5 L3,5.5 C3,5.22385763 3.22385763,5 3.5,5 Z M11.5,5 L12.5,5 C12.7761424,5 13,5.22385763 13,5.5 L13,6.5 C13,6.77614237 12.7761424,7 12.5,7 L11.5,7 C11.2238576,7 11,6.77614237 11,6.5 L11,5.5 C11,5.22385763 11.2238576,5 11.5,5 Z M7.5,8 L8.5,8 C8.77614237,8 9,8.22385763 9,8.5 L9,9.5 C9,9.77614237 8.77614237,10 8.5,10 L7.5,10 C7.22385763,10 7,9.77614237 7,9.5 L7,8.5 C7,8.22385763 7.22385763,8 7.5,8 Z M3.5,8 L4.5,8 C4.77614237,8 5,8.22385763 5,8.5 L5,9.5 C5,9.77614237 4.77614237,10 4.5,10 L3.5,10 C3.22385763,10 3,9.77614237 3,9.5 L3,8.5 C3,8.22385763 3.22385763,8 3.5,8 Z M11.5,8 L12.5,8 C12.7761424,8 13,8.22385763 13,8.5 L13,9.5 C13,9.77614237 12.7761424,10 12.5,10 L11.5,10 C11.2238576,10 11,9.77614237 11,9.5 L11,8.5 C11,8.22385763 11.2238576,8 11.5,8 Z M7.5,11 L8.5,11 C8.77614237,11 9,11.2238576 9,11.5 L9,12.5 C9,12.7761424 8.77614237,13 8.5,13 L7.5,13 C7.22385763,13 7,12.7761424 7,12.5 L7,11.5 C7,11.2238576 7.22385763,11 7.5,11 Z M3.5,11 L4.5,11 C4.77614237,11 5,11.2238576 5,11.5 L5,12.5 C5,12.7761424 4.77614237,13 4.5,13 L3.5,13 C3.22385763,13 3,12.7761424 3,12.5 L3,11.5 C3,11.2238576 3.22385763,11 3.5,11 Z M11.5,11 L12.5,11 C12.7761424,11 13,11.2238576 13,11.5 L13,12.5 C13,12.7761424 12.7761424,13 12.5,13 L11.5,13 C11.2238576,13 11,12.7761424 11,12.5 L11,11.5 C11,11.2238576 11.2238576,11 11.5,11 Z" id="path-1"></path>
    </defs>
    <g id="date" stroke="none" stroke-width="1" fill="none" fill-rule="evenodd">
        <mask id="mask-2" fill="white">
            <use xlink:href="#path-1"></use>
        </mask>
        <use id="Combined-Shape" fill="#000000" xlink:href="#path-1"></use>
    </g>
</svg>