<?xml version="1.0" encoding="UTF-8"?>
<svg width="16px" height="16px" viewBox="0 0 16 16" version="1.1" xmlns="http://www.w3.org/2000/svg" xmlns:xlink="http://www.w3.org/1999/xlink">
    <!-- Generator: Sketch 52.4 (67378) - http://www.bohemiancoding.com/sketch -->
    <title>delete</title>
    <desc>Created with Sketch.</desc>
    <defs>
        <path d="M5,2 L5,0.998956561 C5,0.447248087 5.45097518,0 5.99077797,0 L10.009222,0 C10.5564136,0 11,0.442660332 11,0.998956561 L11,2 L15.5036068,2 C15.7777572,2 16,2.23193359 16,2.5 C16,2.77614237 15.773819,3 15.5036068,3 L14,3 L14,15.0014977 C14,15.5529553 13.544239,16 12.9975267,16 L3.00247329,16 C2.44882258,16 2,15.5525106 2,15.0014977 L2,3 L0.496393204,3 C0.222242807,3 0,2.76806641 0,2.5 C0,2.22385763 0.22618103,2 0.496393204,2 L5,2 Z M3,3 L3,14.5 C3,14.7761424 3.22385763,15 3.5,15 L12.5,15 C12.7761424,15 13,14.7761424 13,14.5 L13,3 L3,3 Z M10,2 L10,1.5 C10,1.22385763 9.77614237,1 9.5,1 L6.5,1 C6.22385763,1 6,1.22385763 6,1.5 L6,2 L10,2 Z M6.5,4 C6.77614237,4 7,4.22385763 7,4.5 L7,12.5 C7,12.7761424 6.77614237,13 6.5,13 C6.22385763,13 6,12.7761424 6,12.5 L6,4.5 C6,4.22385763 6.22385763,4 6.5,4 Z M9.5,4 C9.77614237,4 10,4.22385763 10,4.5 L10,12.5 C10,12.7761424 9.77614237,13 9.5,13 C9.22385763,13 9,12.7761424 9,12.5 L9,4.5 C9,4.22385763 9.22385763,4 9.5,4 Z" id="path-1"></path>
    </defs>
    <g id="delete" stroke="none" stroke-width="1" fill="none" fill-rule="evenodd">
        <mask id="mask-2" fill="white">
            <use xlink:href="#path-1"></use>
        </mask>
        <use id="Combined-Shape" fill="#000000" xlink:href="#path-1"></use>
    </g>
</svg>