<svg xmlns="http://www.w3.org/2000/svg" width="16" height="16" viewBox="0 0 16 16">
  <path fill="#333" d="M12.3671368,4 L13.5857864,4 L11,1.41421356 L11,3.85151288 C11,3.89251647 11.01662,3.92963825 11.0434909,3.95650913 C11.0703618,3.98338001 11.1074835,4 11.1484871,4 L12.3671368,4 Z M10,1 L3,1 C2.44771525,1 2,1.44771525 2,2 L2,14 C2,14.5522847 2.44771525,15 3,15 L13,15 C13.5522847,15 14,14.5522847 14,14 L14,5 L11.1484871,5 C10.5141952,5 10,4.4858048 10,3.85151288 L10,1 Z M3,-1.77635684e-15 L10.5857864,-9.1975155e-17 C10.8510029,-2.70764084e-16 11.1053568,0.10535684 11.2928932,0.292893219 L14.7071068,3.70710678 C14.8946432,3.89464316 15,4.14899707 15,4.41421356 L15,14 C15,15.1045695 14.1045695,16 13,16 L3,16 C1.8954305,16 1,15.1045695 1,14 L1,2 C1,0.8954305 1.8954305,-1.57345071e-15 3,-1.77635684e-15 Z"/>
</svg>
