<svg xmlns="http://www.w3.org/2000/svg" width="16" height="16" viewBox="0 0 16 16">
  <path fill="#333" d="M2,12 L2,14 C2,14.5522847 2.41573559,15 2.92857143,15 L14.0714286,15 C14.5842644,15 15,14.5522847 15,14 L15,12 L2,12 Z M7.99999486,9.29288808 L7.99999486,1.5 C7.99999486,1.22385763 8.22385249,1 8.49999486,1 C8.77613724,1 8.99999486,1.22385763 8.99999486,1.5 L8.99999486,9.29289836 L11.1464466,7.14644661 L11.8535534,7.85355339 L8.85355339,10.8535534 C8.76306842,10.9440345 8.63806736,11 8.49999486,11 C8.36123595,11 8.23567877,10.9434767 8.14509199,10.8521988 L5.14644661,7.85355339 L5.85355339,7.14644661 L7.99999486,9.29288808 Z M1,12 L16,12 L16,14 C16,15.1045695 15.1605339,16 14.125,16 L2.875,16 C1.83946609,16 1,15.1045695 1,14 L1,12 Z"/>
</svg>
