<?xml version="1.0" encoding="UTF-8"?>
<svg width="16px" height="16px" viewBox="0 0 16 16" version="1.1" xmlns="http://www.w3.org/2000/svg" xmlns:xlink="http://www.w3.org/1999/xlink">
    <!-- Generator: Sketch 52.4 (67378) - http://www.bohemiancoding.com/sketch -->
    <title>drag</title>
    <desc>Created with Sketch.</desc>
    <defs>
        <path d="M6,3 C6.55228475,3 7,3.44771525 7,4 C7,4.55228475 6.55228475,5 6,5 C5.44771525,5 5,4.55228475 5,4 C5,3.44771525 5.44771525,3 6,3 Z M6,7 C6.55228475,7 7,7.44771525 7,8 C7,8.55228475 6.55228475,9 6,9 C5.44771525,9 5,8.55228475 5,8 C5,7.44771525 5.44771525,7 6,7 Z M6,11 C6.55228475,11 7,11.4477153 7,12 C7,12.5522847 6.55228475,13 6,13 C5.44771525,13 5,12.5522847 5,12 C5,11.4477153 5.44771525,11 6,11 Z M10,3 C10.5522847,3 11,3.44771525 11,4 C11,4.55228475 10.5522847,5 10,5 C9.44771525,5 9,4.55228475 9,4 C9,3.44771525 9.44771525,3 10,3 Z M10,7 C10.5522847,7 11,7.44771525 11,8 C11,8.55228475 10.5522847,9 10,9 C9.44771525,9 9,8.55228475 9,8 C9,7.44771525 9.44771525,7 10,7 Z M10,11 C10.5522847,11 11,11.4477153 11,12 C11,12.5522847 10.5522847,13 10,13 C9.44771525,13 9,12.5522847 9,12 C9,11.4477153 9.44771525,11 10,11 Z" id="path-1"></path>
    </defs>
    <g id="drag" stroke="none" stroke-width="1" fill="none" fill-rule="evenodd">
        <mask id="mask-2" fill="white">
            <use xlink:href="#path-1"></use>
        </mask>
        <use id="Combined-Shape" fill="#000000" xlink:href="#path-1"></use>
    </g>
</svg>