<?xml version="1.0" encoding="UTF-8"?>
<svg width="16px" height="16px" viewBox="0 0 16 16" version="1.1" xmlns="http://www.w3.org/2000/svg" xmlns:xlink="http://www.w3.org/1999/xlink">
    <!-- Generator: Sketch 52.4 (67378) - http://www.bohemiancoding.com/sketch -->
    <title>edit</title>
    <desc>Created with Sketch.</desc>
    <defs>
        <path d="M5.50983472,2.35601938 L14.7293606,11.5007268 C14.9868799,11.7491246 14.9942161,12.3757611 14.5793556,12.779239 L12.8182417,14.636727 C12.369113,15.0008643 11.749339,15.1166207 11.4940786,14.8682229 L2.26819127,5.50181353 C2.26819127,5.50181353 0.993666102,3.62541739 0.993666102,1.87534864 C0.993666102,1.43783145 1.43118329,1.00031427 1.86870048,1.00031427 C3.61876922,1.00031427 5.50983472,2.35601938 5.50983472,2.35601938 Z M11.9640678,13.7172158 L13.739722,11.9071292 L11.9315958,10.1881752 L10.1480497,11.9340216 L11.9640678,13.7172158 Z M1.99559755,2.02427349 C1.99559755,3.77434224 3.62228227,5.37567603 3.62228227,5.37567603 L9.25728203,11.1039252 L11.0565614,9.31314082 L5.38602344,3.61786908 C5.38602344,3.61786908 3.7456663,2.02427349 1.99559755,2.02427349 Z" id="path-1"></path>
    </defs>
    <g id="edit" stroke="none" stroke-width="1" fill="none" fill-rule="evenodd">
        <mask id="mask-2" fill="white">
            <use xlink:href="#path-1"></use>
        </mask>
        <use id="Shape" fill="#000000" transform="translate(7.951515, 8.000314) scale(1, -1) translate(-7.951515, -8.000314) " xlink:href="#path-1"></use>
    </g>
</svg>