<svg xmlns="http://www.w3.org/2000/svg" width="16" height="16" viewBox="0 0 16 16">
  <path fill="#333" d="M9.3,1 C9.57614237,1 9.8,1.22385763 9.8,1.5 C9.8,1.77614237 9.57614237,2 9.3,2 L3.5,2 C2.67157288,2 2,2.67157288 2,3.5 L2,12.5 C2,13.3284271 2.67157288,14 3.5,14 L12.5,14 C13.3284271,14 14,13.3284271 14,12.5 L14,6.7 C14,6.42385763 14.2238576,6.2 14.5,6.2 C14.7761424,6.2 15,6.42385763 15,6.7 L15,12.5 C15,13.8807119 13.8807119,15 12.5,15 L3.5,15 C2.11928813,15 1,13.8807119 1,12.5 L1,3.5 C1,2.11928813 2.11928813,1 3.5,1 L9.3,1 Z M15.1464466,0.146446609 C15.3417088,-0.0488155365 15.6582912,-0.0488155365 15.8535534,0.146446609 C16.0488155,0.341708755 16.0488155,0.658291245 15.8535534,0.853553391 L8.85355339,7.85355339 C8.65829124,8.04881554 8.34170876,8.04881554 8.14644661,7.85355339 C7.95118446,7.65829124 7.95118446,7.34170876 8.14644661,7.14644661 L15.1464466,0.146446609 Z"/>
</svg>
