<svg xmlns="http://www.w3.org/2000/svg" width="16" height="16" viewBox="0 0 16 16">
  <path fill="#333" d="M14.206742,2.0213965 C14.1400338,2.00737394 14.0708781,2 14,2 L2,2 C1.92912194,2 1.85996615,2.00737394 1.79325795,2.0213965 L7.67460431,7.06255052 C7.86184918,7.22304612 8.13815082,7.22304612 8.32539569,7.06255052 L14.206742,2.0213965 Z M14.9536688,2.69825136 L8.97618706,7.82180712 C8.41445247,8.30329392 7.58554753,8.30329392 7.02381294,7.82180712 L1.04633122,2.69825136 C1.01623346,2.79346328 1,2.89483588 1,3 L1,13 C1,13.5522847 1.44771525,14 2,14 L14,14 C14.5522847,14 15,13.5522847 15,13 L15,3 C15,2.89483588 14.9837665,2.79346328 14.9536688,2.69825136 Z M2,1 L14,1 C15.1045695,1 16,1.8954305 16,3 L16,13 C16,14.1045695 15.1045695,15 14,15 L2,15 C0.8954305,15 1.3527075e-16,14.1045695 0,13 L0,3 C-1.3527075e-16,1.8954305 0.8954305,1 2,1 Z"/>
</svg>
