<?xml version="1.0" encoding="UTF-8"?>
<svg width="16px" height="16px" viewBox="0 0 16 16" version="1.1" xmlns="http://www.w3.org/2000/svg" xmlns:xlink="http://www.w3.org/1999/xlink">
    <!-- Generator: Sketch 52.4 (67378) - http://www.bohemiancoding.com/sketch -->
    <title>error-circle</title>
    <desc>Created with Sketch.</desc>
    <defs>
        <path d="M8,6.58578644 L5.17157288,3.75735931 C4.78104858,3.36683502 4.1478836,3.36683502 3.75735931,3.75735931 C3.36683502,4.1478836 3.36683502,4.78104858 3.75735931,5.17157288 L6.58578644,8 L3.75735931,10.8284271 C3.36683502,11.2189514 3.36683502,11.8521164 3.75735931,12.2426407 C4.1478836,12.633165 4.78104858,12.633165 5.17157288,12.2426407 L8,9.41421356 L10.8284271,12.2426407 C11.2189514,12.633165 11.8521164,12.633165 12.2426407,12.2426407 C12.633165,11.8521164 12.633165,11.2189514 12.2426407,10.8284271 L9.41421356,8 L12.2426407,5.17157288 C12.633165,4.78104858 12.633165,4.1478836 12.2426407,3.75735931 C11.8521164,3.36683502 11.2189514,3.36683502 10.8284271,3.75735931 L8,6.58578644 Z M0,8 C0,3.581722 3.59071231,0 8,0 C12.418278,0 16,3.59071231 16,8 C16,12.418278 12.4092877,16 8,16 C3.581722,16 0,12.4092877 0,8 Z" id="path-1"></path>
    </defs>
    <g id="error-circle" stroke="none" stroke-width="1" fill="none" fill-rule="evenodd">
        <mask id="mask-2" fill="white">
            <use xlink:href="#path-1"></use>
        </mask>
        <use id="Combined-Shape" fill="#000000" xlink:href="#path-1"></use>
    </g>
</svg>