<?xml version="1.0" encoding="UTF-8"?>
<svg width="18px" height="18px" viewBox="0 0 18 18" version="1.1" xmlns="http://www.w3.org/2000/svg" xmlns:xlink="http://www.w3.org/1999/xlink">
    <!-- Generator: Sketch 52.4 (67378) - http://www.bohemiancoding.com/sketch -->
    <title>exam</title>
    <desc>Created with Sketch.</desc>
    <defs>
        <path d="M17,5 L16.0252686,5 L16.0252686,1.97912598 C16.0252686,1.42684123 15.5775533,0.979125977 15.0252686,0.979125977 L3.00512695,0.979125977 C2.4528422,0.979125977 2.00512695,1.42684123 2.00512695,1.97912598 L2.00512695,16.0118408 C2.00512695,16.5641256 2.4528422,17.0118408 3.00512695,17.0118408 L15.0252686,17.0118408 C15.5775533,17.0118408 16.0252686,16.5641256 16.0252686,16.0118408 L16.0252686,10 L17,10 L17,16.5 C17,17.3284271 16.3284271,18 15.5,18 L2.5,18 C1.67157288,18 1,17.3284271 1,16.5 L1,1.5 C1,0.671572875 1.67157288,1.52179594e-16 2.5,0 L15.5,0 C16.3284271,-1.52179594e-16 17,0.671572875 17,1.5 L17,5 Z M9,13.250626 C9,12.9716853 9.11650673,12.7054219 9.32138783,12.5161292 L16.3286851,6.04198621 C16.5312261,5.85485573 16.8470327,5.86703097 17.0345651,6.06919988 L17.6626292,6.74628336 C17.8493816,6.94761149 17.8388158,7.26187613 17.6389627,7.45020622 L10.0108832,14.638471 C9.89962268,14.7433165 9.75251806,14.8017075 9.59964075,14.8017075 C9.26846831,14.8017075 9,14.5332392 9,14.2020667 L9,13.250626 Z M4.5,4 L13.5,4 C13.7761424,4 14,4.22385763 14,4.5 C14,4.77614237 13.7761424,5 13.5,5 L4.5,5 C4.22385763,5 4,4.77614237 4,4.5 C4,4.22385763 4.22385763,4 4.5,4 Z M4.5,7 L11.5,7 C11.7761424,7 12,7.22385763 12,7.5 C12,7.77614237 11.7761424,8 11.5,8 L4.5,8 C4.22385763,8 4,7.77614237 4,7.5 C4,7.22385763 4.22385763,7 4.5,7 Z M4.5,10 L8.5,10 C8.77614237,10 9,10.2238576 9,10.5 C9,10.7761424 8.77614237,11 8.5,11 L4.5,11 C4.22385763,11 4,10.7761424 4,10.5 C4,10.2238576 4.22385763,10 4.5,10 Z M4.5,14 L6.5,14 C6.77614237,14 7,14.2238576 7,14.5 C7,14.7761424 6.77614237,15 6.5,15 L4.5,15 C4.22385763,15 4,14.7761424 4,14.5 C4,14.2238576 4.22385763,14 4.5,14 Z" id="path-1"></path>
    </defs>
    <g id="exam" stroke="none" stroke-width="1" fill="none" fill-rule="evenodd">
        <mask id="mask-2" fill="white">
            <use xlink:href="#path-1"></use>
        </mask>
        <use id="Combined-Shape" fill="#000000" xlink:href="#path-1"></use>
    </g>
</svg>