<svg xmlns="http://www.w3.org/2000/svg" width="16" height="16" viewBox="0 0 16 16">
  <path fill="#333" d="M7.71728516,3.85864258 L7.71728516,11.5759277 L0,11.5759277 L0,3.85864258 L7.71728516,3.85864258 Z M4.95449707,9.89613201 L4.95449707,9.89548889 L6.0728603,9.89548889 L4.41621643,7.72821797 L5.97639424,5.53843831 L4.86639141,5.53843831 L4.8213739,5.61110942 C4.62072449,5.92816121 4.01041584,6.89475117 3.91973774,7.02015706 L3.89787212,7.06324524 C3.88372375,7.04459512 3.8689323,7.0253019 3.85285461,7.00665181 L2.91391826,5.53843831 L1.82835347,5.53843831 L3.38917439,7.69927815 L1.64378174,9.89613201 L2.76728984,9.89613201 L3.82970276,8.45750142 C3.85595404,8.42970554 3.87903331,8.39907696 3.89851521,8.36618022 L3.90366008,8.37518372 L4.95449707,9.89613201 Z M3.13514709,0 L13.9875793,0 L13.9875793,15.4345703 L3.13514709,15.4345703 L3.13514709,12.3476562 L3.91032082,12.3476562 L3.91032082,14.6628418 L13.2124056,14.6628418 L13.2124056,0.771728516 L3.91032082,0.771728516 L3.91032082,3.08691406 L3.13514709,3.08691406 L3.13514709,0 Z M8.44078064,5.78796387 L12.0582581,5.78796387 L12.0582581,6.5683635 L8.44078064,6.5683635 L8.44078064,5.78796387 Z M8.44078064,7.56857568 L12.0582581,7.56857568 L12.0582581,8.34897528 L8.44078064,8.34897528 L8.44078064,7.56857568 Z M8.44078064,9.34853713 L12.0582581,9.34853713 L12.0582581,10.1289368 L8.44078064,10.1289368 L8.44078064,9.34853713 Z" transform="translate(1)"/>
</svg>
