<?xml version="1.0" encoding="UTF-8"?>
<svg width="16px" height="16px" viewBox="0 0 16 16" version="1.1" xmlns="http://www.w3.org/2000/svg" xmlns:xlink="http://www.w3.org/1999/xlink">
    <!-- Generator: Sketch 52.4 (67378) - http://www.bohemiancoding.com/sketch -->
    <title>export</title>
    <desc>Created with Sketch.</desc>
    <defs>
        <path d="M7,6 L4.99703014,6 C4.45303631,6 4.27982203,5.65022246 4.625,5.21875 L7.375,1.78125 C7.7250638,1.34367025 8.27982203,1.34977754 8.625,1.78125 L11.375,5.21875 C11.7250638,5.65632975 11.5536144,6 11.0029699,6 L9,6 L9,11.5 C9,11.7761424 8.77614237,12 8.5,12 L7.5,12 C7.22385763,12 7,11.7761424 7,11.5 L7,6 Z M15,8.59121576 C15,8.31507339 15.2238576,8.09121576 15.5,8.09121576 C15.7761424,8.09121576 16,8.31507339 16,8.59121576 L16,15 C16,15.552 15.552,16 15,16 L1,16 C0.448,16 0,15.552 0,15 L0,8.59121576 C-3.38176876e-17,8.31507339 0.223857625,8.09121576 0.5,8.09121576 C0.776142375,8.09121576 1,8.31507339 1,8.59121576 L1,14.5 C1,14.7761424 1.22385763,15 1.5,15 L14.5,15 C14.7761424,15 15,14.7761424 15,14.5 L15,8.59121576 Z" id="path-1"></path>
    </defs>
    <g id="export" stroke="none" stroke-width="1" fill="none" fill-rule="evenodd">
        <mask id="mask-2" fill="white">
            <use xlink:href="#path-1"></use>
        </mask>
        <use id="Combined-Shape" fill="#000000" xlink:href="#path-1"></use>
    </g>
</svg>