<?xml version="1.0" encoding="UTF-8"?>
<svg width="16px" height="16px" viewBox="0 0 16 16" version="1.1" xmlns="http://www.w3.org/2000/svg" xmlns:xlink="http://www.w3.org/1999/xlink">
    <!-- Generator: Sketch 52.4 (67378) - http://www.bohemiancoding.com/sketch -->
    <title>eye-off</title>
    <desc>Created with Sketch.</desc>
    <g id="eye-off" stroke="none" stroke-width="1" fill="none" fill-rule="evenodd">
        <path d="M12.6622617,12.6710099 L14.3796283,14.6746043 C14.5593394,14.8842672 14.5350586,15.1999172 14.3253957,15.3796283 C14.1157328,15.5593394 13.8000828,15.5350586 13.6203717,15.3253957 L11.7669269,13.1630434 C10.6894462,13.6746118 9.42607018,14 8,14 C2.99999979,14 0,10 0,8 C0,6.73691241 1.19654262,4.67612968 3.3377383,3.32899006 L1.6203717,1.32539569 C1.44066062,1.11573277 1.46494139,0.800082774 1.67460431,0.620371699 C1.88426723,0.440660623 2.19991723,0.464941392 2.3796283,0.674604313 L4.2330731,2.83695658 C5.31055375,2.32538816 6.57392982,2 8,2 C13.0000002,2 16,6 16,8 C16,9.26308759 14.8034574,11.3238703 12.6622617,12.6710099 Z M11.9939924,11.8913624 C13.7928453,10.8473397 15,9.25996743 15,8 C15,5.93831129 11.7678576,3 8,3 C6.90891874,3 5.8627595,3.24638997 4.92699743,3.64653496 L6.45426458,5.42834664 C6.90570123,5.15641958 7.43458374,5 8,5 C9.65685425,5 11,6.34314575 11,8 C11,8.73061512 10.7388249,9.40022952 10.3047445,9.92057324 L11.9939924,11.8913624 Z M11.0730026,12.353465 L9.54573542,10.5716534 C9.09429877,10.8435804 8.56541626,11 8,11 C6.34314575,11 5,9.65685425 5,8 C5,7.26938488 5.26117515,6.59977048 5.69525548,6.07942676 L4.00600763,4.1086376 C2.2071547,5.1526603 1,6.74003257 1,8 C1,10.0616887 4.23214235,13 8,13 C9.09108126,13 10.1372405,12.75361 11.0730026,12.353465 Z M6.36000329,6.85496588 C6.13311316,7.17932955 6,7.57411965 6,8 C6,9.1045695 6.8954305,10 8,10 C8.31613687,10 8.61514208,9.92665068 8.88092569,9.79604201 L6.36000329,6.85496588 Z M7.11907431,6.20395799 L9.63999671,9.14503412 C9.86688684,8.82067045 10,8.42588035 10,8 C10,6.8954305 9.1045695,6 8,6 C7.68386313,6 7.38485792,6.07334932 7.11907431,6.20395799 Z" id="Combined-Shape" fill="#000000" fill-rule="nonzero"></path>
    </g>
</svg>