<svg xmlns="http://www.w3.org/2000/svg" width="16" height="16" viewBox="0 0 16 16">
  <path fill="#333" d="M3.01278158,3.71988837 L1.14644661,1.85355339 C0.951184464,1.65829124 0.951184464,1.34170876 1.14644661,1.14644661 C1.34170876,0.951184464 1.65829124,0.951184464 1.85355339,1.14644661 L3.87049421,3.16338743 C5.07597561,2.46777959 6.48907233,2 8,2 C12.418278,2 16,6 16,8 C16,9.14626782 14.8234671,10.9495006 12.9872184,12.2801116 L14.8535534,14.1464466 C15.0488155,14.3417088 15.0488155,14.6582912 14.8535534,14.8535534 C14.6582912,15.0488155 14.3417088,15.0488155 14.1464466,14.8535534 L12.1295058,12.8366126 C10.9240244,13.5322204 9.51092767,14 8,14 C3.581722,14 4.4408921e-16,10 4.4408921e-16,8 C5.37674091e-16,6.85373218 1.17653291,5.05049941 3.01278158,3.71988837 Z M3.73555603,4.44266282 C2.1400281,5.51007555 1,6.95412869 1,8 C1,9.86614866 4.6295395,13 8,13 C9.14695454,13 10.3239108,12.6370955 11.3776309,12.0847376 L9.73826718,10.445374 C9.24785774,10.7946045 8.64791522,11 8,11 C6.34314575,11 5,9.65685425 5,8 C5,7.35208478 5.20539548,6.75214226 5.55462604,6.26173282 L3.73555603,4.44266281 Z M4.62236914,3.91526236 L6.26173282,5.55462604 C6.75214226,5.20539548 7.35208478,5 8,5 C9.65685425,5 11,6.34314575 11,8 C11,8.64791522 10.7946045,9.24785774 10.445374,9.73826718 L12.264444,11.5573372 C13.8599719,10.4899245 15,9.04587131 15,8 C15,6.13385134 11.3704605,3 8,3 C6.85304546,3 5.6760892,3.36290447 4.62236914,3.91526236 Z M6.27690955,6.98401633 C6.1009647,7.28177295 6,7.62909569 6,8 C6,9.1045695 6.8954305,10 8,10 C8.37090431,10 8.71822705,9.8990353 9.01598367,9.72309045 L6.27690955,6.98401633 Z M6.98401633,6.27690955 L9.72309045,9.01598367 C9.8990353,8.71822705 10,8.37090431 10,8 C10,6.8954305 9.1045695,6 8,6 C7.62909569,6 7.28177295,6.1009647 6.98401633,6.27690955 Z"/>
</svg>
