<svg xmlns="http://www.w3.org/2000/svg" width="16" height="16" viewBox="0 0 16 16">
  <path fill="#333" d="M8,13 C11.3704605,13 15,9.86614866 15,8 C15,6.13385134 11.3704605,3 8,3 C4.6295395,3 1,6.13385134 1,8 C1,9.86614866 4.6295395,13 8,13 Z M8,14 C3.581722,14 0,10 0,8 C1.6328624e-16,6 3.581722,2 8,2 C12.418278,2 16,6 16,8 C16,10 12.418278,14 8,14 Z M8,10 C9.1045695,10 10,9.1045695 10,8 C10,6.8954305 9.1045695,6 8,6 C6.8954305,6 6,6.8954305 6,8 C6,9.1045695 6.8954305,10 8,10 Z M8,11 C6.34314575,11 5,9.65685425 5,8 C5,6.34314575 6.34314575,5 8,5 C9.65685425,5 11,6.34314575 11,8 C11,9.65685425 9.65685425,11 8,11 Z"/>
</svg>
