<?xml version="1.0" encoding="UTF-8"?>
<svg width="16px" height="16px" viewBox="0 0 16 16" version="1.1" xmlns="http://www.w3.org/2000/svg" xmlns:xlink="http://www.w3.org/1999/xlink">
    <!-- Generator: Sketch 52.4 (67378) - http://www.bohemiancoding.com/sketch -->
    <title>eye</title>
    <desc>Created with Sketch.</desc>
    <g id="eye" stroke="none" stroke-width="1" fill="none" fill-rule="evenodd">
        <path d="M8,2 C13.0000002,2 16,6 16,8 C16,10 13.0000002,14 8,14 C2.99999979,14 0,10 0,8 C0,6 2.99999979,2 8,2 Z M8,3 C4.23214235,3 1,5.93831129 1,8 C1,10.0616887 4.23214235,13 8,13 C11.7678576,13 15,10.0616887 15,8 C15,5.93831129 11.7678576,3 8,3 Z M8,11 C6.34314575,11 5,9.65685425 5,8 C5,6.34314575 6.34314575,5 8,5 C9.65685425,5 11,6.34314575 11,8 C11,9.65685425 9.65685425,11 8,11 Z M8,10 C9.1045695,10 10,9.1045695 10,8 C10,6.8954305 9.1045695,6 8,6 C6.8954305,6 6,6.8954305 6,8 C6,9.1045695 6.8954305,10 8,10 Z" id="Combined-Shape" fill="#000000" fill-rule="nonzero"></path>
    </g>
</svg>