<svg xmlns="http://www.w3.org/2000/svg" width="16" height="16" viewBox="0 0 16 16">
  <path fill="#333" d="M8.5,8 C10.4329966,8 12,6.43299662 12,4.5 C12,2.56700338 10.4329966,1 8.5,1 C6.56700338,1 5,2.56700338 5,4.5 C5,6.43299662 6.56700338,8 8.5,8 Z M8,8.97253561 C5.75002477,8.72381347 4,6.81627683 4,4.5 C4,2.01471863 6.01471863,0 8.5,0 C10.9852814,0 13,2.01471863 13,4.5 C13,6.81627683 11.2499752,8.72381347 9,8.97253561 L9,12 L11.5,12 C11.7761424,12 12,12.2238576 12,12.5 C12,12.7761424 11.7761424,13 11.5,13 L9,13 L9,15.5 C9,15.7761424 8.77614237,16 8.5,16 C8.22385763,16 8,15.7761424 8,15.5 L8,13 L5.5,13 C5.22385763,13 5,12.7761424 5,12.5 C5,12.2238576 5.22385763,12 5.5,12 L8,12 L8,8.97253561 Z"/>
</svg>
