<?xml version="1.0" encoding="UTF-8"?>
<svg width="16px" height="16px" viewBox="0 0 16 16" version="1.1" xmlns="http://www.w3.org/2000/svg" xmlns:xlink="http://www.w3.org/1999/xlink">
    <!-- Generator: Sketch 52.4 (67378) - http://www.bohemiancoding.com/sketch -->
    <title>filter</title>
    <desc>Created with Sketch.</desc>
    <defs>
        <path d="M3.41421356,3 L6.41421356,6 L6.65970853,6.21550297 C6.87599948,6.40536976 7,6.67922047 7,6.96702453 L7,14.381966 L9,13.381966 L9,6.96702749 C9,6.67922172 9.12400199,6.40536954 9.34029516,6.21550269 L9.58579794,5.99999501 L12.585789,3 L3.41421356,3 Z M2.41421356,2 L13.5857877,2 L14.5857864,1 L1.41421356,1 L2.41421356,2 Z M10,14 L6,16 C6,10.0015259 6,7.00228882 6,7.00228882 C6,7.00228882 5.79261485,6.79261485 5.70710678,6.70710678 L0.707106781,1.70710678 C0.316582489,1.31658249 0.316582489,0.683417511 0.707106781,0.292893219 C0.89464316,0.10535684 1.14899707,-3.95369731e-16 1.41421356,-4.4408921e-16 L14.5857864,4.4408921e-16 C15.1380712,-6.38418645e-16 15.5857864,0.44771525 15.5857864,1 C15.5857864,1.26521649 15.4804296,1.5195704 15.2928932,1.70710678 L10.2928932,6.70710678 C10.2073851,6.79261485 10.0984192,6.89009094 10,7.00228882 L10,14 Z" id="path-1"></path>
    </defs>
    <g id="filter" stroke="none" stroke-width="1" fill="none" fill-rule="evenodd">
        <mask id="mask-2" fill="white">
            <use xlink:href="#path-1"></use>
        </mask>
        <use id="Combined-Shape" fill="#000000" fill-rule="nonzero" xlink:href="#path-1"></use>
    </g>
</svg>