<?xml version="1.0" encoding="UTF-8"?>
<svg width="18px" height="18px" viewBox="0 0 18 18" version="1.1" xmlns="http://www.w3.org/2000/svg" xmlns:xlink="http://www.w3.org/1999/xlink">
    <!-- Generator: Sketch 52.4 (67378) - http://www.bohemiancoding.com/sketch -->
    <title>Finance</title>
    <desc>Created with Sketch.</desc>
    <defs>
        <path d="M10.0028076,13 L11.5028076,13 C11.77895,13 12.0028076,13.2238576 12.0028076,13.5 C12.0028076,13.7761424 11.77895,14 11.5028076,14 L10.0028076,14 L10.0028076,15.009717 C10.0028076,15.5620009 9.55509304,16.0097155 9.00280912,16.0097155 C8.4505252,16.0097155 8.00281063,15.5620009 8.00281063,15.009717 L8.00281063,14 L6.50280762,14 C6.22666524,14 6.00280762,13.7761424 6.00280762,13.5 C6.00280762,13.2238576 6.22666524,13 6.50280762,13 L8.00281063,13 L8.00281063,12.0096963 C8.00281063,12.0064606 8.002826,12.0032285 8.00285666,12 L6.50280762,12 C6.22666524,12 6.00280762,11.7761424 6.00280762,11.5 C6.00280762,11.2238576 6.22666524,11 6.50280762,11 L6.92494115,11 L4.9548675,9.02992635 C4.75960535,8.83466421 4.75960535,8.51808172 4.9548675,8.32281957 L5.30839195,7.96929512 C5.5036541,7.77403297 5.82023659,7.77403297 6.01549873,7.96929512 L8.84392586,10.7977222 C8.90259348,10.8563899 8.94363408,10.9260095 8.96704766,11 L9.05016938,11 C9.07377711,10.9274391 9.11440769,10.859209 9.1720611,10.8015556 L12.0004882,7.97312846 C12.1957504,7.77786631 12.5123329,7.77786631 12.707595,7.97312846 L13.0611195,8.32665291 C13.2563816,8.52191505 13.2563816,8.83849754 13.0611195,9.03375969 L11.0948792,11 L11.5028076,11 C11.77895,11 12.0028076,11.2238576 12.0028076,11.5 C12.0028076,11.7761424 11.77895,12 11.5028076,12 L10.0027662,12 C10.0027922,12.0032285 10.0028076,12.0064606 10.0028076,12.0096963 L10.0028076,13 Z M0,5.99850233 C0,5.44704472 0.444946289,5 0.993397683,5 L17.0066023,5 C17.5552407,5 18,5.44748943 18,5.99850233 L18,17.0014977 C18,17.5529553 17.5550537,18 17.0066023,18 L0.993397683,18 C0.444759292,18 0,17.5525106 0,17.0014977 L0,5.99850233 Z M1.50463867,6.00317383 C1.2284963,6.00317383 1.00463867,6.22703145 1.00463867,6.50317383 L1.00463867,16.5070801 C1.00463867,16.7832225 1.2284963,17.0070801 1.50463867,17.0070801 L16.5303955,17.0070801 C16.8065379,17.0070801 17.0303955,16.7832225 17.0303955,16.5070801 L17.0303955,6.50317383 C17.0303955,6.22703145 16.8065379,6.00317383 16.5303955,6.00317383 L1.50463867,6.00317383 Z M1,3.5 C1,3.22385763 1.22618103,3 1.4963932,3 L16.5036068,3 C16.7777572,3 17,3.23193359 17,3.5 C17,3.77614237 16.773819,4 16.5036068,4 L1.4963932,4 C1.22224281,4 1,3.76806641 1,3.5 Z M2,1.5 C2,1.22385763 2.21990657,1 2.49826741,1 L15.5017326,1 C15.7769181,1 16,1.23193359 16,1.5 C16,1.77614237 15.7800934,2 15.5017326,2 L2.49826741,2 C2.22308192,2 2,1.76806641 2,1.5 Z" id="path-1"></path>
    </defs>
    <g id="Finance" stroke="none" stroke-width="1" fill="none" fill-rule="evenodd">
        <mask id="mask-2" fill="white">
            <use xlink:href="#path-1"></use>
        </mask>
        <use id="Combined-Shape" fill="#000000" xlink:href="#path-1"></use>
    </g>
</svg>