<svg xmlns="http://www.w3.org/2000/svg" width="16" height="16" viewBox="0 0 16 16">
  <path fill="#333" d="M6.69098301,10 L0.5,10 C0.0417579245,10 -0.175091018,9.43490071 0.165517634,9.12835293 L10.1655176,0.128352927 C10.5760101,-0.241090259 11.1941923,0.22964947 10.9472136,0.723606798 L8.30901699,6 L15.5,6 C15.9698922,6 16.1802954,6.58942514 15.8166189,6.88697865 L4.8166189,15.8869786 C4.39933564,16.2283922 3.81166878,15.7586284 4.0527864,15.2763932 L6.69098301,10 Z M7.5,9 C7.87169101,9 8.11343887,9.39115625 7.9472136,9.7236068 L5.99266993,13.6326941 L14.0992961,7 L7.5,7 C7.12830899,7 6.88656113,6.60884375 7.0527864,6.2763932 L8.8720771,2.63781181 L1.80297911,9 L7.5,9 Z"/>
</svg>
