<svg xmlns="http://www.w3.org/2000/svg" width="16" height="16" viewBox="0 0 16 16">
  <path fill="#333" d="M0,2.5 C0,1.11928813 1.11928813,0 2.5,0 L5.67157288,0 C6.3346141,0 6.97049888,0.263392101 7.43933983,0.732233047 L8.26776695,1.56066017 C8.54907152,1.84196474 8.93060239,2 9.32842712,2 L13.5,2 C14.8807119,2 16,3.11928813 16,4.5 L16,13.5 C16,14.8807119 14.8807119,16 13.5,16 L2.5,16 C1.11928813,16 0,14.8807119 0,13.5 L0,2.5 Z M1,2.5 L1,13.5 C1,14.3284271 1.67157288,15 2.5,15 L13.5,15 C14.3284271,15 15,14.3284271 15,13.5 L15,4.5 C15,3.67157288 14.3284271,3 13.5,3 L9.32842712,3 C8.6653859,3 8.02950112,2.7366079 7.56066017,2.26776695 L6.73223305,1.43933983 C6.45092848,1.15803526 6.06939761,1 5.67157288,1 L2.5,1 C1.67157288,1 1,1.67157288 1,2.5 Z"/>
</svg>
