<svg xmlns="http://www.w3.org/2000/svg" width="16" height="16" viewBox="0 0 16 16">
  <path fill="#333" d="M3.56197806,14.1451287 L3.55025253,14.1568542 L2.84314575,13.4497475 L2.85487128,13.4380219 C1.69993116,12.1187738 1,10.3911257 1,8.5 C1,4.35786438 4.35786438,1 8.5,1 C10.3911257,1 12.1187738,1.69993116 13.4380219,2.85487128 L13.4497475,2.84314575 L14.1568542,3.55025253 L14.1451287,3.56197806 C15.3000688,4.88122622 16,6.60887427 16,8.5 C16,12.6421356 12.6421356,16 8.5,16 C6.60887427,16 4.88122622,15.3000688 3.56197806,14.1451287 Z M4.27089413,13.4362127 C5.40766152,14.4110487 6.88505229,15 8.5,15 C12.0898509,15 15,12.0898509 15,8.5 C15,6.88505229 14.4110487,5.40766152 13.4362127,4.27089413 L4.27089413,13.4362127 Z M3.56378735,12.7291059 L12.7291059,3.56378735 C11.5923385,2.58895126 10.1149477,2 8.5,2 C4.91014913,2 2,4.91014913 2,8.5 C2,10.1149477 2.58895126,11.5923385 3.56378735,12.7291059 Z"/>
</svg>
