<svg xmlns="http://www.w3.org/2000/svg" width="16" height="16" viewBox="0 0 16 16">
  <path fill="#333" d="M1,9 C1,4.581722 4.13400675,1 8,1 C11.8659932,1 15,4.581722 15,9 L14,9 C14,5.10651168 11.2818023,2 8,2 C4.71819772,2 2,5.10651168 2,9 L1,9 Z M2,9 L1,9 C1,4.581722 4.13400675,1 8,1 C11.8659932,1 15,4.581722 15,9 L14,9 C14,5.10651168 11.2818023,2 8,2 C4.71819772,2 2,5.10651168 2,9 Z M1.5,9 L2.5,9 C3.32842712,9 4,9.67157288 4,10.5 L4,13.5 C4,14.3284271 3.32842712,15 2.5,15 L1.5,15 C0.671572875,15 1.01453063e-16,14.3284271 0,13.5 L0,10.5 C-1.01453063e-16,9.67157288 0.671572875,9 1.5,9 Z M1.5,10 C1.22385763,10 1,10.2238576 1,10.5 L1,13.5 C1,13.7761424 1.22385763,14 1.5,14 L2.5,14 C2.77614237,14 3,13.7761424 3,13.5 L3,10.5 C3,10.2238576 2.77614237,10 2.5,10 L1.5,10 Z M13.5,9 L14.5,9 C15.3284271,9 16,9.67157288 16,10.5 L16,13.5 C16,14.3284271 15.3284271,15 14.5,15 L13.5,15 C12.6715729,15 12,14.3284271 12,13.5 L12,10.5 C12,9.67157288 12.6715729,9 13.5,9 Z M13.5,10 C13.2238576,10 13,10.2238576 13,10.5 L13,13.5 C13,13.7761424 13.2238576,14 13.5,14 L14.5,14 C14.7761424,14 15,13.7761424 15,13.5 L15,10.5 C15,10.2238576 14.7761424,10 14.5,10 L13.5,10 Z"/>
</svg>
