<svg xmlns="http://www.w3.org/2000/svg" width="16" height="16" viewBox="0 0 16 16">
  <path fill="#333" d="M8.5,16 C4.35786438,16 1,12.6421356 1,8.5 C1,4.35786438 4.35786438,1 8.5,1 C12.6421356,1 16,4.35786438 16,8.5 C16,12.6421356 12.6421356,16 8.5,16 Z M8,11 L8,12 L9,12 L9,11 L8,11 Z M11,7 C11,5.75432194 9.86851709,5 8.5,5 C7.13148291,5 6,5.75432194 6,7 L7,7 C7,6.41234473 7.61851709,6 8.5,6 C9.38148291,6 10,6.41234473 10,7 C10,7.58765527 9.38148291,8 8.5,8 L8,8 L8,10 L9,10 C9,9.53757277 9,9.44172659 9,8.96520259 C10.1335372,8.80388312 11,8.090076 11,7 Z"/>
</svg>
