<svg xmlns="http://www.w3.org/2000/svg" width="16" height="16" viewBox="0 0 16 16">
  <path fill="#333" d="M8.5,16 C4.35786438,16 1,12.6421356 1,8.5 C1,4.35786438 4.35786438,1 8.5,1 C12.6421356,1 16,4.35786438 16,8.5 C16,12.6421356 12.6421356,16 8.5,16 Z M8.5,15 C12.0898509,15 15,12.0898509 15,8.5 C15,4.91014913 12.0898509,2 8.5,2 C4.91014913,2 2,4.91014913 2,8.5 C2,12.0898509 4.91014913,15 8.5,15 Z M8,11 L9,11 L9,12 L8,12 L8,11 Z M11,7 C11,8.090076 10.1335372,8.80388312 9,8.96520259 C9,9.44172659 9,9.53757277 9,10 L8,10 L8,8 L8.5,8 C9.38148291,8 10,7.58765527 10,7 C10,6.41234473 9.38148291,6 8.5,6 C7.61851709,6 7,6.41234473 7,7 L6,7 C6,5.75432194 7.13148291,5 8.5,5 C9.86851709,5 11,5.75432194 11,7 Z"/>
</svg>
