<?xml version="1.0" encoding="UTF-8"?>
<svg width="18px" height="18px" viewBox="0 0 18 18" version="1.1" xmlns="http://www.w3.org/2000/svg" xmlns:xlink="http://www.w3.org/1999/xlink">
    <!-- Generator: Sketch 52.4 (67378) - http://www.bohemiancoding.com/sketch -->
    <title>home</title>
    <desc>Created with Sketch.</desc>
    <g id="home" stroke="none" stroke-width="1" fill="none" fill-rule="evenodd">
        <path d="M14.9914551,17.00177 L12.0142822,17.00177 L12.0058594,12.6877441 C12.0058594,12.3073832 11.6994091,11.9997527 11.3205074,11.9997527 L6.70188676,11.9997527 C6.32494316,11.9997527 6.0184929,12.3064003 6.01653475,12.6857785 L6.00341797,17.00177 L3.01464844,17.00177 L3.01464844,7.80996704 C3.01464844,7.77433975 4.89556966,5.9757857 8.65741211,2.41430491 L8.65743119,2.41432506 C8.84977029,2.23223025 9.15074491,2.23173015 9.34368808,2.41318477 C13.1145627,5.95952753 15,7.75146643 15,7.78900146 L14.9914551,17.00177 Z M9.52154046,1.21131165 C9.39230265,1.07567906 9.21411113,1 9.02710793,1 C8.84010474,1 8.66191322,1.07567906 8.53267541,1.21131165 L0.162612915,9.07583618 C-0.084564209,9.31356812 -0.014465332,9.63442993 0.127990723,9.79354858 C0.270446777,9.95266724 0.609115601,10.0286102 0.862792969,9.79354858 L2.00126648,8.7258606 L2.00430306,17.2943174 C2.00430306,17.6746783 2.38545928,18 2.76338196,18 L6.30079301,18 C6.67773661,18 6.98418687,17.6933524 6.98614502,17.3139743 L7.00768465,12.9943237 L10.99823,12.9943237 L10.99823,17.3120086 C10.99823,17.6923695 11.2730147,18 11.6519165,18 L15.3088989,18 C15.6878007,18 15.9942509,17.6923695 15.9942509,17.3120086 L16,8.70323181 L17.1927795,9.84307861 C17.4395599,10.0349579 17.7756653,9.92286682 17.8960266,9.75869751 C18.0163879,9.5945282 18.0762634,9.29107666 17.8296356,9.0541687 L9.52154046,1.21131165 Z" id="Icon" fill="#000000"></path>
    </g>
</svg>