<svg xmlns="http://www.w3.org/2000/svg" width="16" height="16" viewBox="0 0 16 16">
  <path fill="#333" d="M10,15 L13,15 C13.5522847,15 14,14.5522847 14,14 L14,6.87213902 C14,6.59407022 13.8842181,6.32855776 13.6804511,6.13934553 L8.6804511,1.49648839 C8.29676996,1.14021305 7.70323004,1.14021305 7.3195489,1.49648839 L2.3195489,6.13934553 C2.11578189,6.32855776 2,6.59407022 2,6.87213902 L2,14 C2,14.5522847 2.44771525,15 3,15 L6,15 L6,11 C6,10.4477153 6.44771525,10 7,10 L9,10 C9.55228475,10 10,10.4477153 10,11 L10,15 Z M1.6390978,5.40655204 L6.6390978,0.763694899 C7.40646008,0.0511442098 8.59353992,0.0511442098 9.3609022,0.763694899 L14.3609022,5.40655204 C14.7684362,5.78497649 15,6.31600142 15,6.87213902 L15,14 C15,15.1045695 14.1045695,16 13,16 L3,16 C1.8954305,16 1,15.1045695 1,14 L1,6.87213902 C1,6.31600142 1.23156378,5.78497649 1.6390978,5.40655204 Z M7,11 L7,15 L9,15 L9,11 L7,11 Z"/>
</svg>
