<svg xmlns="http://www.w3.org/2000/svg" width="16" height="16" viewBox="0 0 16 16">
  <path fill="#333" d="M13.5510439,1.08748157 C13.5419294,1.03972804 13.4992451,1 13.5663411,1 L2.43365891,1 C2.50075488,1 2.45807059,1.03972804 2.45068673,1.0781752 L1,9 C0.935606981,9 14.6509155,9 15,9 L13.5510439,1.08748157 Z M2.43365891,0 L13.5663411,0 C14.0055133,-9.13077564e-17 14.4384409,0.402943725 14.5333121,0.9 L16,9 L0,9 L1.46668795,0.9 C1.56155908,0.402943725 1.99448673,9.13077564e-17 2.43365891,0 Z M7,9 L7,10 C7,10.5522847 7.44771525,11 8,11 C8.55228475,11 9,10.5522847 9,10 L9,9 L16,9 L16,15 C16,15.5522847 15.5522847,16 15,16 L1,16 C0.44771525,16 6.76353751e-17,15.5522847 0,15 L0,9 L7,9 Z M7,9 L9,9 L7,9 Z M7,9 L9,9 L7,9 Z M1,10 L1,15 L15,15 L15,10 L10,10 C10,11.1045695 9.1045695,12 8,12 C6.8954305,12 6,11.1045695 6,10 L1,10 Z"/>
</svg>
