<svg xmlns="http://www.w3.org/2000/svg" width="16" height="16" viewBox="0 0 16 16">
  <path fill="#333" d="M8,11 L8,8 L7,8 L7,7 L9,7 L9,7.5 L9,11 L10,11 L10,12 L7,12 L7,11 L8,11 Z M8.5,16 C4.35786438,16 1,12.6421356 1,8.5 C1,4.35786438 4.35786438,1 8.5,1 C12.6421356,1 16,4.35786438 16,8.5 C16,12.6421356 12.6421356,16 8.5,16 Z M8.5,15 C12.0898509,15 15,12.0898509 15,8.5 C15,4.91014913 12.0898509,2 8.5,2 C4.91014913,2 2,4.91014913 2,8.5 C2,12.0898509 4.91014913,15 8.5,15 Z M8,5 L9,5 L9,6 L8,6 L8,5 Z"/>
</svg>
