<svg xmlns="http://www.w3.org/2000/svg" width="16" height="16" viewBox="0 0 16 16">
  <path fill="#333" d="M13.1507426,5 L8,1.68880836 L2.84925744,5 L8,8.31119164 L13.1507426,5 Z M8,0.5 L15,5 L8,9.5 L1,5 L8,0.5 Z M8,11.4129101 L14.2379513,7.57417084 C14.4731302,7.42944533 14.7811037,7.50277234 14.9258292,7.73795129 C15.0705547,7.97313024 14.9972277,8.28110365 14.7620487,8.42582916 L8,12.5870899 L1.23795129,8.42582916 C1.00277234,8.28110365 0.929445334,7.97313024 1.07417084,7.73795129 C1.21889635,7.50277234 1.52686976,7.42944533 1.76204871,7.57417084 L8,11.4129101 Z M8,14.4129101 L14.2379513,10.5741708 C14.4731302,10.4294453 14.7811037,10.5027723 14.9258292,10.7379513 C15.0705547,10.9731302 14.9972277,11.2811037 14.7620487,11.4258292 L8,15.5870899 L1.23795129,11.4258292 C1.00277234,11.2811037 0.929445334,10.9731302 1.07417084,10.7379513 C1.21889635,10.5027723 1.52686976,10.4294453 1.76204871,10.5741708 L8,14.4129101 Z"/>
</svg>
