<?xml version="1.0" encoding="UTF-8"?>
<svg width="18px" height="18px" viewBox="0 0 18 18" version="1.1" xmlns="http://www.w3.org/2000/svg" xmlns:xlink="http://www.w3.org/1999/xlink">
    <!-- Generator: Sketch 52.4 (67378) - http://www.bohemiancoding.com/sketch -->
    <title>learning tasks</title>
    <desc>Created with Sketch.</desc>
    <defs>
        <path d="M15,2.51865733e-05 L15,18 L2.33160664,18 C1.04389585,18 4.05399117e-14,17.1045708 4.03822126e-14,16.0000028 L0,2.00002239 C-3.95044704e-14,0.895454434 1.04389585,2.51865733e-05 2.33160664,2.51865733e-05 L15,2.51865733e-05 Z M0.996134372,1.9668831 L0.996134372,16.0331169 C0.996134372,16.5671117 1.51436021,17 2.15362417,17 L13.9961344,17 L13.9961344,1 L2.15362417,1 C1.51436021,1 0.996134372,1.43288831 0.996134372,1.9668831 Z M17,12 C17.5522847,12 18,12.4477153 18,13 L18,16.9999916 C18,17.5522764 17.5522847,17.9999916 17,17.9999916 C16.4477153,17.9999916 16,17.5522764 16,16.9999916 L16,13 C16,12.4477153 16.4477153,12 17,12 Z M17,7 C17.5522847,7 18,7.44771525 18,8 L18,10 C18,10.5522847 17.5522847,11 17,11 C16.4477153,11 16,10.5522847 16,10 L16,8 C16,7.44771525 16.4477153,7 17,7 Z M17,0 C17.5522847,-1.01453063e-16 18,0.44771525 18,1 L18,5 C18,5.55228475 17.5522847,6 17,6 C16.4477153,6 16,5.55228475 16,5 L16,1 C16,0.44771525 16.4477153,1.01453063e-16 17,0 Z M3.5,7 L10.5,7 C10.7761424,7 11,7.22385763 11,7.5 C11,7.77614237 10.7761424,8 10.5,8 L3.5,8 C3.22385763,8 3,7.77614237 3,7.5 C3,7.22385763 3.22385763,7 3.5,7 Z M3.5,10 L10.5,10 C10.7761424,10 11,10.2238576 11,10.5 C11,10.7761424 10.7761424,11 10.5,11 L3.5,11 C3.22385763,11 3,10.7761424 3,10.5 C3,10.2238576 3.22385763,10 3.5,10 Z M3.5,13 L10.5,13 C10.7761424,13 11,13.2238576 11,13.5 C11,13.7761424 10.7761424,14 10.5,14 L3.5,14 C3.22385763,14 3,13.7761424 3,13.5 C3,13.2238576 3.22385763,13 3.5,13 Z M3.5,4 L7.5,4 C7.77614237,4 8,4.22385763 8,4.5 C8,4.77614237 7.77614237,5 7.5,5 L3.5,5 C3.22385763,5 3,4.77614237 3,4.5 C3,4.22385763 3.22385763,4 3.5,4 Z" id="path-1"></path>
    </defs>
    <g id="learning-tasks" stroke="none" stroke-width="1" fill="none" fill-rule="evenodd">
        <mask id="mask-2" fill="white">
            <use xlink:href="#path-1"></use>
        </mask>
        <use id="Combined-Shape" fill="#000000" fill-rule="nonzero" xlink:href="#path-1"></use>
    </g>
</svg>