<svg xmlns="http://www.w3.org/2000/svg" width="16" height="16" viewBox="0 0 16 16">
  <path fill="#333" d="M11.1982666,9.50523207 L10.4879647,8.80133493 C12.1401054,7.13416136 13.2996715,5.96707845 13.9670198,5.29973011 C14.9845627,4.2821872 15.08938,3.12919708 13.9670198,2.00683689 C12.8446596,0.884476697 11.6916695,0.98929398 10.6741266,2.00683689 C9.99624536,2.68471812 8.82197493,3.74073699 7.14637846,5.18010284 L6.49476793,4.42154913 C8.15250479,2.997525 9.3115677,1.95518222 9.9670198,1.29973011 C11.3494769,-0.0827269793 13.1298201,-0.244576363 14.6741266,1.29973011 C16.2184331,2.84403658 16.0565837,4.6243798 14.6741266,6.00683689 C14.0081416,6.67282188 12.8494027,7.83907231 11.1982666,9.50523207 Z M4.59815941,6.64967811 L5.31167065,7.35032189 C3.67405709,9.01801053 2.5215881,10.1855187 1.85355339,10.8535534 C0.83601048,11.8710963 0.731193197,13.0240864 1.85355339,14.1464466 C2.97591358,15.2688068 4.1289037,15.1639895 5.14644661,14.1464466 C5.81379495,13.4790983 6.98087786,12.3195322 8.64805143,10.6673915 L9.35194857,11.3776934 C7.68578881,13.0288295 6.51953838,14.1875684 5.85355339,14.8535534 C4.4710963,16.2360105 2.69075308,16.3978599 1.14644661,14.8535534 C-0.397859863,13.3092469 -0.23601048,11.5289037 1.14644661,10.1464466 C1.81174524,9.48114798 2.96255293,8.3153228 4.59815941,6.64967811 Z M6.85355339,9.85355339 L6.14644661,9.14644661 L9.14644661,6.14644661 L9.85355339,6.85355339 L6.85355339,9.85355339 Z"/>
</svg>
