<?xml version="1.0" encoding="UTF-8"?>
<svg width="16px" height="16px" viewBox="0 0 16 16" version="1.1" xmlns="http://www.w3.org/2000/svg" xmlns:xlink="http://www.w3.org/1999/xlink">
    <!-- Generator: Sketch 52.4 (67378) - http://www.bohemiancoding.com/sketch -->
    <title>list</title>
    <desc>Created with Sketch.</desc>
    <defs>
        <path d="M1,-4.93038066e-32 L6,-4.93038066e-32 C6.55228475,2.78052031e-16 7,0.44771525 7,1 L7,6 C7,6.55228475 6.55228475,7 6,7 L1,7 C0.44771525,7 4.47140469e-16,6.55228475 -1.11022302e-16,6 L-4.93038066e-32,1 C-1.78657678e-16,0.44771525 0.44771525,-9.5692398e-18 1,-4.93038066e-32 Z M1,1.5 L1,5.5 C1,5.77614237 1.22385763,6 1.5,6 L5.5,6 C5.77614237,6 6,5.77614237 6,5.5 L6,1.5 C6,1.22385763 5.77614237,1 5.5,1 L1.5,1 C1.22385763,1 1,1.22385763 1,1.5 Z M1,8 L6,8 C6.55228475,8 7,8.44771525 7,9 L7,14 C7,14.5522847 6.55228475,15 6,15 L1,15 C0.44771525,15 4.47140469e-16,14.5522847 -1.11022302e-16,14 L-4.93038066e-32,9 C-1.78657678e-16,8.44771525 0.44771525,8 1,8 Z M1,9.5 L1,13.5 C1,13.7761424 1.22385763,14 1.5,14 L5.5,14 C5.77614237,14 6,13.7761424 6,13.5 L6,9.5 C6,9.22385763 5.77614237,9 5.5,9 L1.5,9 C1.22385763,9 1,9.22385763 1,9.5 Z M8.5,1 L15.5,1 C15.7761424,1 16,1.22385763 16,1.5 C16,1.77614237 15.7761424,2 15.5,2 L8.5,2 C8.22385763,2 8,1.77614237 8,1.5 C8,1.22385763 8.22385763,1 8.5,1 Z M8.5,9 L15.5,9 C15.7761424,9 16,9.22385763 16,9.5 C16,9.77614237 15.7761424,10 15.5,10 L8.5,10 C8.22385763,10 8,9.77614237 8,9.5 C8,9.22385763 8.22385763,9 8.5,9 Z M8.5,3 L15.5,3 C15.7761424,3 16,3.22385763 16,3.5 C16,3.77614237 15.7761424,4 15.5,4 L8.5,4 C8.22385763,4 8,3.77614237 8,3.5 C8,3.22385763 8.22385763,3 8.5,3 Z M8.5,11 L15.5,11 C15.7761424,11 16,11.2238576 16,11.5 C16,11.7761424 15.7761424,12 15.5,12 L8.5,12 C8.22385763,12 8,11.7761424 8,11.5 C8,11.2238576 8.22385763,11 8.5,11 Z M8.5,5 L15.5,5 C15.7761424,5 16,5.22385763 16,5.5 C16,5.77614237 15.7761424,6 15.5,6 L8.5,6 C8.22385763,6 8,5.77614237 8,5.5 C8,5.22385763 8.22385763,5 8.5,5 Z M8.5,13 L15.5,13 C15.7761424,13 16,13.2238576 16,13.5 C16,13.7761424 15.7761424,14 15.5,14 L8.5,14 C8.22385763,14 8,13.7761424 8,13.5 C8,13.2238576 8.22385763,13 8.5,13 Z" id="path-1"></path>
    </defs>
    <g id="list" stroke="none" stroke-width="1" fill="none" fill-rule="evenodd">
        <mask id="mask-2" fill="white">
            <use xlink:href="#path-1"></use>
        </mask>
        <use id="Combined-Shape" fill="#000000" fill-rule="nonzero" xlink:href="#path-1"></use>
    </g>
</svg>