<svg xmlns="http://www.w3.org/2000/svg" width="16" height="16" viewBox="0 0 16 16">
  <path fill="#333" d="M7.99982345,15.9995292 L3.19996469,9.59971752 C2.42105484,8.56117105 2,7.29800653 2,5.99982345 C2,2.68621246 4.68621246,0 7.99982345,0 C9.29800653,0 10.5611711,0.421054841 11.5997175,1.19996469 C14.2506063,3.18813129 14.7878488,6.94882873 12.7996822,9.59971752 L7.99982345,15.9995292 Z M7.99982345,14.3328625 L11.9996822,8.99971752 C13.656478,6.79065653 13.2087785,3.65676044 10.9997175,1.99996469 C10.1342672,1.35087697 9.08163632,1 7.99982345,1 C5.23849721,1 3,3.23849721 3,5.99982345 C3,7.08163632 3.35087697,8.13426723 3.99996469,8.99971752 L7.99982345,14.3328625 Z M8,9 C6.34314575,9 5,7.65685425 5,6 C5,4.34314575 6.34314575,3 8,3 C9.65685425,3 11,4.34314575 11,6 C11,7.65685425 9.65685425,9 8,9 Z M8,8 C9.1045695,8 10,7.1045695 10,6 C10,4.8954305 9.1045695,4 8,4 C6.8954305,4 6,4.8954305 6,6 C6,7.1045695 6.8954305,8 8,8 Z"/>
</svg>
