<svg xmlns="http://www.w3.org/2000/svg" width="16" height="16" viewBox="0 0 16 16">
  <path fill="#333" d="M2,7 C1.44771525,7 1,7.44771525 1,8 L1,14 C1,14.5522847 1.44771525,15 2,15 L14,15 C14.5522847,15 15,14.5522847 15,14 L15,8 C15,7.44771525 14.5522847,7 14,7 L2,7 Z M7.26855469,10.9730813 L7.26855469,12.4002686 C7.26855469,12.8144821 7.60434113,13.1502686 8.01855469,13.1502686 C8.43276825,13.1502686 8.76855469,12.8144821 8.76855469,12.4002686 L8.76855469,12.4002686 L8.76855469,10.9635281 C9.19041561,10.8461979 9.5,10.4592526 9.5,10 L9.5,9 C9.5,8.44771525 9.05228475,8 8.5,8 L7.5,8 C6.94771525,8 6.5,8.44771525 6.5,9 L6.5,10 C6.5,10.4726171 6.82786463,10.8686572 7.26855469,10.9730813 Z M3,6 L3,4 C3,1.790861 4.790861,4.05812251e-16 7,0 L9,0 C11.209139,-4.05812251e-16 13,1.790861 13,4 L13,6 L14,6 C15.1045695,6 16,6.8954305 16,8 L16,14 C16,15.1045695 15.1045695,16 14,16 L2,16 C0.8954305,16 1.3527075e-16,15.1045695 0,14 L0,8 C-1.3527075e-16,6.8954305 0.8954305,6 2,6 L3,6 Z M12,6 L12,4 C12,2.34314575 10.6568542,1 9,1 L7,1 C5.34314575,1 4,2.34314575 4,4 L4,6 L12,6 Z"/>
</svg>
