<svg xmlns="http://www.w3.org/2000/svg" width="16" height="16" viewBox="0 0 16 16">
  <path fill="#333" d="M5,15 C7.209139,15 9,13.209139 9,11 C9,8.790861 7.209139,7 5,7 C2.790861,7 1,8.790861 1,11 C1,13.209139 2.790861,15 5,15 Z M15,1.70710678 L8.87147266,7.83563412 C9.57681735,8.69756941 10,9.7993649 10,11 C10,13.7614237 7.76142375,16 5,16 C2.23857625,16 0,13.7614237 0,11 C0,8.23857625 2.23857625,6 5,6 C6.2006351,6 7.30243059,6.42318265 8.16436588,7.12852734 L14.2928932,1 L10.5,1 C10.2238576,1 10,0.776142375 10,0.5 L10,0.5 L10,0.5 C10,0.223857625 10.2238576,5.07265313e-17 10.5,0 L15.5,0 C15.6380712,-2.53632657e-17 15.7630712,0.0559644063 15.8535534,0.146446609 C15.9440356,0.236928813 16,0.361928813 16,0.5 L16,5.5 C16,5.77614237 15.7761424,6 15.5,6 C15.2238576,6 15,5.77614237 15,5.5 L15,1.70710678 Z"/>
</svg>
