<?xml version="1.0" encoding="UTF-8"?>
<svg width="18px" height="18px" viewBox="0 0 18 18" version="1.1" xmlns="http://www.w3.org/2000/svg" xmlns:xlink="http://www.w3.org/1999/xlink">
    <!-- Generator: Sketch 52.4 (67378) - http://www.bohemiancoding.com/sketch -->
    <title>management</title>
    <desc>Created with Sketch.</desc>
    <defs>
        <path d="M9.0343141,18 L1,18 C0.44771525,18 6.76353751e-17,17.5522847 0,17 L0,1 C-6.76353751e-17,0.44771525 0.44771525,1.01453063e-16 1,0 L10,0 C10.5522847,-1.01453063e-16 11,0.44771525 11,1 L11,3 L16,3 C16.5522847,3 17,3.44771525 17,4 L17,7.80957219 C16.6938318,7.51575838 16.358956,7.25163117 16,7.02181791 L16,4.5 C16,4.22385763 15.7761424,4 15.5,4 L11,4 L11,6.17393184 C10.6552481,6.25536816 10.3211032,6.36425694 10,6.49816335 L10,1.5 C10,1.22385763 9.77614237,1 9.5,1 L1.5,1 C1.22385763,1 1,1.22385763 1,1.5 L1,16.5 C1,16.7761424 1.22385763,17 1.5,17 L7.80957219,17 C8.17489014,17.380679 8.58610233,17.7169772 9.0343141,18 Z M2.5,3 L8.5,3 C8.77614237,3 9,3.22385763 9,3.5 C9,3.77614237 8.77614237,4 8.5,4 L2.5,4 C2.22385763,4 2,3.77614237 2,3.5 C2,3.22385763 2.22385763,3 2.5,3 Z M2.5,6 L6.5,6 C6.77614237,6 7,6.22385763 7,6.5 C7,6.77614237 6.77614237,7 6.5,7 L2.5,7 C2.22385763,7 2,6.77614237 2,6.5 C2,6.22385763 2.22385763,6 2.5,6 Z M2.5,9 L5.5,9 C5.77614237,9 6,9.22385763 6,9.5 C6,9.77614237 5.77614237,10 5.5,10 L2.5,10 C2.22385763,10 2,9.77614237 2,9.5 C2,9.22385763 2.22385763,9 2.5,9 Z M2.5,12 L4.5,12 C4.77614237,12 5,12.2238576 5,12.5 C5,12.7761424 4.77614237,13 4.5,13 L2.5,13 C2.22385763,13 2,12.7761424 2,12.5 C2,12.2238576 2.22385763,12 2.5,12 Z M17.9981528,12.2443188 L17.997089,12.689413 C18.0275953,13.0892472 17.8172925,13.4688185 17.4150179,13.676519 L17.0881776,13.7937029 C16.898087,13.858145 16.7447892,14.000205 16.6643924,14.189337 C16.584537,14.369405 16.584537,14.5745787 16.6596475,14.744377 L16.8077281,15.0523208 C16.9920565,15.4389797 16.9109588,15.8995928 16.6071748,16.1990292 L16.2685844,16.536408 C15.9671875,16.8400024 15.5065534,16.9205281 15.1212395,16.7381407 L14.8138116,16.5942644 C14.6348214,16.5150143 14.4304285,16.5150143 14.2438355,16.5975286 C14.0571195,16.6752148 13.9126507,16.8283585 13.8442413,17.0247988 L13.7294198,17.3362428 C13.5848715,17.7346357 13.2058202,17.9998317 12.7813336,18.0000117 L12.3064689,18.0000116 C11.8821379,17.9998317 11.5030866,17.7346357 11.3583677,17.3357717 L11.2407477,17.0100427 C11.176238,16.8211037 11.0337282,16.6684123 10.8425226,16.5876894 C10.6597633,16.5065018 10.450903,16.5065018 10.2772815,16.5834792 L9.96824634,16.7310297 C9.58140476,16.9141359 9.12077062,16.8336103 8.82077764,16.5314223 L8.48219479,16.1940359 C8.17699932,15.8932006 8.09590163,15.4325876 8.28076595,15.0448093 L8.42405612,14.7471534 C8.50515581,14.5658881 8.50515581,14.358919 8.42127174,14.1712685 C8.34316893,13.9874206 8.18987114,13.8453607 7.99368958,13.7787938 L7.67613639,13.6648645 C7.27277089,13.5243599 7.00170394,13.1454094 6.99999547,12.7173398 L7.00024604,12.2307579 C7.01455277,11.8437448 7.25014567,11.4994373 7.62803533,11.336277 L7.95487561,11.2190931 C8.14496623,11.154651 8.29826402,11.012591 8.37915121,10.8223579 C8.4602509,10.6410926 8.4602509,10.4341236 8.38340574,10.2620268 L8.23532511,9.95408303 C8.05099673,9.56742408 8.13209441,9.10681107 8.43587844,8.80737459 L8.77446884,8.46999581 C9.07586571,8.16640138 9.53649985,8.08587575 9.92445726,8.26951242 L10.2232388,8.41232228 C10.4059981,8.49350989 10.6148584,8.49350989 10.8039791,8.40956795 C10.9888233,8.33159936 11.1313331,8.17890791 11.197993,7.9838487 L11.3136334,7.66376883 C11.4581817,7.26537594 11.837233,7.00017994 12.2617196,7 L12.7365843,7.00000003 C13.1609153,7.00017993 13.5399666,7.26537594 13.6954915,7.69964166 L13.7574006,7.95161586 C13.8219102,8.14055485 13.9644201,8.2932463 14.1556257,8.37396923 C14.338385,8.45515684 14.5472453,8.45515684 14.7208668,8.3781794 L15.029902,8.23062891 C15.4167435,8.0475227 15.8773777,8.12804833 16.1773707,8.43023626 L16.5159535,8.76762271 C16.821149,9.06845801 16.9022467,9.52907102 16.7173823,9.91684934 L16.5740922,10.2145052 C16.4929925,10.3957705 16.4929925,10.6027396 16.5768766,10.7903901 C16.6549794,10.974238 16.8082772,11.1162979 17.0044587,11.1828648 L17.3237901,11.2974153 C17.7261739,11.4384131 17.9964469,11.8168786 17.9981528,12.2443188 Z M16.8258185,12.018914 L16.5256659,11.9112022 C16.1591984,11.786967 15.8631988,11.5126662 15.7147682,11.1631126 C15.5575827,10.8117885 15.5575827,10.4103785 15.7187858,10.0503965 L15.8576073,9.76171678 C15.9044796,9.66339448 15.8838783,9.5463848 15.8046825,9.46831327 L15.4822975,9.14706751 C15.4047895,9.06899437 15.28583,9.04819849 15.1870799,9.09493831 L14.8876804,9.23774617 C14.5359024,9.39401734 14.1341482,9.39401734 13.7883774,9.24034711 C13.4318466,9.0899599 13.156513,8.79495504 13.0235074,8.40169079 L12.9672377,8.16997382 C12.930303,8.06817726 12.8329218,8.00004638 12.7236712,8.00000003 L12.2755467,8 C12.1661491,8.00004638 12.0687679,8.06817727 12.0319943,8.16952893 L11.9249857,8.46555863 C11.8001538,8.83117213 11.5248202,9.12617699 11.1742965,9.27396326 C10.8225186,9.43023442 10.4207644,9.43023442 10.0603576,9.26998756 L9.77064056,9.13165632 C9.67083683,9.08441557 9.55187729,9.10521145 9.47304357,9.18461276 L9.15065145,9.50585128 C9.07278846,9.58260189 9.05218719,9.69961157 9.09855338,9.79687685 L9.24189858,10.0952715 C9.39908405,10.4465956 9.39908405,10.8480056 9.2445279,11.1933001 C9.09346801,11.5488833 8.79746836,11.8231841 8.4367526,11.9454129 L8.15482992,12.0457651 C8.06355705,12.0853782 8.00340674,12.1732849 8.00000277,12.258961 L8,12.7042525 C8.00043403,12.8128152 8.06966772,12.9096036 8.17627054,12.9467523 L8.47340493,13.0533972 C8.83987242,13.1776323 9.13587206,13.4519331 9.28430264,13.8014867 C9.44148811,14.1528108 9.44148811,14.5542209 9.28028505,14.9142029 L9.14146353,15.2028825 C9.09459124,15.3012048 9.11519252,15.4182145 9.19438834,15.496286 L9.51677334,15.8175318 C9.59428135,15.895605 9.71324089,15.9164008 9.81199094,15.869661 L10.1113905,15.7268531 C10.4631684,15.570582 10.8649226,15.570582 11.2106934,15.7242522 C11.5672243,15.8746394 11.8425579,16.1696443 11.9653593,16.5294784 L12.0742373,16.8308426 C12.111172,16.9326391 12.2085531,17.00077 12.3178038,17.0008164 L12.7659283,17.0008164 C12.8753258,17.00077 12.972707,16.9326391 13.0102539,16.8291687 L13.1171434,16.539396 C13.2445191,16.1732797 13.5223359,15.8787809 13.8736254,15.7327167 C14.2213993,15.5787355 14.6182675,15.5787355 14.9725633,15.7356853 L15.2708344,15.8751963 C15.3706381,15.922437 15.4895976,15.9016411 15.5684314,15.8222398 L15.8908235,15.5010013 C15.9686865,15.4242507 15.9892877,15.307241 15.9429215,15.2099757 L15.7991132,14.9105414 C15.6443377,14.5615344 15.6443377,14.1636058 15.796947,13.8195886 C15.9480069,13.4640055 16.2440066,13.1897047 16.6047223,13.0674759 L16.863179,12.9783729 C16.9542158,12.9304488 17.00783,12.8336817 16.9990681,12.7056384 L16.9990709,12.2603468 C16.9986368,12.1517842 16.9294031,12.0549957 16.8258185,12.018914 Z M12.4014019,13.9967167 C11.6506818,13.9472586 11.0527414,13.3493182 11.0032833,12.5985981 C10.9538253,11.8478781 11.4681527,11.1766605 12.2058957,11.0291414 C12.6976595,10.9308083 13.2060319,11.0847417 13.5606451,11.4393549 C13.9152583,11.7939681 14.0691917,12.3023405 13.9708586,12.7941043 C13.8233395,13.5318473 13.1521219,14.0461747 12.4014019,13.9967167 Z M12.467134,12.9989056 C12.717374,13.0153916 12.9411132,12.8439491 12.9902862,12.5980348 C13.0230639,12.4341135 12.9717528,12.264656 12.8535484,12.1464516 C12.735344,12.0282472 12.5658865,11.9769361 12.4019652,12.0097138 C12.1560509,12.0588868 11.9846084,12.282626 12.0010944,12.532866 C12.0175805,12.7831061 12.2168939,12.9824195 12.467134,12.9989056 Z" id="path-1"></path>
    </defs>
    <g id="management" stroke="none" stroke-width="1" fill="none" fill-rule="evenodd">
        <mask id="mask-2" fill="white">
            <use xlink:href="#path-1"></use>
        </mask>
        <use id="Combined-Shape" fill="#000000" xlink:href="#path-1"></use>
    </g>
</svg>