<svg xmlns="http://www.w3.org/2000/svg" width="16" height="16" viewBox="0 0 16 16">
  <path fill="#333" d="M5.54545455,1.03023688 C5.80480197,0.97082114 6.13737386,0.99726181 6.5,1.12473434 L9.5,2.17931247 C9.86262614,2.30678501 10.195198,2.5141597 10.4545455,2.75591018 C10.6706683,2.5141597 10.9478115,2.30678501 11.25,2.17931247 L13.75,1.12473434 C14.4403559,0.833520633 15,1.06959599 15,1.65202341 L15,12.1978047 C15,12.7802321 14.4403559,13.4884582 13.75,13.7796719 L11.25,14.83425 C10.9478115,14.9617226 10.6706683,14.9881632 10.4545455,14.9287475 C10.195198,14.9881632 9.86262614,14.9617226 9.5,14.83425 L6.5,13.7796719 C6.13737386,13.6521994 5.80480197,13.4448247 5.54545455,13.2030742 C5.32933169,13.4448247 5.05218845,13.6521994 4.75,13.7796719 L2.25,14.83425 C1.55964406,15.1254637 1,14.8893884 1,14.306961 L1,3.76117967 C1,3.17875225 1.55964406,2.47052618 2.25,2.17931247 L4.75,1.12473434 C5.05218845,0.99726181 5.32933169,0.97082114 5.54545455,1.03023688 Z M6,12.1978047 C6,12.2883386 6.36353513,12.6717148 6.83163269,12.8362633 L9.83163269,13.8908414 C9.89314221,13.9124636 9.94974082,13.9282866 10,13.9394081 L10,3.76117967 C10,3.67064574 9.63646487,3.28726954 9.16836731,3.12272106 L6.16836731,2.06814293 C6.10685779,2.04652073 6.05025918,2.03069779 6,2.0195763 L6,12.1978047 Z M13.3613337,12.8582933 C13.7069344,12.7125081 14,12.3416355 14,12.1978047 L14,2.10460671 L11.6386663,3.10069107 C11.2930656,3.24647625 11,3.6173489 11,3.76117967 L11,13.8543777 L13.3613337,12.8582933 Z M2,13.8543777 L4.36133371,12.8582933 C4.70693444,12.7125081 5,12.3416355 5,12.1978047 L5,2.10460671 L2.63866629,3.10069107 C2.29306556,3.24647625 2,3.6173489 2,3.76117967 L2,13.8543777 Z"/>
</svg>
