<svg xmlns="http://www.w3.org/2000/svg" width="16" height="16" viewBox="0 0 16 16">
  <path fill="#333" fill-rule="evenodd" d="M1,14.1750421 L1,10.5 C1,10.2238576 0.776142375,10 0.5,10 L0.5,10 L0.5,10 C0.223857625,10 3.27345719e-16,10.2238576 3.27345719e-16,10.5 L-2.84977681e-16,15.5 C-2.84977681e-16,15.6380712 0.0559644063,15.7630712 0.146446609,15.8535534 C0.236928813,15.9440356 0.361928813,16 0.5,16 L5.5,16 C5.77614237,16 6,15.7761424 6,15.5 C6,15.2238576 5.77614237,15 5.5,15 L1.82495791,15 L6.82914562,9.99581229 C7.05695146,9.76800645 7.05695146,9.39866021 6.82914562,9.17085438 C6.60133979,8.94304854 6.23199355,8.94304854 6.00418771,9.17085438 L1,14.1750421 Z M15,1.82495791 L15,5.5 C15,5.77614237 15.2238576,6 15.5,6 C15.7761424,6 16,5.77614237 16,5.5 L16,0.5 C16,0.361928813 15.9440356,0.236928813 15.8535534,0.146446609 C15.7630712,0.0559644063 15.6380712,4.4408921e-16 15.5,4.4408921e-16 L10.5,-2.22044605e-16 C10.2238576,-2.22044605e-16 10,0.223857625 10,0.5 L10,0.5 C10,0.776142375 10.2238576,1 10.5,1 L14.1750421,1 L9.17085438,6.00418771 C8.94304854,6.23199355 8.94304854,6.60133979 9.17085438,6.82914562 C9.39866021,7.05695146 9.76800645,7.05695146 9.99581229,6.82914562 L15,1.82495791 Z"/>
</svg>
