<svg xmlns="http://www.w3.org/2000/svg" width="16" height="16" viewBox="0 0 16 16">
  <path fill="#333" d="M2,10.5 L2,13 C2,13.5522847 2.44771525,14 3,14 L5.5,14 C5.77614237,14 6,14.2238576 6,14.5 C6,14.7761424 5.77614237,15 5.5,15 L3,15 C1.8954305,15 1,14.1045695 1,13 L1,13 L1,10.5 C1,10.2238576 1.22385763,10 1.5,10 C1.77614237,10 2,10.2238576 2,10.5 Z M2,5.5 C2,5.77614237 1.77614237,6 1.5,6 C1.22385763,6 1,5.77614237 1,5.5 L1,3 L1,3 C1,1.8954305 1.8954305,1 3,1 L5.5,1 C5.77614237,1 6,1.22385763 6,1.5 C6,1.77614237 5.77614237,2 5.5,2 L3,2 L3,2 C2.44771525,2 2,2.44771525 2,3 L2,5.5 Z M14,10.5 C14,10.2238576 14.2238576,10 14.5,10 C14.7761424,10 15,10.2238576 15,10.5 L15,13 L15,13 C15,14.1045695 14.1045695,15 13,15 L10.5,15 C10.2238576,15 10,14.7761424 10,14.5 C10,14.2238576 10.2238576,14 10.5,14 L13,14 L13,14 C13.5522847,14 14,13.5522847 14,13 L14,10.5 Z M14,5.5 L14,3 C14,2.44771525 13.5522847,2 13,2 L13,2 L10.5,2 C10.2238576,2 10,1.77614237 10,1.5 C10,1.22385763 10.2238576,1 10.5,1 L13,1 C14.1045695,1 15,1.8954305 15,3 L15,3 L15,5.5 C15,5.77614237 14.7761424,6 14.5,6 C14.2238576,6 14,5.77614237 14,5.5 Z"/>
</svg>
