<?xml version="1.0" encoding="UTF-8"?>
<svg width="16px" height="16px" viewBox="0 0 16 16" version="1.1" xmlns="http://www.w3.org/2000/svg" xmlns:xlink="http://www.w3.org/1999/xlink">
    <!-- Generator: Sketch 52.4 (67378) - http://www.bohemiancoding.com/sketch -->
    <title>mechanism</title>
    <desc>Created with Sketch.</desc>
    <defs>
        <path d="M10,4.99743652 L14,4.99743652 C14.5522847,4.99743652 15,5.44515177 15,5.99743652 L15,15.9974365 L10,15.9974365 L10,16 L1,16 L1,1 C1,0.44771525 1.44771525,1.01453063e-16 2,0 L9,0 C9.55228475,-1.01453063e-16 10,0.44771525 10,1 L10,4.99743652 Z M10,6 L10,15 L14,15 L14,6.5 C14,6.22385763 13.7761424,6 13.5,6 L10,6 Z M2.5,1 C2.22385763,1 2,1.22385763 2,1.5 L2,15 L9,15 L9,1.5 C9,1.22385763 8.77614237,1 8.5,1 L2.5,1 Z M3.5,3 L7.5,3 C7.77614237,3 8,3.22385763 8,3.5 C8,3.77614237 7.77614237,4 7.5,4 L3.5,4 C3.22385763,4 3,3.77614237 3,3.5 C3,3.22385763 3.22385763,3 3.5,3 Z M3.5,6 L7.5,6 C7.77614237,6 8,6.22385763 8,6.5 C8,6.77614237 7.77614237,7 7.5,7 L3.5,7 C3.22385763,7 3,6.77614237 3,6.5 C3,6.22385763 3.22385763,6 3.5,6 Z M3.5,9 L7.5,9 C7.77614237,9 8,9.22385763 8,9.5 C8,9.77614237 7.77614237,10 7.5,10 L3.5,10 C3.22385763,10 3,9.77614237 3,9.5 C3,9.22385763 3.22385763,9 3.5,9 Z M3.5,12 L7.5,12 C7.77614237,12 8,12.2238576 8,12.5 C8,12.7761424 7.77614237,13 7.5,13 L3.5,13 C3.22385763,13 3,12.7761424 3,12.5 C3,12.2238576 3.22385763,12 3.5,12 Z M11.5,7 L12.5,7 C12.7761424,7 13,7.22385763 13,7.5 L13,8.5 C13,8.77614237 12.7761424,9 12.5,9 L11.5,9 C11.2238576,9 11,8.77614237 11,8.5 L11,7.5 C11,7.22385763 11.2238576,7 11.5,7 Z M11.5,11 L12.5,11 C12.7761424,11 13,11.2238576 13,11.5 L13,12.5 C13,12.7761424 12.7761424,13 12.5,13 L11.5,13 C11.2238576,13 11,12.7761424 11,12.5 L11,11.5 C11,11.2238576 11.2238576,11 11.5,11 Z" id="path-1"></path>
    </defs>
    <g id="mechanism" stroke="none" stroke-width="1" fill="none" fill-rule="evenodd">
        <mask id="mask-2" fill="white">
            <use xlink:href="#path-1"></use>
        </mask>
        <use id="Combined-Shape" fill="#000000" xlink:href="#path-1"></use>
    </g>
</svg>