<svg xmlns="http://www.w3.org/2000/svg" width="16" height="16" viewBox="0 0 16 16">
  <path fill="#333" d="M5,7.32866717 L5,11.0500091 C6.14112016,11.2816442 7,12.290521 7,13.5 C7,14.8807119 5.88071187,16 4.5,16 C3.11928813,16 2,14.8807119 2,13.5 C2,12.290521 2.85887984,11.2816442 4,11.0500091 L4,4.94999094 C2.85887984,4.71835578 2,3.70947896 2,2.5 C2,1.11928813 3.11928813,0 4.5,0 C5.88071187,0 7,1.11928813 7,2.5 C7,3.69959639 6.15509851,4.70185547 5.02791518,4.94415756 C5.24615919,6.66744456 6.7174621,8 8.5,8 L9.05000906,8 C9.28164422,6.85887984 10.290521,6 11.5,6 C12.8807119,6 14,7.11928813 14,8.5 C14,9.88071187 12.8807119,11 11.5,11 C10.290521,11 9.28164422,10.1411202 9.05000906,9 L8.5,9 C7.08636695,9 5.82497775,8.34816653 5,7.32866717 Z M4.5,15 C5.32842712,15 6,14.3284271 6,13.5 C6,12.6715729 5.32842712,12 4.5,12 C3.67157288,12 3,12.6715729 3,13.5 C3,14.3284271 3.67157288,15 4.5,15 Z M4.5,4 C5.32842712,4 6,3.32842712 6,2.5 C6,1.67157288 5.32842712,1 4.5,1 C3.67157288,1 3,1.67157288 3,2.5 C3,3.32842712 3.67157288,4 4.5,4 Z M11.5,10 C12.3284271,10 13,9.32842712 13,8.5 C13,7.67157288 12.3284271,7 11.5,7 C10.6715729,7 10,7.67157288 10,8.5 C10,9.32842712 10.6715729,10 11.5,10 Z"/>
</svg>
