<svg xmlns="http://www.w3.org/2000/svg" width="16" height="16" viewBox="0 0 16 16">
  <path fill="#333" d="M8,1 C6.8954305,1 6,1.8954305 6,3 L6,7 C6,8.1045695 6.8954305,9 8,9 C9.1045695,9 10,8.1045695 10,7 L10,3 C10,1.8954305 9.1045695,1 8,1 Z M7.25226593,15 L7.25226593,12.4495991 C4.56840058,12.0847908 2.5,9.78394581 2.5,7 C2.5,6.72385763 2.72385763,6.5 3,6.5 C3.27614237,6.5 3.5,6.72385763 3.5,7 C3.5,9.48528137 5.51471863,11.5 8,11.5 C10.4852814,11.5 12.5,9.48528137 12.5,7 C12.5,6.72385763 12.7238576,6.5 13,6.5 C13.2761424,6.5 13.5,6.72385763 13.5,7 C13.5,9.78394581 11.4315994,12.0847908 8.74773407,12.4495991 L8.74773407,15 L10.5,15 C10.7761424,15 11,15.2238576 11,15.5 C11,15.7761424 10.7761424,16 10.5,16 L5.5,16 C5.22385763,16 5,15.7761424 5,15.5 C5,15.2238576 5.22385763,15 5.5,15 L7.25226593,15 Z M8,0 C9.65685425,-3.04359188e-16 11,1.34314575 11,3 L11,7 C11,8.65685425 9.65685425,10 8,10 C6.34314575,10 5,8.65685425 5,7 L5,3 C5,1.34314575 6.34314575,3.04359188e-16 8,0 Z"/>
</svg>
