<svg xmlns="http://www.w3.org/2000/svg" width="16" height="16" viewBox="0 0 16 16">
  <path fill="#333" fill-rule="evenodd" d="M6,10.8249579 L6,14.5 C6,14.7761424 6.22385763,15 6.5,15 C6.77614237,15 7,14.7761424 7,14.5 L7,9.5 C7,9.36192881 6.94403559,9.23692881 6.85355339,9.14644661 C6.76307119,9.05596441 6.63807119,9 6.5,9 L1.5,9 C1.22385763,9 1,9.22385763 1,9.5 C1,9.77614237 1.22385763,10 1.5,10 L5.17504209,10 L0.170854378,15.0041877 C-0.0569514592,15.2319935 -0.0569514592,15.6013398 0.170854378,15.8291456 C0.398660214,16.0569515 0.768006452,16.0569515 0.995812289,15.8291456 L6,10.8249579 Z M10,5.17504209 L10,1.5 C10,1.22385763 9.77614237,1 9.5,1 C9.22385763,1 9,1.22385763 9,1.5 L9,6.5 C9,6.63807119 9.05596441,6.76307119 9.14644661,6.85355339 C9.23692881,6.94403559 9.36192881,7 9.5,7 L14.5,7 C14.7761424,7 15,6.77614237 15,6.5 C15,6.22385763 14.7761424,6 14.5,6 L10.8249579,6 L15.8291456,0.995812289 C16.0569515,0.768006452 16.0569515,0.398660214 15.8291456,0.170854378 C15.6013398,-0.0569514592 15.2319935,-0.0569514592 15.0041877,0.170854378 L10,5.17504209 Z"/>
</svg>
