<svg xmlns="http://www.w3.org/2000/svg" width="16" height="16" viewBox="0 0 16 16">
  <path fill="#333" d="M5,14.5 L5,12 C5,11.4477153 4.55228475,11 4,11 L1.5,11 C1.22385763,11 1,10.7761424 1,10.5 C1,10.2238576 1.22385763,10 1.5,10 L4,10 C5.1045695,10 6,10.8954305 6,12 L6,12 L6,14.5 C6,14.7761424 5.77614237,15 5.5,15 C5.22385763,15 5,14.7761424 5,14.5 Z M5,1.5 C5,1.22385763 5.22385763,1 5.5,1 C5.77614237,1 6,1.22385763 6,1.5 L6,4 L6,4 C6,5.1045695 5.1045695,6 4,6 L1.5,6 C1.22385763,6 1,5.77614237 1,5.5 C1,5.22385763 1.22385763,5 1.5,5 L4,5 L4,5 C4.55228475,5 5,4.55228475 5,4 L5,1.5 Z M11,14.5 C11,14.7761424 10.7761424,15 10.5,15 C10.2238576,15 10,14.7761424 10,14.5 L10,12 L10,12 C10,10.8954305 10.8954305,10 12,10 L14.5,10 C14.7761424,10 15,10.2238576 15,10.5 C15,10.7761424 14.7761424,11 14.5,11 L12,11 L12,11 C11.4477153,11 11,11.4477153 11,12 L11,14.5 Z M11,1.5 L11,4 C11,4.55228475 11.4477153,5 12,5 L12,5 L14.5,5 C14.7761424,5 15,5.22385763 15,5.5 C15,5.77614237 14.7761424,6 14.5,6 L12,6 C10.8954305,6 10,5.1045695 10,4 L10,4 L10,1.5 C10,1.22385763 10.2238576,1 10.5,1 C10.7761424,1 11,1.22385763 11,1.5 Z"/>
</svg>
