<svg xmlns="http://www.w3.org/2000/svg" width="16" height="16" viewBox="0 0 16 16">
  <path fill="#333" d="M2,2 C1.44771525,2 1,2.44771525 1,3 L1,10 C1,10.5522847 1.44771525,11 2,11 L14,11 C14.5522847,11 15,10.5522847 15,10 L15,3 C15,2.44771525 14.5522847,2 14,2 L2,2 Z M7,14 L7,12 L2,12 C0.8954305,12 1.3527075e-16,11.1045695 0,10 L0,3 C-1.3527075e-16,1.8954305 0.8954305,1 2,1 L14,1 C15.1045695,1 16,1.8954305 16,3 L16,10 C16,11.1045695 15.1045695,12 14,12 L9,12 L9,14 L10.5,14 C10.7761424,14 11,14.2238576 11,14.5 C11,14.7761424 10.7761424,15 10.5,15 L5.5,15 C5.22385763,15 5,14.7761424 5,14.5 C5,14.2238576 5.22385763,14 5.5,14 L7,14 Z"/>
</svg>
