<svg xmlns="http://www.w3.org/2000/svg" width="16" height="16" viewBox="0 0 16 16">
  <path fill="#333" d="M2,8 C2,11.5898509 4.41014913,14 8,14 C10.41387,14 12.301192,12.9090018 13.2740828,11.0925664 C12.5580134,11.3598227 11.7900714,11.5017379 11,11.5017379 C7.41014913,11.5017379 4.5,8.59158878 4.5,5.0017379 C4.5,4.2104344 4.642359,3.44133453 4.91041768,2.72432041 C3.09221185,3.69673306 2,5.58478259 2,8 Z M5.5,5.0017379 C5.5,8.03930403 7.96243388,10.5017379 11,10.5017379 C12.5561218,10.5017379 13.961304,9.85548832 14.9618029,8.81673261 C14.6103242,12.513127 11.8639394,15 8,15 C3.85786438,15 1,12.1421356 1,8 C1,4.13469118 3.48863601,1.38772923 7.18719791,1.03782426 C6.14715907,2.03845717 5.5,3.44452149 5.5,5.0017379 Z"/>
</svg>
