<svg xmlns="http://www.w3.org/2000/svg" width="16" height="16" viewBox="0 0 16 16">
  <path fill="#333" d="M8,16 C3.581722,16 0,12.418278 0,8 C0,3.581722 3.581722,0 8,0 C12.418278,0 16,3.581722 16,8 C16,12.418278 12.418278,16 8,16 Z M8,15 C11.8659932,15 15,11.8659932 15,8 C15,4.13400675 11.8659932,1 8,1 C4.13400675,1 1,4.13400675 1,8 C1,11.8659932 4.13400675,15 8,15 Z M5.5,5.5 L12.5,3.5 L10.5,10.5 L3.5,12.5 L5.5,5.5 Z M6.3089011,6.3089011 L4.95602198,11.043978 L9.6910989,9.6910989 L11.043978,4.95602198 L6.3089011,6.3089011 Z M8,9 C7.44771525,9 7,8.55228475 7,8 C7,7.44771525 7.44771525,7 8,7 C8.55228475,7 9,7.44771525 9,8 C9,8.55228475 8.55228475,9 8,9 Z"/>
</svg>
