<?xml version="1.0" encoding="UTF-8"?>
<svg width="16px" height="16px" viewBox="0 0 16 16" version="1.1" xmlns="http://www.w3.org/2000/svg" xmlns:xlink="http://www.w3.org/1999/xlink">
    <!-- Generator: Sketch 52.4 (67378) - http://www.bohemiancoding.com/sketch -->
    <title>password</title>
    <desc>Created with Sketch.</desc>
    <defs>
        <path d="M4,4 C4,1.790861 5.790861,4.05812251e-16 8,0 C10.209139,-4.05812251e-16 12,1.790861 12,4 L13,4 C14.6568542,4 16,5.34314575 16,7 L16,13 C16,14.6568542 14.6568542,16 13,16 L3,16 C1.34314575,16 2.02906125e-16,14.6568542 0,13 L0,7 C-2.02906125e-16,5.34314575 1.34314575,4 3,4 L4,4 Z M4,5 L3,5 C1.8954305,5 1,5.8954305 1,7 L1,13 C1,14.1045695 1.8954305,15 3,15 L13,15 C14.1045695,15 15,14.1045695 15,13 L15,7 C15,5.8954305 14.1045695,5 13,5 L12,5 L4,5 Z M5,4 L11,4 C11,2.34314575 9.65685425,1 8,1 C6.34314575,1 5,2.34314575 5,4 Z M7.5,7 L8.5,7 C8.77614237,7 9,7.22385763 9,7.5 C9,7.77614237 8.77614237,8 8.5,8 L7.5,8 C7.22385763,8 7,7.77614237 7,7.5 C7,7.22385763 7.22385763,7 7.5,7 Z M8,9 C8.55228475,9 9,9.44771525 9,10 L9,12 C9,12.5522847 8.55228475,13 8,13 C7.44771525,13 7,12.5522847 7,12 L7,10 C7,9.44771525 7.44771525,9 8,9 Z" id="path-1"></path>
    </defs>
    <g id="password" stroke="none" stroke-width="1" fill="none" fill-rule="evenodd">
        <mask id="mask-2" fill="white">
            <use xlink:href="#path-1"></use>
        </mask>
        <use id="Combined-Shape" fill="#000000" fill-rule="nonzero" xlink:href="#path-1"></use>
    </g>
</svg>