<svg xmlns="http://www.w3.org/2000/svg" width="16" height="16" viewBox="0 0 16 16">
  <path fill="#333" d="M5,2 C6.1045695,2 7,2.8954305 7,4 L7,12 C7,13.1045695 6.1045695,14 5,14 C3.8954305,14 3,13.1045695 3,12 L3,4 C3,2.8954305 3.8954305,2 5,2 Z M5,3 C4.44771525,3 4,3.44771525 4,4 L4,12 C4,12.5522847 4.44771525,13 5,13 C5.55228475,13 6,12.5522847 6,12 L6,4 C6,3.44771525 5.55228475,3 5,3 Z M11,2 C12.1045695,2 13,2.8954305 13,4 L13,12 C13,13.1045695 12.1045695,14 11,14 C9.8954305,14 9,13.1045695 9,12 L9,4 C9,2.8954305 9.8954305,2 11,2 Z M11,3 C10.4477153,3 10,3.44771525 10,4 L10,12 C10,12.5522847 10.4477153,13 11,13 C11.5522847,13 12,12.5522847 12,12 L12,4 C12,3.44771525 11.5522847,3 11,3 Z"/>
</svg>
