<svg xmlns="http://www.w3.org/2000/svg" width="16" height="16" viewBox="0 0 16 16">
  <path fill="#333" d="M4,0 L12,0 C13.1045695,-2.02906125e-16 14,0.8954305 14,2 L14,14 C14,15.1045695 13.1045695,16 12,16 L4,16 C2.8954305,16 2,15.1045695 2,14 L2,2 C2,0.8954305 2.8954305,2.02906125e-16 4,0 Z M4,1 C3.44771525,1 3,1.44771525 3,2 L3,14 C3,14.5522847 3.44771525,15 4,15 L12,15 C12.5522847,15 13,14.5522847 13,14 L13,2 C13,1.44771525 12.5522847,1 12,1 L4,1 Z M5,2 L11,2 C11.5522847,2 12,2.44771525 12,3 L12,11 C12,11.5522847 11.5522847,12 11,12 L5,12 C4.44771525,12 4,11.5522847 4,11 L4,3 C4,2.44771525 4.44771525,2 5,2 Z M5,3 L5,11 L11,11 L11,3 L5,3 Z M7.5,13 L8.5,13 C8.77614237,13 9,13.2238576 9,13.5 C9,13.7761424 8.77614237,14 8.5,14 L7.5,14 C7.22385763,14 7,13.7761424 7,13.5 C7,13.2238576 7.22385763,13 7.5,13 Z"/>
</svg>
