<svg xmlns="http://www.w3.org/2000/svg" width="16" height="16" viewBox="0 0 16 16">
  <path fill="#333" d="M3,3.56984323 C3,3.28536164 3.07347108,3.00622855 3.21255804,2.7622876 C3.63638245,2.01895316 4.5525893,1.77791651 5.25896331,2.22391717 L12.2756152,6.65419255 C12.4855519,6.7867454 12.6612545,6.97164155 12.7872165,7.19256297 C13.2110409,7.93589741 12.9819892,8.900044 12.2756152,9.34604466 L5.25896331,13.77632 C5.02715171,13.9226846 4.7618978,14 4.49156133,14 C3.66779476,14 3,13.2972634 3,12.430394 L3,3.56984323 Z M3.99437422,3.56984323 L3.99437422,12.430394 C3.99437422,12.7193505 4.21697247,12.953596 4.49156133,12.953596 C4.58167349,12.953596 4.67009146,12.9278242 4.74736199,12.879036 L11.7640139,8.44876062 C11.9994719,8.30009374 12.0758225,7.97871154 11.9345477,7.73093339 C11.8925603,7.65729292 11.8339928,7.59566087 11.7640139,7.55147659 L4.74736199,3.12120121 C4.51190399,2.97253432 4.20650171,3.05287987 4.0652269,3.30065802 C4.01886458,3.38197167 3.99437422,3.47501603 3.99437422,3.56984323 Z"/>
</svg>
