<svg xmlns="http://www.w3.org/2000/svg" width="16" height="16" viewBox="0 0 16 16">
  <path fill="#333" d="M8,15 C11.8659932,15 15,11.8659932 15,8 C15,4.13400675 11.8659932,1 8,1 C4.13400675,1 1,4.13400675 1,8 C1,11.8659932 4.13400675,15 8,15 Z M8,16 C3.581722,16 0,12.418278 0,8 C0,3.581722 3.581722,0 8,0 C12.418278,0 16,3.581722 16,8 C16,12.418278 12.418278,16 8,16 Z M6,10.381966 L10.763932,8 L6,5.61803399 L6,10.381966 Z M5,4.80901699 C5,4.73139445 5.01807255,4.65483791 5.0527864,4.5854102 C5.17628103,4.33842095 5.47661755,4.23830877 5.7236068,4.3618034 L12.1055728,7.5527864 C12.2023365,7.60116826 12.2807978,7.6796295 12.3291796,7.7763932 C12.4526742,8.02338245 12.3525621,8.32371897 12.1055728,8.4472136 L5.7236068,11.6381966 C5.65417908,11.6729105 5.57762255,11.690983 5.5,11.690983 C5.22385763,11.690983 5,11.4671254 5,11.190983 L5,4.80901699 Z"/>
</svg>
