<?xml version="1.0" encoding="UTF-8"?>
<svg width="16px" height="16px" viewBox="0 0 16 16" version="1.1" xmlns="http://www.w3.org/2000/svg" xmlns:xlink="http://www.w3.org/1999/xlink">
    <!-- Generator: Sketch 52.4 (67378) - http://www.bohemiancoding.com/sketch -->
    <title>printer</title>
    <desc>Created with Sketch.</desc>
    <defs>
        <path d="M4,13 L2,13 C0.8954305,13 1.3527075e-16,12.1045695 0,11 L0,5 C-1.3527075e-16,3.8954305 0.8954305,3 2,3 L3,3 L3,1 C3,0.44771525 3.44771525,1.01453063e-16 4,0 L12,0 C12.5522847,-1.01453063e-16 13,0.44771525 13,1 L13,3 L14,3 C15.1045695,3 16,3.8954305 16,5 L16,11 C16,12.1045695 15.1045695,13 14,13 L12,13 L12,15 C12,15.5522847 11.5522847,16 11,16 L5,16 C4.44771525,16 4,15.5522847 4,15 L4,13 Z M12,12 L14,12 C14.5522847,12 15,11.5522847 15,11 L15,5 C15,4.44771525 14.5522847,4 14,4 L2,4 C1.44771525,4 1,4.44771525 1,5 L1,11 C1,11.5522847 1.44771525,12 2,12 L4,12 L4,9 C4,8.44771525 4.44771525,8 5,8 L11,8 C11.5522847,8 12,8.44771525 12,9 L12,12 Z M4,1 L4,3 L12,3 L12,1.5 C12,1.22385763 11.7761424,1 11.5,1 L4,1 Z M5.5,9 C5.22385763,9 5,9.22385763 5,9.5 L5,14.5 C5,14.7761424 5.22385763,15 5.5,15 L10.5,15 C10.7761424,15 11,14.7761424 11,14.5 L11,9.5 C11,9.22385763 10.7761424,9 10.5,9 L5.5,9 Z M2,5 L6,5 L6,6 L2,6 L2,5 Z" id="path-1"></path>
    </defs>
    <g id="printer" stroke="none" stroke-width="1" fill="none" fill-rule="evenodd">
        <mask id="mask-2" fill="white">
            <use xlink:href="#path-1"></use>
        </mask>
        <use id="Combined-Shape" fill="#000000" xlink:href="#path-1"></use>
    </g>
</svg>