<svg xmlns="http://www.w3.org/2000/svg" width="16" height="16" viewBox="0 0 16 16">
  <path fill="#333" d="M13,13 L13,14 C13,14.5522847 12.5522847,15 12,15 L4,15 C3.44771525,15 3,14.5522847 3,14 L3,13 L2,13 C0.8954305,13 1.3527075e-16,12.1045695 0,11 L0,8 C-1.3527075e-16,6.8954305 0.8954305,6 2,6 L14,6 C15.1045695,6 16,6.8954305 16,8 L16,11 C16,12.1045695 15.1045695,13 14,13 L13,13 Z M13,12 L14,12 C14.5522847,12 15,11.5522847 15,11 L15,8 C15,7.44771525 14.5522847,7 14,7 L2,7 C1.44771525,7 1,7.44771525 1,8 L1,11 C1,11.5522847 1.44771525,12 2,12 L3,12 L3,10 C3,9.44771525 3.44771525,9 4,9 L12,9 C12.5522847,9 13,9.44771525 13,10 L13,12 Z M4,10 L4,14 L12,14 L12,10 L4,10 Z M4,2 L4,6 L12,6 L12,2 L4,2 Z M4,1 L12,1 C12.5522847,1 13,1.44771525 13,2 L13,6 C13,6.55228475 12.5522847,7 12,7 L4,7 C3.44771525,7 3,6.55228475 3,6 L3,2 C3,1.44771525 3.44771525,1 4,1 Z"/>
</svg>
