<?xml version="1.0" encoding="UTF-8"?>
<svg width="18px" height="18px" viewBox="0 0 18 18" version="1.1" xmlns="http://www.w3.org/2000/svg" xmlns:xlink="http://www.w3.org/1999/xlink">
    <!-- Generator: Sketch 52.4 (67378) - http://www.bohemiancoding.com/sketch -->
    <title>Progression</title>
    <desc>Created with Sketch.</desc>
    <defs>
        <path d="M16.3274219,2.9853415 L14.2703918,4.45464873 C11.3006259,6.53348479 7.83905029,7.87799072 3.97149658,8.32897949 C3.31752523,8.40999349 2.24634548,8.50444061 0.757957331,8.61232086 C0.425018311,8.61232086 3.43058915e-14,8.46511841 3.43058915e-14,7.8678894 C3.43695285e-14,7.42242474 0.331634521,7.16851807 0.609469027,7.12743796 C2.05170777,7.02807502 3.09169515,6.92063395 3.72943115,6.80511475 C7.37390137,6.17053223 10.5581845,5.19709018 13.379462,3.11825412 L15.3049413,1.74291175 L12.7855089,1.6333712 C12.4866333,1.61279297 12.1088409,1.33396912 12.1327667,0.777526855 C12.1566925,0.221084595 12.6370206,0 12.9339971,0 L16.6462044,0.148488304 C17.2401576,0.148488304 17.6856224,0.593953167 17.6856224,1.18790633 L17.982599,4.45464873 C18.0170593,4.75524902 17.860199,5.2557373 17.3160248,5.2893219 C16.8817444,5.31402588 16.5415192,5.05470276 16.4977161,4.60313701 L16.3274219,2.9853415 Z M11,8 L17,8 C17.5522847,8 18,8.44771525 18,9 L18,17 C18,17.5522847 17.5522847,18 17,18 L11,18 C10.4477153,18 10,17.5522847 10,17 L10,9 C10,8.44771525 10.4477153,8 11,8 Z M11.5,8.99862795 C11.2238576,8.99862795 11,9.22248557 11,9.49862795 L11,16.4986279 C11,16.7747703 11.2238576,16.9986279 11.5,16.9986279 L16.5,16.9986279 C16.7761424,16.9986279 17,16.7747703 17,16.4986279 L17,9.49862795 C17,9.22248557 16.7761424,8.99862795 16.5,8.99862795 L11.5,8.99862795 Z M1,11 L7,11 C7.55228475,11 8,11.4477153 8,12 L8,17 C8,17.5522847 7.55228475,18 7,18 L1,18 C0.44771525,18 -2.2469892e-14,17.5522847 -2.25375274e-14,17 L-2.25375274e-14,12 C-2.26051628e-14,11.4477153 0.44771525,11 1,11 Z M1.5,12 C1.22385763,12 1,12.2238576 1,12.5 L1,16.5 C1,16.7761424 1.22385763,17 1.5,17 L6.5,17 C6.77614237,17 7,16.7761424 7,16.5 L7,12.5 C7,12.2238576 6.77614237,12 6.5,12 L1.5,12 Z" id="path-1"></path>
    </defs>
    <g id="Progression" stroke="none" stroke-width="1" fill="none" fill-rule="evenodd">
        <mask id="mask-2" fill="white">
            <use xlink:href="#path-1"></use>
        </mask>
        <use id="Combined-Shape" fill="#000000" xlink:href="#path-1"></use>
    </g>
</svg>