<?xml version="1.0" encoding="UTF-8"?>
<svg width="16px" height="16px" viewBox="0 0 16 16" version="1.1" xmlns="http://www.w3.org/2000/svg" xmlns:xlink="http://www.w3.org/1999/xlink">
    <!-- Generator: Sketch 52.4 (67378) - http://www.bohemiancoding.com/sketch -->
    <title>question-circle</title>
    <desc>Created with Sketch.</desc>
    <defs>
        <path d="M8,16 C3.581722,16 0,12.418278 0,8 C0,3.581722 3.581722,0 8,0 C12.418278,0 16,3.581722 16,8 C16,12.418278 12.418278,16 8,16 Z M8.1610206,3 C7.18840728,3 6.42608874,3.27601189 5.87406497,3.84117908 C5.3220412,4.39320285 5.04602931,5.14237797 5.04602931,6.10184787 L6.42608874,6.10184787 C6.42608874,5.52353725 6.54437955,5.07666086 6.78096117,4.7612187 C7.04382963,4.38005943 7.47756259,4.19605151 8.06901664,4.19605151 C8.54217987,4.19605151 8.92333914,4.32748574 9.1862076,4.5903542 C9.43593264,4.85322267 9.56736688,5.20809509 9.56736688,5.6681149 C9.56736688,6.0098439 9.43593264,6.32528606 9.19935103,6.62758479 L8.97591283,6.87730983 C8.1610206,7.60019811 7.66157052,8.13907846 7.49070602,8.5070943 C7.30669809,8.84882331 7.22783755,9.26941285 7.22783755,9.7557195 L7.22783755,9.9791577 L8.63418383,9.9791577 L8.63418383,9.7557195 C8.63418383,9.44027735 8.69990095,9.15112204 8.8444786,8.88825358 C8.96276941,8.65167196 9.14677733,8.41509034 9.39650237,8.20479557 C10.0142433,7.66591522 10.3822591,7.32418622 10.5005499,7.17960856 C10.8291355,6.75901902 11,6.22013867 11,5.57611094 C11,4.78750555 10.7371315,4.15662124 10.2113946,3.69660143 C9.68565768,3.22343819 9.00219968,3 8.1610206,3 Z M8,13 C8.55228475,13 9,12.5522847 9,12 C9,11.4477153 8.55228475,11 8,11 C7.44771525,11 7,11.4477153 7,12 C7,12.5522847 7.44771525,13 8,13 Z" id="path-1"></path>
    </defs>
    <g id="question-circle" stroke="none" stroke-width="1" fill="none" fill-rule="evenodd">
        <mask id="mask-2" fill="white">
            <use xlink:href="#path-1"></use>
        </mask>
        <use id="Combined-Shape" fill="#000000" xlink:href="#path-1"></use>
    </g>
</svg>