<?xml version="1.0" encoding="UTF-8"?>
<svg width="18px" height="18px" viewBox="0 0 18 18" version="1.1" xmlns="http://www.w3.org/2000/svg" xmlns:xlink="http://www.w3.org/1999/xlink">
    <!-- Generator: Sketch 52.4 (67378) - http://www.bohemiancoding.com/sketch -->
    <title>recruit students</title>
    <desc>Created with Sketch.</desc>
    <defs>
        <path d="M16,16.7324356 L16,2 C16,1.44771525 15.5522847,1 15,1 L2.26756439,1 C2.61337381,0.40219863 3.25971764,1.35987663e-16 4,0 L15,0 C16.1045695,-2.02906125e-16 17,0.8954305 17,2 L17,15 C17,15.7402824 16.5978014,16.3866262 16,16.7324356 Z M2,2 L13,2 C14.1045695,2 15,2.8954305 15,4 L15,16 C15,17.1045695 14.1045695,18 13,18 L2,18 C0.8954305,18 -7.52907669e-16,17.1045695 -8.8817842e-16,16 L-8.8817842e-16,4 C-1.02344917e-15,2.8954305 0.8954305,2 2,2 Z M2,3 C1.44771525,3 1,3.44771525 1,4 L1,16 C1,16.5522847 1.44771525,17 2,17 L13,17 C13.5522847,17 14,16.5522847 14,16 L14,4 C14,3.44771525 13.5522847,3 13,3 L2,3 Z M4.00445557,6.85076648 C4.00445557,5.60587002 5.83956023,4.00856645 7.50048238,4.00856645 C9.16204065,4.00856645 10.9899292,5.68901289 10.9899292,6.93390934 L10.9899292,8.81429458 C10.9899292,9.71759196 10.9324755,11.2351289 9.89050293,12.0550939 L12.2413865,13.3082686 C12.2413865,13.3082686 12.9932861,13.6174253 12.9932861,14.0601683 L12.9932861,15.2553988 C12.9932861,15.6707884 12.6561399,16.0079346 12.2413865,16.0079346 L2.75126352,16.0079346 C2.3371462,16.0079346 2,15.6707884 2,15.2553988 L2,14.0601683 C2,13.6422342 2.75126352,13.3082686 2.75126352,13.3082686 L5.10656738,12.0550939 C4.04096707,11.0621439 4.00445557,9.55238898 4.00445557,8.73115172 L4.00445557,6.85076648 Z M10.0239258,6.85076648 C10.0239258,6.19619394 8.7979261,5.02654973 7.51168153,5.02654973 C6.24897358,5.02654973 4.99560547,6.12831807 4.99560547,6.76762361 L4.99560547,8.64800885 C4.99560547,9.35601588 5.10012929,10.6175731 5.84630381,11.2161667 C6.07912553,11.4025513 6.20316988,11.6932603 6.17645264,11.9909668 C6.14973539,12.2880371 5.9909653,12.6664585 5.72888184,12.8076782 L3.33595431,13.9537807 C3.16280031,14.0367135 3.0524249,14.2114687 3.05193804,14.4034581 L3.05158775,14.5415915 C3.05158679,14.541972 3.0515863,14.5423526 3.0515863,14.5427332 C3.0515852,14.7918245 3.25351272,14.9937538 3.50260405,14.9937549 L11.4812966,14.9937903 C11.7310275,14.9937895 11.9334738,14.791342 11.933473,14.5416111 L11.9334726,14.3995604 C11.933472,14.2095944 11.8258208,14.0360375 11.6556371,13.9516301 L9.34918156,12.8076782 C9.08646197,12.6645501 8.89854399,12.2842204 8.87309899,11.9865139 C8.84829012,11.6881713 8.9755151,11.3968261 9.21024519,11.2117138 C9.97868409,10.6073951 10.0239258,9.42898075 10.0239258,8.73115172 L10.0239258,6.85076648 Z" id="path-1"></path>
    </defs>
    <g id="recruit-students" stroke="none" stroke-width="1" fill="none" fill-rule="evenodd">
        <mask id="mask-2" fill="white">
            <use xlink:href="#path-1"></use>
        </mask>
        <use id="Combined-Shape" fill="#000000" xlink:href="#path-1"></use>
    </g>
</svg>