<svg xmlns="http://www.w3.org/2000/svg" width="16" height="16" viewBox="0 0 16 16">
  <path fill="#333" fill-rule="evenodd" d="M13,3.09926553 L13,1.5 L13,1.5 C13,1.22385763 13.2238576,1 13.5,1 C13.7761424,1 14,1.22385763 14,1.5 L14,4.5 C14,4.63807119 13.9440356,4.76307119 13.8535534,4.85355339 C13.7630712,4.94403559 13.6380712,5 13.5,5 L10.5,5 C10.2238576,5 10,4.77614237 10,4.5 C10,4.22385763 10.2238576,4 10.5,4 L12.4733636,4 C11.7062936,3.14012375 10.7008972,2.51204615 9.55291427,2.20444504 C6.35211765,1.34679417 3.06209591,3.24628911 2.20444504,6.44708573 C1.34679417,9.64788235 3.24628911,12.9379041 6.44708573,13.795555 C9.64788235,14.6532058 12.9379041,12.7537109 13.795555,9.55291427 L14.7614808,9.81173332 C13.7608881,13.545996 9.92252941,15.7620735 6.18826668,14.7614808 C2.45400396,13.7608881 0.237926535,9.92252941 1.23851922,6.18826668 C2.2391119,2.45400396 6.07747059,0.237926535 9.81173332,1.23851922 C11.0436683,1.56861519 12.1360074,2.21613894 13,3.09926553 Z"/>
</svg>
