<?xml version="1.0" encoding="UTF-8"?>
<svg width="16px" height="16px" viewBox="0 0 16 16" version="1.1" xmlns="http://www.w3.org/2000/svg" xmlns:xlink="http://www.w3.org/1999/xlink">
    <!-- Generator: Sketch 52.4 (67378) - http://www.bohemiancoding.com/sketch -->
    <title>role</title>
    <desc>Created with Sketch.</desc>
    <defs>
        <path d="M9.51466643,14.7849332 C10.0443727,15.2650217 10.3092258,15.5728386 10.3092258,15.708384 C10.3092258,15.8250304 10.1929488,15.9416768 10.0766718,15.9416768 C9.43714844,16 8.79762503,16 8.04182463,16 C6.17170314,16 4.05075493,15.9416768 3.00426207,15.8250304 C1.3763843,15.5917375 0.451064838,15.2484542 0.102233887,14.6652222 C-0.188458573,14.1403133 0.19120372,13.2252228 0.276649362,12.9738491 C0.801757812,11.5812988 2.4325669,10.7509113 4.00230618,10.0510328 C4.64182959,9.75941677 5.64773335,9.46780073 5.93842581,9.2345079 C5.9965643,9.2345079 6.17097978,9.05953827 6.17097978,9.00121507 C6.17097978,8.76792224 6.0547028,8.59295261 5.9965643,8.5346294 C5.70587185,8.30133657 3.96171709,7.00850547 4.01985558,3.97569866 C4.07799407,2.09963548 5.07603818,7.10542736e-15 7.63413183,7.10542736e-15 L8.37255859,7.10542736e-15 C11.056619,7.10542736e-15 11.9286963,2.57594168 11.9868348,3.91737546 C12.0449733,6.90157959 10.1348103,8.39010209 10.0766718,8.44842529 C9.61156391,8.74004133 8.99142,9.29283111 8.99142,9.81773998 L8.99142,13.8517618 C8.99142,14.3183475 9.3404541,14.5840338 9.51466643,14.7849332 Z M15.024104,9 C15.6355568,9 16.0635738,9.34662999 15.9922376,9.92434663 L15.9922376,13.9202201 C15.9922376,14.1513067 15.8088018,14.3246217 15.6865112,14.3823934 L13.4241358,15.826685 C13.3018452,15.9422283 13.1795547,16 12.9961188,16 C12.8738282,16 12.7515377,16 12.5681018,15.8844567 L10.2445811,14.3823934 C10.0429382,14.2431946 10,14.0520095 10,13.8209229 L10,9.86657497 C10,9.40440165 10.428017,9 10.9783245,9 L15.024104,9 Z M13.0216675,13.024292 L14.197238,13.642326 L13.972724,12.333309 L14.9237805,11.406258 L13.6094527,11.215275 L13.0216675,10.024292 L12.4338822,11.215275 L11.1195544,11.406258 L12.070611,12.333309 L11.846097,13.642326 L13.0216675,13.024292 Z" id="path-1"></path>
    </defs>
    <g id="role" stroke="none" stroke-width="1" fill="none" fill-rule="evenodd">
        <mask id="mask-2" fill="white">
            <use xlink:href="#path-1"></use>
        </mask>
        <use id="Combined-Shape" fill="#000000" fill-rule="nonzero" xlink:href="#path-1"></use>
    </g>
</svg>