<?xml version="1.0" encoding="UTF-8"?>
<svg width="16px" height="16px" viewBox="0 0 16 16" version="1.1" xmlns="http://www.w3.org/2000/svg" xmlns:xlink="http://www.w3.org/1999/xlink">
    <!-- Generator: Sketch 52.4 (67378) - http://www.bohemiancoding.com/sketch -->
    <title>same level</title>
    <desc>Created with Sketch.</desc>
    <defs>
        <path d="M8,7 L8,9 L14,9 C14.5522847,9 15,9.44771525 15,10 L15,15 C15,15.5522847 14.5522847,16 14,16 L1,16 C0.44771525,16 6.76353751e-17,15.5522847 0,15 L0,10 C-6.76353751e-17,9.44771525 0.44771525,9 1,9 L7,9 L7,7 L1,7 C0.44771525,7 6.76353751e-17,6.55228475 0,6 L0,1 C-6.76353751e-17,0.44771525 0.44771525,1.01453063e-16 1,0 L14,0 C14.5522847,-1.01453063e-16 15,0.44771525 15,1 L15,6 C15,6.55228475 14.5522847,7 14,7 L8,7 Z M7,12.0042725 L4.98425293,12.0042725 L4.98425293,13.0042725 L7,13.0042725 L7,15 L8,15 L8,13.0042725 L9.98425293,13.0042725 L9.98425293,12.0042725 L8,12.0042725 L8,10 L7,10 L7,12.0042725 Z M1.5,1 C1.22385763,1 1,1.22385763 1,1.5 L1,5.5 C1,5.77614237 1.22385763,6 1.5,6 L13.5,6 C13.7761424,6 14,5.77614237 14,5.5 L14,1.5 C14,1.22385763 13.7761424,1 13.5,1 L1.5,1 Z" id="path-1"></path>
    </defs>
    <g id="same-level" stroke="none" stroke-width="1" fill="none" fill-rule="evenodd">
        <mask id="mask-2" fill="white">
            <use xlink:href="#path-1"></use>
        </mask>
        <use id="Combined-Shape" fill="#000000" xlink:href="#path-1"></use>
    </g>
</svg>