<?xml version="1.0" encoding="UTF-8"?>
<svg width="16px" height="16px" viewBox="0 0 16 16" version="1.1" xmlns="http://www.w3.org/2000/svg" xmlns:xlink="http://www.w3.org/1999/xlink">
    <!-- Generator: Sketch 52.4 (67378) - http://www.bohemiancoding.com/sketch -->
    <title>save</title>
    <desc>Created with Sketch.</desc>
    <defs>
        <path d="M4,1 L2,1 C1.44771525,1 1,1.44771525 1,2 L1,10 L15,10 L15,4.5 L11.5,1 L9,1 L4,1 L3,1 L3,6 C3,6.55228475 3.44771525,7 4,7 L9,7 C9.55228475,7 10,6.55228475 10,6 L10,1 L9,1 L9,5.5 C9,5.77614237 8.77614237,6 8.5,6 L4.5,6 C4.22385763,6 4,5.77614237 4,5.5 L4,1 Z M12,0 L16,4 L16,13.9999609 C16,15.1 15.1,16 13.9999609,16 L2.00003906,16 C0.9,16 0,15.1 0,13.9999609 L0,2.00003906 C0,0.9 0.9,0 2.00003906,0 L12,0 Z M1,11 L1,14 C1,14.5522847 1.44771525,15 2,15 L14,15 C14.5522847,15 15,14.5522847 15,14 L15,11 L1,11 Z M7.5,2 C7.77614237,2 8,2.22385763 8,2.5 L8,4.5 C8,4.77614237 7.77614237,5 7.5,5 C7.22385763,5 7,4.77614237 7,4.5 L7,2.5 C7,2.22385763 7.22385763,2 7.5,2 Z" id="path-1"></path>
    </defs>
    <g id="save" stroke="none" stroke-width="1" fill="none" fill-rule="evenodd">
        <mask id="mask-2" fill="white">
            <use xlink:href="#path-1"></use>
        </mask>
        <use id="Combined-Shape" fill="#000000" fill-rule="nonzero" xlink:href="#path-1"></use>
    </g>
</svg>