<svg xmlns="http://www.w3.org/2000/svg" width="16" height="16" viewBox="0 0 16 16">
  <path fill="#333" d="M3,1 L2,1 C1.44771525,1 1,1.44771525 1,2 L1,14 C1,14.5522847 1.44771525,15 2,15 L14,15 C14.5522847,15 15,14.5522847 15,14 L15,4.75147023 C15,4.50924709 14.9120818,4.27525712 14.7525767,4.09296562 L12.3450402,1.34149539 C12.1551522,1.12448043 11.8808261,1 11.5924635,1 L10,1 L10,6 C10,6.55228475 9.55228475,7 9,7 L4,7 C3.44771525,7 3,6.55228475 3,6 L3,1 Z M2,-8.8817842e-16 L11.5924635,-7.67670755e-17 C12.1691887,2.04635772e-15 12.7178408,0.248960864 13.0976169,0.682990784 L15.5051534,3.43446102 C15.8241635,3.79904401 16,4.26702394 16,4.75147023 L16,14 C16,15.1045695 15.1045695,16 14,16 L2,16 C0.8954305,16 1.3527075e-16,15.1045695 0,14 L0,2 C-3.57315355e-16,0.8954305 0.8954305,-6.85272294e-16 2,-8.8817842e-16 Z M4,6 L9,6 L9,1 L4,1 L4,6 Z M7.5,2 C7.77614237,2 8,2.22385763 8,2.5 L8,4.5 C8,4.77614237 7.77614237,5 7.5,5 C7.22385763,5 7,4.77614237 7,4.5 L7,2.5 C7,2.22385763 7.22385763,2 7.5,2 Z"/>
</svg>
