<svg xmlns="http://www.w3.org/2000/svg" width="16" height="16" viewBox="0 0 16 16">
  <path fill="#333" fill-rule="evenodd" d="M0.5,7 L15.5,7 L15.5,7 C15.7761424,7 16,7.22385763 16,7.5 C16,7.77614237 15.7761424,8 15.5,8 L0.5,8 L0.5,8 C0.223857625,8 3.38176876e-17,7.77614237 0,7.5 C-3.38176876e-17,7.22385763 0.223857625,7 0.5,7 L0.5,7 Z M1,10.5 L1,14 C1,14.5522847 1.44771525,15 2,15 L5.5,15 C5.77614237,15 6,15.2238576 6,15.5 C6,15.7761424 5.77614237,16 5.5,16 L2,16 C0.8954305,16 1.68804881e-13,15.1045695 1.4610535e-13,14 L1.00202674e-13,14 L2.84217094e-14,10.5 C2.84217094e-14,10.2238576 0.223857625,10 0.5,10 C0.776142375,10 1,10.2238576 1,10.5 Z M1,5.5 C1,5.77614237 0.776142375,6 0.5,6 C0.223857625,6 2.84217094e-14,5.77614237 2.84217094e-14,5.5 L1.00202674e-13,2 L1.4610535e-13,2 C1.68804881e-13,0.8954305 0.8954305,5.68434189e-14 2,5.41788836e-14 L5.5,0 C5.77614237,0 6,0.223857625 6,0.5 C6,0.776142375 5.77614237,1 5.5,1 L2,1 C1.44771525,1 1,1.44771525 1,2 L1,5.5 Z M15,10.5 C15,10.2238576 15.2238576,10 15.5,10 C15.7761424,10 16,10.2238576 16,10.5 L16,14 L16,14 C16,15.1045695 15.1045695,16 14,16 L10.5,16 C10.2238576,16 10,15.7761424 10,15.5 C10,15.2238576 10.2238576,15 10.5,15 L14,15 C14.5522847,15 15,14.5522847 15,14 L15,10.5 Z M15,5.5 L15,2 C15,1.44771525 14.5522847,1 14,1 L10.5,1 C10.2238576,1 10,0.776142375 10,0.5 C10,0.223857625 10.2238576,0 10.5,0 L14,5.41788836e-14 C15.1045695,5.68434189e-14 16,0.8954305 16,2 L16,2 L16,5.5 C16,5.77614237 15.7761424,6 15.5,6 C15.2238576,6 15,5.77614237 15,5.5 Z"/>
</svg>
