<?xml version="1.0" encoding="UTF-8"?>
<svg width="18px" height="18px" viewBox="0 0 18 18" version="1.1" xmlns="http://www.w3.org/2000/svg" xmlns:xlink="http://www.w3.org/1999/xlink">
    <!-- Generator: Sketch 52.4 (67378) - http://www.bohemiancoding.com/sketch -->
    <title>schedule</title>
    <desc>Created with Sketch.</desc>
    <defs>
        <path d="M17.0195312,0 L17.5,0 C17.7761424,-5.07265313e-17 18,0.223857625 18,0.5 L18,17 C18,17.5522847 17.5522847,18 17,18 L1,18 C0.44771525,18 6.76353751e-17,17.5522847 0,17 L0,0.5 C-3.38176876e-17,0.223857625 0.223857625,5.07265313e-17 0.5,0 L1.01831055,0 L1.01831055,1.5 C1.01831055,1.77614237 1.24216817,2 1.51831055,2 L7.51049805,2 C7.78664042,2 8.01049805,1.77614237 8.01049805,1.5 L8.01049805,0 L10.0037842,0 L10.0037842,1.5 C10.0037842,1.77614237 10.2276418,2 10.5037842,2 L16.5195312,2 C16.7956736,2 17.0195312,1.77614237 17.0195312,1.5 L17.0195312,0 Z M1.50634753,3.02880859 C1.23020516,3.02880859 1.00634753,3.25266622 1.00634753,3.52880859 L1.00634753,16.4702149 C1.00634753,16.7463573 1.23020516,16.9702149 1.50634753,16.9702149 L16.532959,16.9702149 C16.8091014,16.9702149 17.032959,16.7463573 17.032959,16.4702149 L17.032959,3.52880859 C17.032959,3.25266622 16.8091014,3.02880859 16.532959,3.02880859 L1.50634753,3.02880859 Z M3.5,0 L5.5,0 C5.77614237,-5.07265313e-17 6,0.223857625 6,0.5 C6,0.776142375 5.77614237,1 5.5,1 L3.5,1 C3.22385763,1 3,0.776142375 3,0.5 C3,0.223857625 3.22385763,5.07265313e-17 3.5,0 Z M8.5,5 L9.5,5 C9.77614237,5 10,5.22385763 10,5.5 L10,6.5 C10,6.77614237 9.77614237,7 9.5,7 L8.5,7 C8.22385763,7 8,6.77614237 8,6.5 L8,5.5 C8,5.22385763 8.22385763,5 8.5,5 Z M12.5,5 L14.5,5 C14.7761424,5 15,5.22385763 15,5.5 L15,6.5 C15,6.77614237 14.7761424,7 14.5,7 L12.5,7 C12.2238576,7 12,6.77614237 12,6.5 L12,5.5 C12,5.22385763 12.2238576,5 12.5,5 Z M3.5,5 L5.5,5 C5.77614237,5 6,5.22385763 6,5.5 L6,6.5 C6,6.77614237 5.77614237,7 5.5,7 L3.5,7 C3.22385763,7 3,6.77614237 3,6.5 L3,5.5 C3,5.22385763 3.22385763,5 3.5,5 Z M8.5,9 L9.5,9 C9.77614237,9 10,9.22385763 10,9.5 L10,10.5 C10,10.7761424 9.77614237,11 9.5,11 L8.5,11 C8.22385763,11 8,10.7761424 8,10.5 L8,9.5 C8,9.22385763 8.22385763,9 8.5,9 Z M12.5,9 L14.5,9 C14.7761424,9 15,9.22385763 15,9.5 L15,10.5 C15,10.7761424 14.7761424,11 14.5,11 L12.5,11 C12.2238576,11 12,10.7761424 12,10.5 L12,9.5 C12,9.22385763 12.2238576,9 12.5,9 Z M3.5,9 L5.5,9 C5.77614237,9 6,9.22385763 6,9.5 L6,10.5 C6,10.7761424 5.77614237,11 5.5,11 L3.5,11 C3.22385763,11 3,10.7761424 3,10.5 L3,9.5 C3,9.22385763 3.22385763,9 3.5,9 Z M8.5,13 L9.5,13 C9.77614237,13 10,13.2238576 10,13.5 L10,14.5 C10,14.7761424 9.77614237,15 9.5,15 L8.5,15 C8.22385763,15 8,14.7761424 8,14.5 L8,13.5 C8,13.2238576 8.22385763,13 8.5,13 Z M12.5,13 L14.5,13 C14.7761424,13 15,13.2238576 15,13.5 L15,14.5 C15,14.7761424 14.7761424,15 14.5,15 L12.5,15 C12.2238576,15 12,14.7761424 12,14.5 L12,13.5 C12,13.2238576 12.2238576,13 12.5,13 Z M3.5,13 L5.5,13 C5.77614237,13 6,13.2238576 6,13.5 L6,14.5 C6,14.7761424 5.77614237,15 5.5,15 L3.5,15 C3.22385763,15 3,14.7761424 3,14.5 L3,13.5 C3,13.2238576 3.22385763,13 3.5,13 Z M12.5,0 L14.5,0 C14.7761424,-5.07265313e-17 15,0.223857625 15,0.5 C15,0.776142375 14.7761424,1 14.5,1 L12.5,1 C12.2238576,1 12,0.776142375 12,0.5 C12,0.223857625 12.2238576,5.07265313e-17 12.5,0 Z" id="path-1"></path>
    </defs>
    <g id="schedule" stroke="none" stroke-width="1" fill="none" fill-rule="evenodd">
        <mask id="mask-2" fill="white">
            <use xlink:href="#path-1"></use>
        </mask>
        <use id="Combined-Shape" fill="#000000" xlink:href="#path-1"></use>
    </g>
</svg>