<?xml version="1.0" encoding="UTF-8"?>
<svg width="16px" height="16px" viewBox="0 0 16 16" version="1.1" xmlns="http://www.w3.org/2000/svg" xmlns:xlink="http://www.w3.org/1999/xlink">
    <!-- Generator: Sketch 52.4 (67378) - http://www.bohemiancoding.com/sketch -->
    <title>search</title>
    <desc>Created with Sketch.</desc>
    <defs>
        <path d="M11.4248236,10.7419763 L15.4990303,14.7938655 C15.694291,14.9880566 15.6951581,15.3037697 15.500967,15.4990303 C15.5006451,15.499354 15.5003228,15.4996772 15.5,15.5 C15.304581,15.695419 14.9878785,15.6958539 14.7919236,15.5009723 L10.7158514,11.4472278 C9.58079957,12.415452 8.10855856,13 6.5,13 C2.91061938,13 0,10.0893806 0,6.5 C0,2.91061938 2.91061938,0 6.5,0 C10.0893806,0 13,2.91061938 13,6.5 C13,8.12092798 12.4064274,9.60343385 11.4248236,10.7419763 Z M6.5,12 C9.53700356,12 12,9.53700356 12,6.5 C12,3.46299644 9.53700356,1 6.5,1 C3.46299644,1 1,3.46299644 1,6.5 C1,9.53700356 3.46299644,12 6.5,12 Z" id="path-1"></path>
    </defs>
    <g id="search" stroke="none" stroke-width="1" fill="none" fill-rule="evenodd">
        <mask id="mask-2" fill="white">
            <use xlink:href="#path-1"></use>
        </mask>
        <use id="Combined-Shape" fill="#000000" fill-rule="nonzero" xlink:href="#path-1"></use>
    </g>
</svg>