<svg id="图层_1" data-name="图层 1" xmlns="http://www.w3.org/2000/svg" viewBox="0 0 16 16"><defs><style>.cls-1{fill-rule:evenodd;}</style></defs><title>ERP</title><path id="Service" class="cls-1" d="M14.75,6.74a6.76,6.76,0,0,0-13.5,0A2.21,2.21,0,0,0,0,8.72v1.67a2.2,2.2,0,0,0,4.39,0V8.72a2.2,2.2,0,0,0-2-2.18,5.68,5.68,0,0,1,11.32,0,2.2,2.2,0,0,0-2.05,2.18v1.67a2.19,2.19,0,0,0,.6,1.5,5.9,5.9,0,0,1-2.1,1.31,1.57,1.57,0,0,0-1.28-.66H7.59a1.58,1.58,0,1,0,0,3.15H8.83a1.57,1.57,0,0,0,1.57-1.45,7.17,7.17,0,0,0,2.74-1.76,2.51,2.51,0,0,0,.66.1A2.19,2.19,0,0,0,16,10.39V8.72A2.21,2.21,0,0,0,14.75,6.74Zm-2.07,2a1.13,1.13,0,0,1,2.25,0v1.67a1.13,1.13,0,0,1-2.25,0Zm-11.61,0a1.13,1.13,0,0,1,2.25,0v1.67a1.13,1.13,0,0,1-2.25,0Zm8.26,5.4a.51.51,0,0,1-.5.5H7.59a.5.5,0,0,1,0-1H8.83A.5.5,0,0,1,9.33,14.12Z"/></svg>