<svg xmlns="http://www.w3.org/2000/svg" width="16" height="16" viewBox="0 0 16 16">
  <path fill="#333" fill-rule="evenodd" d="M12.8999819,7 C12.7703987,6.36162534 12.5191928,5.7674156 12.1716035,5.2426101 L13.6568542,3.75735931 L12.2426407,2.34314575 L10.7573899,3.82839654 C10.2325844,3.48080724 9.63837466,3.22960133 9,3.10001812 L9,1 L7,1 L7,3.10001812 C6.36162534,3.22960133 5.7674156,3.48080724 5.2426101,3.82839654 L3.75735931,2.34314575 L2.34314575,3.75735931 L3.82839654,5.2426101 C3.48080724,5.7674156 3.22960133,6.36162534 3.10001812,7 L1,7 L1,9 L3.10001812,9 C3.22960133,9.63837466 3.48080724,10.2325844 3.82839654,10.7573899 L2.34314575,12.2426407 L3.75735931,13.6568542 L5.2426101,12.1716035 C5.7674156,12.5191928 6.36162534,12.7703987 7,12.8999819 L7,15 L9,15 L9,12.8999819 C9.63837466,12.7703987 10.2325844,12.5191928 10.7573899,12.1716035 L12.2426407,13.6568542 L13.6568542,12.2426407 L12.1716035,10.7573899 C12.5191928,10.2325844 12.7703987,9.63837466 12.8999819,9 L15,9 L15,7 L12.8999819,7 Z M13.6585886,6 L15,6 C15.5522847,6 16,6.44771525 16,7 L16,9 C16,9.55228475 15.5522847,10 15,10 L13.6585886,10 C13.5876416,10.2007276 13.5063165,10.3965528 13.415258,10.5868309 L14.363961,11.5355339 C14.7544853,11.9260582 14.7544853,12.5592232 14.363961,12.9497475 L12.9497475,14.363961 C12.5592232,14.7544853 11.9260582,14.7544853 11.5355339,14.363961 L10.5868309,13.415258 C10.3965528,13.5063165 10.2007276,13.5876416 10,13.6585886 L10,15 C10,15.5522847 9.55228475,16 9,16 L7,16 C6.44771525,16 6,15.5522847 6,15 L6,13.6585886 C5.79927239,13.5876416 5.60344719,13.5063165 5.4131691,13.415258 L4.46446609,14.363961 C4.0739418,14.7544853 3.44077682,14.7544853 3.05025253,14.363961 L1.63603897,12.9497475 C1.24551468,12.5592232 1.24551468,11.9260582 1.63603897,11.5355339 L2.58474197,10.5868309 C2.49368353,10.3965528 2.41235844,10.2007276 2.34141142,10 L1,10 C0.44771525,10 1.21777588e-15,9.55228475 1.21777588e-15,9 L1.21777588e-15,7 C1.21777588e-15,6.44771525 0.44771525,6 1,6 L2.34141142,6 C2.41235844,5.79927239 2.49368353,5.60344719 2.58474197,5.4131691 L1.63603897,4.46446609 C1.24551468,4.0739418 1.24551468,3.44077682 1.63603897,3.05025253 L3.05025253,1.63603897 C3.44077682,1.24551468 4.0739418,1.24551468 4.46446609,1.63603897 L5.4131691,2.58474197 C5.60344719,2.49368353 5.79927239,2.41235844 6,2.34141142 L6,1 C6,0.44771525 6.44771525,1.01453063e-16 7,0 L9,0 C9.55228475,-1.01453063e-16 10,0.44771525 10,1 L10,2.34141142 C10.2007276,2.41235844 10.3965528,2.49368353 10.5868309,2.58474197 L11.5355339,1.63603897 C11.9260582,1.24551468 12.5592232,1.24551468 12.9497475,1.63603897 L14.363961,3.05025253 C14.7544853,3.44077682 14.7544853,4.0739418 14.363961,4.46446609 L13.415258,5.4131691 C13.5063165,5.60344719 13.5876416,5.79927239 13.6585886,6 Z M8,11 C6.34314575,11 5,9.65685425 5,8 C5,6.34314575 6.34314575,5 8,5 C9.65685425,5 11,6.34314575 11,8 C11,9.65685425 9.65685425,11 8,11 Z M8,10 C9.1045695,10 10,9.1045695 10,8 C10,6.8954305 9.1045695,6 8,6 C6.8954305,6 6,6.8954305 6,8 C6,9.1045695 6.8954305,10 8,10 Z"/>
</svg>
