<svg xmlns="http://www.w3.org/2000/svg" width="16" height="16" viewBox="0 0 16 16">
  <path fill="#333" d="M11.5387318,4.05046178 L7.59397168,6.24199519 C7.854008,6.77260007 8,7.36925091 8,8 C8,8.63074909 7.854008,9.22739993 7.59397168,9.75800481 L11.5387318,11.9495382 C11.9966276,11.3711048 12.7049757,11 13.5,11 C14.8807119,11 16,12.1192881 16,13.5 C16,14.8807119 14.8807119,16 13.5,16 C12.1192881,16 11,14.8807119 11,13.5 C11,13.2725271 11.0303805,13.0521499 11.0873054,12.8427047 L7.04324867,10.5960065 C6.30958486,11.4552433 5.2184098,12 4,12 C1.790861,12 0,10.209139 0,8 C0,5.790861 1.790861,4 4,4 C5.2184098,4 6.30958486,4.54475667 7.04324867,5.40399351 L11.0873054,3.15729534 C11.0303805,2.94785009 11,2.72747292 11,2.5 C11,1.11928813 12.1192881,0 13.5,0 C14.8807119,0 16,1.11928813 16,2.5 C16,3.88071187 14.8807119,5 13.5,5 C12.7049757,5 11.9966276,4.62889521 11.5387318,4.05046178 Z M4,11 C5.65685425,11 7,9.65685425 7,8 C7,6.34314575 5.65685425,5 4,5 C2.34314575,5 1,6.34314575 1,8 C1,9.65685425 2.34314575,11 4,11 Z M13.5,15 C14.3284271,15 15,14.3284271 15,13.5 C15,12.6715729 14.3284271,12 13.5,12 C12.6715729,12 12,12.6715729 12,13.5 C12,14.3284271 12.6715729,15 13.5,15 Z M13.5,4 C14.3284271,4 15,3.32842712 15,2.5 C15,1.67157288 14.3284271,1 13.5,1 C12.6715729,1 12,1.67157288 12,2.5 C12,3.32842712 12.6715729,4 13.5,4 Z"/>
</svg>
