<svg xmlns="http://www.w3.org/2000/svg" width="16" height="16" viewBox="0 0 16 16">
  <path fill="#333" fill-rule="evenodd" d="M8.44062736,9.57309082 C8.15897691,10.1207273 8,10.7417981 8,11.4 C8,11.7643039 8.04870162,12.1172329 8.13994939,12.4526316 L2.04,12.4526316 C0.884,12.4526316 0,11.5768421 0,10.4315789 L0,5.04210526 L6.8,1 L13.6,5.04210526 L13.6,7.73283495 C13.1100301,7.518758 12.5688838,7.4 12,7.4 C11.4197202,7.4 10.8683002,7.52356366 10.3706161,7.74581489 C10.3900131,7.63442629 10.4,7.5191046 10.4,7.4 L9.6,7.4 C9.6,8.30885178 8.51426898,9 6.8,9 C5.08573102,9 4,8.30885178 4,7.4 L3.2,7.4 C3.2,8.9 4.784,9.8 6.8,9.8 C7.39424518,9.8 7.95095557,9.72180251 8.44062736,9.57309082 Z M3.73333333,5 C3.41333333,5 3.2,5.21333333 3.2,5.53333333 L3.2,6.06666667 C3.2,6.38666667 3.41333333,6.6 3.73333333,6.6 L4.26666667,6.6 C4.58666667,6.6 4.8,6.38666667 4.8,6.06666667 L4.8,5.53333333 C4.8,5.21333333 4.58666667,5 4.26666667,5 L3.73333333,5 Z M9.33333333,5 C9.01333333,5 8.8,5.21333333 8.8,5.53333333 L8.8,6.06666667 C8.8,6.38666667 9.01333333,6.6 9.33333333,6.6 L9.86666667,6.6 C10.1866667,6.6 10.4,6.38666667 10.4,6.06666667 L10.4,5.53333333 C10.4,5.21333333 10.1866667,5 9.86666667,5 L9.33333333,5 Z M12.4,15.4 C10.4117749,15.4 8.8,13.7882251 8.8,11.8 C8.8,9.8117749 10.4117749,8.2 12.4,8.2 C14.3882251,8.2 16,9.8117749 16,11.8 C16,13.7882251 14.3882251,15.4 12.4,15.4 Z M10.8805515,11.5016094 L10.5594485,11.8583906 L11.928697,13.0907143 L14.2497056,10.7697056 L13.9102944,10.4302944 L11.911303,12.4292857 L10.8805515,11.5016094 Z"/>
</svg>