<?xml version="1.0" encoding="UTF-8"?>
<svg width="18px" height="18px" viewBox="0 0 18 18" version="1.1" xmlns="http://www.w3.org/2000/svg" xmlns:xlink="http://www.w3.org/1999/xlink">
    <!-- Generator: Sketch 52.4 (67378) - http://www.bohemiancoding.com/sketch -->
    <title>staff</title>
    <desc>Created with Sketch.</desc>
    <defs>
        <path d="M17,4 L15.9876811,4 L15.9964782,1.98104181 C15.9964846,1.97958941 15.9964877,1.97813699 15.9964877,1.97668457 C15.9964877,1.42439982 15.5487725,0.97668457 14.9964877,0.97668457 L1.93539705,0.97668457 C1.93394463,0.97668457 1.93249221,0.976687735 1.93103981,0.976694063 C1.3787603,0.979100501 0.933000104,1.4287623 0.935406541,1.98104181 L0.996394126,15.9777459 C0.998793152,16.5283246 1.44580073,16.9733887 1.99638463,16.9733887 L4,16.9733887 L4,18 L2,18 C0.8954305,18 2.09738034e-15,17.1045695 3.94430453e-31,16 L3.94430453e-31,1.99989086 C-1.3527075e-16,0.895321358 0.8954305,-0.000109142276 2,-0.000109142276 L15,-0.000109142276 C16.1045695,-0.000109142276 17,0.895321358 17,1.99989086 L17,4 Z M3.5,3 L8.5,3 C8.77614237,3 9,3.22385763 9,3.5 C9,3.77614237 8.77614237,4 8.5,4 L3.5,4 C3.22385763,4 3,3.77614237 3,3.5 C3,3.22385763 3.22385763,3 3.5,3 Z M3.5,9 L6.5,9 C6.77614237,9 7,9.22385763 7,9.5 C7,9.77614237 6.77614237,10 6.5,10 L3.5,10 C3.22385763,10 3,9.77614237 3,9.5 C3,9.22385763 3.22385763,9 3.5,9 Z M3.5,6 L6.5,6 C6.77614237,6 7,6.22385763 7,6.5 C7,6.77614237 6.77614237,7 6.5,7 L3.5,7 C3.22385763,7 3,6.77614237 3,6.5 C3,6.22385763 3.22385763,6 3.5,6 Z M8.01827368,7.59667969 C8.01827368,6.01129838 9.88969746,3.977125 12.0048894,3.977125 C14.1208914,3.977125 16.0093384,6.01129838 16.0093384,7.59667969 L16.0093384,9.58337402 C16.0093384,10.7337273 15.4597083,12.12789 14.1327515,13.1721191 L17.0424524,14.8432131 C17.0424524,14.8432131 18,15.2369256 18,15.8007607 L18,17.0993652 C18,17.6283657 17.5706428,18.057723 17.0424524,18.057723 L6.95673752,18.057723 C6.42935723,18.057723 6,17.6283657 6,17.0993652 L6,15.8007607 C6,15.2685198 6.95673752,14.8432131 6.95673752,14.8432131 L9.91265869,13.1721191 C8.55561184,11.9075928 8.01827368,10.6292234 8.01827368,9.58337402 L8.01827368,7.59667969 Z M15.0139771,7.49079687 C15.0139771,6.65719576 13.6531834,4.98638916 12.0151451,4.98638916 C10.4070807,4.98638916 9,6.78252117 9,7.59667969 L9,9.58337402 C9,10.4850242 9.65850799,11.639788 10.6087646,12.4020996 C10.9052642,12.6394612 11.0552648,12.8705892 11.0212402,13.2497197 C10.9872157,13.6280401 10.6522459,13.8412742 10.3184814,14.0211182 L7.22100987,15.6966511 C7.05992442,15.783788 6.9593689,15.9520213 6.95890448,16.1351637 L6.95800867,16.4884193 C6.9580076,16.4888412 6.95800706,16.4892631 6.95800706,16.4896851 C6.95800587,16.7658274 7.18186253,16.989686 7.4580049,16.9896872 L16.5424588,16.9897298 C16.8186012,16.9897291 17.0424583,16.7658709 17.0424575,16.4897285 L17.0424531,16.1332054 C17.0424527,15.9511019 16.9434468,15.7833985 16.7840033,15.6954242 L13.7495117,14.0211182 C13.4149371,13.8388439 13.0425362,13.6288502 13.0101318,13.2497197 C12.9785376,12.8697791 13.2828693,12.5746086 13.5817992,12.3388672 C14.5604096,11.5692646 15.0139771,10.3661797 15.0139771,9.47749121 L15.0139771,7.49079687 Z" id="path-1"></path>
    </defs>
    <g id="staff" stroke="none" stroke-width="1" fill="none" fill-rule="evenodd">
        <mask id="mask-2" fill="white">
            <use xlink:href="#path-1"></use>
        </mask>
        <use id="Combined-Shape" fill="#000000" xlink:href="#path-1"></use>
    </g>
</svg>