<svg xmlns="http://www.w3.org/2000/svg" width="16" height="16" viewBox="0 0 16 16">
  <path fill="#333" fill-rule="evenodd" d="M8.24986921,14.8417343 L10.1929221,10.6951722 C10.2319691,10.6113845 10.3100631,10.5536641 10.3993134,10.5406304 L14.7669988,9.87219045 C14.9882651,9.83867536 15.0775153,9.56869265 14.9213274,9.40856497 L11.745505,6.148291 C11.6841455,6.08498471 11.6562548,5.99747307 11.6711298,5.91182338 L12.4186009,1.32025535 C12.448351,1.14337013 12.307038,1 12.1471313,1 C12.1025061,1 12.057881,1.0111717 12.0151152,1.03537704 L8.13272823,3.18406703 C8.09182185,3.20641043 8.04533733,3.21758213 8.00071219,3.21758213 C7.95608705,3.21758213 7.90960253,3.20641043 7.86869616,3.18406703 L3.98630914,1.03537704 C3.94354338,1.0111717 3.89705886,1 3.85429311,1 C3.69624574,1 3.5549328,1.14150818 3.58282351,1.32025535 L4.33029458,5.91182338 C4.34516963,5.99747307 4.31727891,6.08498471 4.25591935,6.148291 L1.07823764,9.40856497 C0.922049653,9.56869265 1.01315931,9.83867536 1.23256624,9.87219045 L5.60211102,10.5406304 C5.69322067,10.5536641 5.76945528,10.6132464 5.80850228,10.6951722 L7.75155517,14.8417343 C7.80175845,14.9478654 7.90216501,15 8.00071219,15 C8.09925937,15 8.19966593,14.9478654 8.24986921,14.8417343 Z M7.19952282,15.7569649 C6.93732293,15.5982181 6.73041689,15.3681243 6.60020878,15.0898713 L4.96636455,11.6117095 L1.31518646,11.0534199 C0.739060171,10.96602 0.266386896,10.568261 0.080884931,10.0153224 C-0.104617034,9.46238386 0.0345094398,8.86128615 0.441186824,8.44390673 L3.12918164,5.68813235 L2.49419414,1.79972579 C2.42106356,1.35024026 2.54770432,0.895403713 2.84201033,0.549371203 C3.1381,0.201555019 3.56796513,0.00178367274 4.02280168,0.00178367274 C4.2832179,0.00178367274 4.54185044,0.0695632367 4.77194423,0.196204001 L8.00039188,1.97987674 L11.2288395,0.194420328 C11.4589333,0.067779564 11.7175659,0 11.9779821,0 C12.4328186,0 12.8626838,0.199771346 13.1587734,0.54758753 C13.4530794,0.893620041 13.5797202,1.34845659 13.5065896,1.79794212 L12.8716021,5.68634868 L15.5595969,8.44212306 C15.9662743,8.85950248 16.1036171,9.46060019 15.9198988,10.0135387 C15.7343969,10.5664773 15.2617236,10.9642363 14.6855973,11.0516363 L11.0344192,11.6117095 L9.40057498,15.0898713 C9.27036687,15.3681243 9.06346083,15.5982181 8.80126094,15.7569649 C8.56046512,15.9032261 8.28399584,15.979924 8.00039188,15.979924 C7.71678791,15.979924 7.44031864,15.9032261 7.19952282,15.7569649 Z" transform="matrix(1 0 0 -1 0 15.98)"/>
</svg>
