<svg xmlns="http://www.w3.org/2000/svg" width="16" height="16" viewBox="0 0 16 16">
  <path fill="#333" fill-rule="evenodd" d="M7.19952282,15.7569649 C6.93732293,15.5982181 6.73041689,15.3681243 6.60020878,15.0898713 L4.96636455,11.6117095 L1.31518646,11.0534199 C0.739060171,10.96602 0.266386896,10.568261 0.080884931,10.0153224 C-0.104617034,9.46238386 0.0345094398,8.86128615 0.441186824,8.44390673 L3.12918164,5.68813235 L2.49419414,1.79972579 C2.42106356,1.35024026 2.54770432,0.895403713 2.84201033,0.549371203 C3.1381,0.201555019 3.56796513,0.00178367274 4.02280168,0.00178367274 C4.2832179,0.00178367274 4.54185044,0.0695632367 4.77194423,0.196204001 L8.00039188,1.97987674 L11.2288395,0.194420328 C11.4589333,0.067779564 11.7175659,0 11.9779821,0 C12.4328186,0 12.8626838,0.199771346 13.1587734,0.54758753 C13.4530794,0.893620041 13.5797202,1.34845659 13.5065896,1.79794212 L12.8716021,5.68634868 L15.5595969,8.44212306 C15.9662743,8.85950248 16.1036171,9.46060019 15.9198988,10.0135387 C15.7343969,10.5664773 15.2617236,10.9642363 14.6855973,11.0516363 L11.0344192,11.6117095 L9.40057498,15.0898713 C9.27036687,15.3681243 9.06346083,15.5982181 8.80126094,15.7569649 C8.56046512,15.9032261 8.28399584,15.979924 8.00039188,15.979924 C7.71678791,15.979924 7.44031864,15.9032261 7.19952282,15.7569649 Z" transform="matrix(1 0 0 -1 0 15.98)"/>
</svg>
