<?xml version="1.0" encoding="UTF-8"?>
<svg width="18px" height="18px" viewBox="0 0 18 18" version="1.1" xmlns="http://www.w3.org/2000/svg" xmlns:xlink="http://www.w3.org/1999/xlink">
    <!-- Generator: Sketch 52.4 (67378) - http://www.bohemiancoding.com/sketch -->
    <title>student</title>
    <desc>Created with Sketch.</desc>
    <defs>
        <path d="M13.3175057,5.38987846 C13.5035616,6.45254145 13.5737314,7.31961158 13.5280151,7.99108887 C13.4380493,9.3125 12.8979408,10.9345306 11.5709839,11.9787598 L17.0424524,14.5619631 C17.0424524,14.5619631 18,14.9556756 18,15.5195107 L18,17.0416423 C18,17.5706428 17.5706428,18 17.0424524,18 L0.956737519,18 C0.429357227,18 -1.11022302e-16,17.5706428 -1.11022302e-16,17.0416423 L-1.11022302e-16,15.5195107 C-1.11022302e-16,14.9872698 0.956737519,14.5619631 0.956737519,14.5619631 L6.54858398,11.9787598 C5.42828369,11.2109376 4.61151123,9.76391602 4.54077148,7.99108887 C4.50693784,7.1431752 4.5573794,6.27688167 4.69209615,5.39220827 L1.81532899,4.62993052 C1.44021015,4.53053258 1.14521997,4.24083371 1.03904937,3.86757522 C0.872839807,3.28324081 1.21179696,2.67480471 1.79613137,2.50859514 L8.28871907,0.661826944 C8.75367575,0.529573482 9.24629592,0.529560883 9.71125937,0.661790562 L16.2051823,2.50857951 C16.5784837,2.61474167 16.8682154,2.90976442 16.9676053,3.28492569 C17.123184,3.87217996 16.7732419,4.4743651 16.1859876,4.62994385 L13.3175057,5.38987846 Z M9.38301036,1.75626716 C9.13264543,1.68506656 8.86738841,1.68507334 8.61702712,1.75628675 L2.47460196,3.50345381 L8.64145707,5.13752989 C8.87644165,5.19979545 9.1235898,5.1998014 9.35857738,5.13754715 L15.5266976,3.50345353 L9.38301036,1.75626716 Z M12.4761963,7.9831543 C12.5104167,7.30143229 12.4364014,6.40922038 12.2541504,5.30651855 L9,6.26220703 L5.79547119,5.47106934 C5.6704305,6.21407064 5.61802165,7.05143229 5.63824463,7.9831543 C5.6685791,9.3807373 6.28341692,10.2170162 7.23367357,10.9793279 C7.53017309,11.2166895 7.68814415,11.5869088 7.65411961,11.9660394 C7.62009508,12.3443598 7.3989356,12.6805546 7.06517111,12.8603986 L1.25380394,15.5554465 C1.07752869,15.637195 0.964578087,15.8136656 0.964162504,16.0079736 L0.962994967,16.5538623 C0.962994205,16.5542187 0.962993823,16.5545752 0.962993823,16.5549316 C0.962993823,16.831074 1.18685145,17.0549316 1.46299382,17.0549316 L16.5588379,17.0549316 C16.8349803,17.0549316 17.0588379,16.831074 17.0588379,16.5549316 L17.0588379,16.0079454 C17.0588379,15.8136519 16.946282,15.6369508 16.7702022,15.5548173 L11.0112071,12.8684997 C10.6766325,12.6862254 10.4562831,12.3476002 10.4238788,11.9684697 C10.3922846,11.5885291 10.5543062,11.2174996 10.853236,10.9817582 C11.8318464,10.2121556 12.4248657,9.0057373 12.4761963,7.9831543 Z" id="path-1"></path>
    </defs>
    <g id="student" stroke="none" stroke-width="1" fill="none" fill-rule="evenodd">
        <mask id="mask-2" fill="white">
            <use xlink:href="#path-1"></use>
        </mask>
        <use id="Combined-Shape" fill="#000000" fill-rule="nonzero" xlink:href="#path-1"></use>
    </g>
</svg>