<svg xmlns="http://www.w3.org/2000/svg" width="16" height="16" viewBox="0 0 16 16">
  <path fill="#333" d="M8.5,11 C9.88071187,11 11,9.88071187 11,8.5 C11,7.11928813 9.88071187,6 8.5,6 C7.11928813,6 6,7.11928813 6,8.5 C6,9.88071187 7.11928813,11 8.5,11 Z M8.5,12 C6.56700338,12 5,10.4329966 5,8.5 C5,6.56700338 6.56700338,5 8.5,5 C10.4329966,5 12,6.56700338 12,8.5 C12,10.4329966 10.4329966,12 8.5,12 Z M8.5,4 C8.22385763,4 8,3.77614237 8,3.5 L8,1.5 L8,1.5 C8,1.22385763 8.22385763,1 8.5,1 L8.5,1 C8.77614237,1 9,1.22385763 9,1.5 L9,3.5 C9,3.77614237 8.77614237,4 8.5,4 Z M8.5,16 C8.22385763,16 8,15.7761424 8,15.5 L8,13.5 L8,13.5 C8,13.2238576 8.22385763,13 8.5,13 L8.5,13 C8.77614237,13 9,13.2238576 9,13.5 L9,15.5 C9,15.7761424 8.77614237,16 8.5,16 Z M13,8.5 C13,8.22385763 13.2238576,8 13.5,8 L15.5,8 L15.5,8 C15.7761424,8 16,8.22385763 16,8.5 L16,8.5 C16,8.77614237 15.7761424,9 15.5,9 L13.5,9 C13.2238576,9 13,8.77614237 13,8.5 Z M1,8.5 L1,8.5 C1,8.22385763 1.22385763,8 1.5,8 L3.5,8 L3.5,8 C3.77614237,8 4,8.22385763 4,8.5 L4,8.5 C4,8.77614237 3.77614237,9 3.5,9 L1.5,9 L1.5,9 C1.22385763,9 1,8.77614237 1,8.5 L1,8.5 Z M11.6819805,5.31801948 C11.4867184,5.12275734 11.4867184,4.80617485 11.6819805,4.6109127 L13.0961941,3.19669914 L13.0961941,3.19669914 C13.2914562,3.001437 13.6080387,3.001437 13.8033009,3.19669914 L13.8033009,3.19669914 C13.998563,3.39196129 13.998563,3.70854378 13.8033009,3.90380592 L12.3890873,5.31801948 C12.1938252,5.51328163 11.8772427,5.51328163 11.6819805,5.31801948 Z M3.19669914,13.8033009 L3.19669914,13.8033009 C3.001437,13.6080387 3.001437,13.2914562 3.19669914,13.0961941 L4.6109127,11.6819805 L4.6109127,11.6819805 C4.80617485,11.4867184 5.12275734,11.4867184 5.31801948,11.6819805 L5.31801948,11.6819805 C5.51328163,11.8772427 5.51328163,12.1938252 5.31801948,12.3890873 L3.90380592,13.8033009 C3.70854378,13.998563 3.39196129,13.998563 3.19669914,13.8033009 L3.19669914,13.8033009 Z M11.6819805,11.6819805 C11.8772427,11.4867184 12.1938252,11.4867184 12.3890873,11.6819805 L13.8033009,13.0961941 C13.998563,13.2914562 13.998563,13.6080387 13.8033009,13.8033009 L13.8033009,13.8033009 C13.6080387,13.998563 13.2914562,13.998563 13.0961941,13.8033009 L11.6819805,12.3890873 C11.4867184,12.1938252 11.4867184,11.8772427 11.6819805,11.6819805 Z M3.19669914,3.19669914 C3.39196129,3.001437 3.70854378,3.001437 3.90380592,3.19669914 L5.31801948,4.6109127 L5.31801948,4.6109127 C5.51328163,4.80617485 5.51328163,5.12275734 5.31801948,5.31801948 L5.31801948,5.31801948 C5.12275734,5.51328163 4.80617485,5.51328163 4.6109127,5.31801948 L3.19669914,3.90380592 C3.001437,3.70854378 3.001437,3.39196129 3.19669914,3.19669914 Z"/>
</svg>
