<svg xmlns="http://www.w3.org/2000/svg" width="16" height="16" viewBox="0 0 16 16">
  <path fill="#333" fill-rule="evenodd" d="M14.3431458,10 L11.4038059,12.9393398 C11.2085438,13.134602 11.2085438,13.4511845 11.4038059,13.6464466 C11.5990681,13.8417088 11.9156506,13.8417088 12.1109127,13.6464466 L15.6464466,10.1109127 C15.7008874,10.0564719 15.7401497,9.99260026 15.7642333,9.92455664 C15.9057994,9.83626286 16,9.67913229 16,9.5 C16,9.22385763 15.7761424,9 15.5,9 L0.5,9 C0.223857625,9 0,9.22385763 0,9.5 L0,9.5 C1.77635684e-15,9.77614237 0.223857625,10 0.5,10 L0.5,10 L14.3431458,10 Z M1.65685425,6.00289326 L4.59619408,3.06355343 C4.79145622,2.86829128 4.79145622,2.55170879 4.59619408,2.35644665 L4.59619408,2.35644665 L4.59619408,2.35644665 C4.40093193,2.1611845 4.08434944,2.1611845 3.8890873,2.35644665 L3.8890873,2.35644665 L0.353553391,5.89198055 C0.299112552,5.94642139 0.259850307,6.010293 0.235766658,6.07833661 C0.0942005737,6.1666304 -2.19373788e-17,6.32376096 0,6.50289326 C3.38176876e-17,6.77903563 0.223857625,7.00289326 0.5,7.00289326 L15.5,7.00289326 C15.7761424,7.00289326 16,6.77903563 16,6.50289326 L16,6.50289326 C16,6.22675088 15.7761424,6.00289326 15.5,6.00289326 L15.5,6.00289326 L1.65685425,6.00289326 Z"/>
</svg>
