<svg xmlns="http://www.w3.org/2000/svg" width="16" height="16" viewBox="0 0 16 16">
  <path fill="#333" fill-rule="evenodd" d="M10,2.70710678 L10,14.5 C10,14.7761424 9.77614237,15 9.5,15 C9.22385763,15 9,14.7761424 9,14.5 L9,1.5 L9,1.5 C9,1.29289322 9.12591991,1.11519661 9.30537744,1.03929248 C9.49241748,0.963388348 9.70710678,1 9.85355339,1.14644661 L12.8535534,4.14644661 C13.0488155,4.34170876 13.0488155,4.65829124 12.8535534,4.85355339 C12.6582912,5.04881554 12.3417088,5.04881554 12.1464466,4.85355339 L10,2.70710678 Z M6.69462256,14.9607075 C6.87408009,14.8848034 7,14.7071068 7,14.5 L7,1.5 C7,1.22385763 6.77614237,1 6.5,1 C6.22385763,1 6,1.22385763 6,1.5 L6,1.5 L6,13.2928932 L3.85355339,11.1464466 C3.65829124,10.9511845 3.34170876,10.9511845 3.14644661,11.1464466 C2.95118446,11.3417088 2.95118446,11.6582912 3.14644661,11.8535534 L6.14644661,14.8535534 C6.29289322,15 6.50758252,15.0366117 6.68815048,14.9633883 Z"/>
</svg>
