<?xml version="1.0" encoding="UTF-8"?>
<svg width="16px" height="16px" viewBox="0 0 16 16" version="1.1" xmlns="http://www.w3.org/2000/svg" xmlns:xlink="http://www.w3.org/1999/xlink">
    <!-- Generator: Sketch 52.4 (67378) - http://www.bohemiancoding.com/sketch -->
    <title>sync</title>
    <desc>Created with Sketch.</desc>
    <defs>
        <path d="M4.62308859,15.242567 C3.38774715,14.6665178 2.36862856,13.8151696 1.60471895,12.7956358 L2.40499794,12.196008 C3.08895322,13.1088326 3.98733305,13.8427314 5.04570685,14.3362592 L4.62308859,15.242567 Z M13.2721786,3.38097868 C12.640064,2.66036037 11.8617252,2.07369167 10.9697453,1.65775461 C7.4659655,0.0239152655 3.30110229,1.5398015 1.66726295,5.04358129 C1.35151119,5.72071311 1.1487471,6.43171821 1.0604248,7.15694165 L0.0677592716,7.03604855 C0.16710543,6.22030709 0.394834284,5.40611178 0.760955161,4.62096303 C2.62820013,0.616643272 7.3880438,-1.11579814 11.3923636,0.751446825 C12.4086908,1.22536801 13.2786674,1.88562566 13.9805838,2.67257341 L15.12602,1.52713727 C15.2010345,1.45212271 15.3027761,1.40997998 15.4088627,1.40997998 C15.6297766,1.40997998 15.8088627,1.58906608 15.8088627,1.80997998 L15.8088627,5.50911505 C15.8088627,5.52018359 15.8082501,5.53124366 15.8070278,5.54224451 C15.7887309,5.70691656 15.6404053,5.82557706 15.4757332,5.80728017 L12.1360224,5.43620118 C12.0457493,5.42617084 11.9615778,5.38571592 11.8973523,5.3214904 C11.7411425,5.16528069 11.7411425,4.91201469 11.8973523,4.75580498 L13.2721784,3.38097884 Z M15.254497,11.3730508 C13.387252,15.3773705 8.62740835,17.1098119 4.62308859,15.242567 L5.04570685,14.3362592 C8.54948664,15.9700985 12.7143498,14.4542123 14.3481892,10.9504325 C14.6639409,10.2733007 14.866705,9.56229558 14.9550273,8.83707215 L15.9476929,8.95796524 C15.8483467,9.7737067 15.6206179,10.587902 15.254497,11.3730508 Z M0.206589453,10.4848987 C0.206589453,10.4738302 0.207202016,10.4627701 0.208424332,10.4517693 C0.226721227,10.2870972 0.375046862,10.1684367 0.539718911,10.1867336 L3.87942978,10.5578126 C3.96970284,10.5678429 4.05387436,10.6082979 4.11809988,10.6725234 C4.27430959,10.8287331 4.27430959,11.0819991 4.11809988,11.2382088 L0.889432165,14.4668765 C0.814417614,14.5418911 0.712676049,14.5840338 0.606589453,14.5840338 C0.385675553,14.5840338 0.206589453,14.4049477 0.206589453,14.1840338 L0.206589453,10.4848987 Z" id="path-1"></path>
    </defs>
    <g id="sync" stroke="none" stroke-width="1" fill="none" fill-rule="evenodd">
        <mask id="mask-2" fill="white">
            <use xlink:href="#path-1"></use>
        </mask>
        <use id="Combined-Shape" fill="#000000" fill-rule="nonzero" xlink:href="#path-1"></use>
    </g>
</svg>