<svg xmlns="http://www.w3.org/2000/svg" width="16" height="16" viewBox="0 0 16 16">
  <path fill="#333" d="M0.029022787,5.50704576 L0.029022787,0.029022787 L5.50704576,0.029022787 C6.05714802,0.0132215925 6.58672742,0.222766394 6.9730577,0.609096664 L15.3827561,9.01879505 C16.1649204,9.80095937 16.1561074,11.0779113 15.3630718,11.8709469 L11.8709469,15.3630718 C11.0779113,16.1561074 9.80095937,16.1649204 9.01879505,15.3827561 L0.609096664,6.9730577 C0.222766394,6.58672742 0.0132215925,6.05714802 0.029022787,5.50704576 Z M1,5 C1,5.5 1,6 1.5,6.5 L9.5,14.5 C9.90021027,14.9002103 10.6017358,14.8982642 11,14.5 L14.5,11 C14.8982642,10.6017358 14.9002103,9.90021027 14.5,9.5 L6.5,1.5 C6,1 6,1 5.5,1 L1,1 L1,5 Z M4,6 C2.8954305,6 2,5.1045695 2,4 C2,2.8954305 2.8954305,2 4,2 C5.1045695,2 6,2.8954305 6,4 C6,5.1045695 5.1045695,6 4,6 Z M4,5 C4.55228475,5 5,4.55228475 5,4 C5,3.44771525 4.55228475,3 4,3 C3.44771525,3 3,3.44771525 3,4 C3,4.55228475 3.44771525,5 4,5 Z"/>
</svg>
