<?xml version="1.0" encoding="UTF-8"?>
<svg width="18px" height="18px" viewBox="0 0 18 18" version="1.1" xmlns="http://www.w3.org/2000/svg" xmlns:xlink="http://www.w3.org/1999/xlink">
    <!-- Generator: Sketch 52.4 (67378) - http://www.bohemiancoding.com/sketch -->
    <title>teaching setting</title>
    <desc>Created with Sketch.</desc>
    <defs>
        <path d="M17.9969774,8.58160908 L17.9952365,9.30994465 C18.045156,9.96421858 17.7010242,10.5853351 17.0427569,10.9252084 L16.5079276,11.1169638 C16.1968703,11.2224145 15.9460195,11.4548762 15.8144613,11.7643648 C15.6837888,12.0590213 15.6837888,12.39476 15.8066968,12.6726117 L16.0490104,13.1765195 C16.3506386,13.8092339 16.2179333,14.562964 15.7208324,15.0529507 L15.1667756,15.6050249 C14.6735809,16.1018155 13.9198163,16.2335847 13.289303,15.9351328 L12.7862393,15.6996989 C12.4933464,15.5700169 12.1588854,15.5700169 11.8535516,15.7050404 C11.5480163,15.8321632 11.3116129,16.0827618 11.1996704,16.4042095 L11.0117808,16.9138449 C10.7752472,17.5657603 10.1549817,17.9997172 9.46036754,18.0000117 L8.68331661,18.0000116 C7.98895709,17.9997172 7.36869156,17.5657603 7.13187889,16.913074 L6.93940995,16.3800632 C6.83384868,16.0708904 6.6006509,15.8210318 6.28776904,15.6889398 C5.9887085,15.5560874 5.64693734,15.5560874 5.36282954,15.6820504 L4.8571358,15.9234966 C4.22412255,16.2231248 3.4703579,16.0913556 2.97946051,15.5968665 L2.42541606,15.0447798 C1.9260055,14.5525041 1.79330025,13.798774 2.09580539,13.1642279 L2.33028011,12.6771549 C2.46298863,12.3805391 2.46298863,12.0418625 2.32572384,11.7347982 C2.1979193,11.4339563 1.94706848,11.2014946 1.62604423,11.0925671 L1.10641195,10.9061375 C0.446359598,10.6762209 0.00279567747,10.0561203 -1.45516932e-12,9.35564306 L0.00041002111,8.55941845 C0.0238210274,7.92612467 0.409336526,7.36271259 1.02770117,7.09572307 L1.5625305,6.90396772 C1.87358774,6.79851701 2.12443857,6.56605533 2.25679938,6.25476494 C2.3895079,5.95814911 2.3895079,5.6194726 2.26376134,5.33785983 L2.02144766,4.83395206 C1.71981953,4.20123767 1.85252477,3.44750761 2.34962571,2.95752084 L2.9036825,2.4054467 C3.39687717,1.90865602 4.15064182,1.77688686 4.78548095,2.07738311 L5.27439607,2.31107186 C5.57345661,2.44392426 5.91522777,2.44392426 6.22469791,2.30656478 C6.52717017,2.17897987 6.76036795,1.92912123 6.86944772,1.60993358 L7.0586773,1.08616673 C7.29521084,0.434251365 7.91547635,0.000294444205 8.61009054,-9.09272657e-14 L9.38714148,5.39841781e-08 C10.081501,0.000294433352 10.7017665,0.434251356 10.9562616,1.1448677 L11.0575674,1.55718895 C11.1631287,1.86636172 11.3963265,2.11622035 11.7092083,2.24831235 C12.0082689,2.38116475 12.35004,2.38116475 12.6341478,2.25520172 L13.1398416,2.01375557 C13.7728548,1.71412734 14.5266195,1.84589651 15.0175168,2.34038565 L15.5715613,2.89247234 C16.0709719,3.38474808 16.2036771,4.13847814 15.901172,4.77302423 L15.6666972,5.26009726 C15.5339887,5.55671308 15.5339887,5.8953896 15.6712535,6.20245393 C15.7990581,6.50329582 16.0499089,6.7357575 16.3709331,6.84468503 L16.8934752,7.03213126 C17.5519211,7.26285476 17.9941858,7.88216167 17.9969774,8.58160908 Z M16.6903439,8.14473599 L16.1567394,7.95324828 C15.5052417,7.73238572 14.9790201,7.24473991 14.7151435,6.62331134 C14.4357027,5.9987352 14.4357027,5.28511727 14.7222859,4.64514925 L14.9690797,4.13194094 C15.0524082,3.95714575 15.0157837,3.74912853 14.8749911,3.61033471 L14.3018623,3.03923113 C14.1640702,2.90043443 13.9525866,2.86346397 13.777031,2.94655699 L13.2447651,3.20043764 C12.6193821,3.47825305 11.9051524,3.47825305 11.2904488,3.20506152 C10.6566162,2.9377065 10.1671342,2.4132534 9.9306798,1.71411696 L9.83064473,1.30217568 C9.76498303,1.12120402 9.59186093,1.00008245 9.39763762,1.00000006 L8.60097185,1 C8.40648728,1.00008246 8.23336518,1.12120403 8.16798984,1.30138477 L7.97775239,1.82765978 C7.755829,2.47763934 7.26634702,3.00209243 6.64319378,3.26482357 C6.01781082,3.54263898 5.3035811,3.54263898 4.66285789,3.25775567 L4.14780545,3.01183345 C3.97037659,2.92784991 3.75889296,2.96482036 3.61874412,3.10597825 L3.04560258,3.67706894 C2.90717949,3.81351446 2.870555,4.02153168 2.95298379,4.19444773 L3.2078197,4.72492706 C3.48726054,5.3495032 3.48726054,6.06312113 3.21249404,6.676978 C2.94394312,7.30912585 2.41772154,7.79677166 1.77644907,8.01406729 L1.27525318,8.19247135 C1.1129903,8.26289459 1.00605642,8.41917324 1.00000492,8.57148614 L1,9.36311556 C1.00077161,9.55611586 1.12385372,9.72818417 1.31336985,9.7942263 L1.84160877,9.98381717 C2.49310653,10.2046797 3.01932811,10.6923255 3.28320469,11.3137541 C3.56264553,11.9383303 3.56264553,12.6519482 3.27606231,13.2919162 L3.02926849,13.8051245 C2.94593999,13.9799197 2.98256447,14.1879369 3.12335705,14.3267307 L3.69648593,14.8978343 C3.83427796,15.036631 4.04576158,15.0736015 4.22131723,14.9905085 L4.75358313,14.7366278 C5.37896609,14.4588124 6.09319581,14.4588124 6.70789941,14.7320039 C7.34173202,14.999359 7.831214,15.5238121 8.04952771,16.1635172 L8.24308846,16.6992757 C8.30875016,16.8802474 8.48187226,17.0013689 8.67609557,17.0014513 L9.47276134,17.0014514 C9.66724591,17.0013689 9.84036801,16.8802474 9.90711805,16.6963 L10.0971437,16.1811485 C10.3235895,15.530275 10.817486,15.0067216 11.4420008,14.7470519 C12.0602655,14.4733075 12.765809,14.4733075 13.395668,14.7523294 L13.9259277,15.0003489 C14.1033566,15.0843325 14.3148402,15.047362 14.4549891,14.9062041 L15.0281306,14.3351134 C15.1665537,14.1986679 15.2031782,13.9906507 15.1207494,13.8177346 L14.8650901,13.2854069 C14.5899338,12.66495 14.5899338,11.9575214 14.8612391,11.3459354 C15.1297901,10.7137875 15.6560117,10.2261417 16.2972841,10.0088461 L16.7567626,9.85044067 C16.9186059,9.76524226 17.0139199,9.59321188 16.9983433,9.36557931 L16.9983482,8.5739499 C16.9975766,8.3809496 16.8744945,8.2088813 16.6903439,8.14473599 Z M8.80280377,11.9934333 C7.30136365,11.8945173 6.10548271,10.6986363 6.00656667,9.19719623 C5.90765063,7.6957561 6.93630533,6.35332102 8.41179144,6.05828277 C9.3953191,5.86161654 10.4120638,6.16948338 11.1212902,6.87870981 C11.8305166,7.58793624 12.1383835,8.6046809 11.9417172,9.58820856 C11.646679,11.0636947 10.3042439,12.0923494 8.80280377,11.9934333 Z M8.86854205,10.9955964 C9.86949161,11.0615398 10.7644389,10.3757772 10.961129,9.3921301 C11.0922385,8.73645189 10.8869961,8.05862924 10.4141834,7.58581659 C9.94137076,7.11300394 9.26354811,6.90776154 8.6078699,7.03887098 C7.62422283,7.23556108 6.93846023,8.13050839 7.00440357,9.13145795 C7.0703469,10.1324075 7.86759248,10.9296531 8.86854205,10.9955964 Z" id="path-1"></path>
    </defs>
    <g id="teaching-setting" stroke="none" stroke-width="1" fill="none" fill-rule="evenodd">
        <mask id="mask-2" fill="white">
            <use xlink:href="#path-1"></use>
        </mask>
        <use id="setting" fill="#000000" fill-rule="nonzero" xlink:href="#path-1"></use>
    </g>
</svg>