<svg xmlns="http://www.w3.org/2000/svg" width="16" height="16" viewBox="0 0 16 16">
  <path fill="#333" d="M1,7 L1,14 L3,14 L3,7 L1,7 Z M3.69221229,6.27830418 C4.75192655,5.85877204 5.69741191,5.09933731 6.52866836,4 C8.04095481,2 6.52866836,4.4408921e-16 9.55324125,0 C11.0300145,0 11.6377863,0.800158187 11.5,2.5 C11.4672487,2.90404577 11.4771078,3.4171699 11.3683988,4.0017562 C11.2596897,4.58634251 11.1632712,4.77502933 11.0655277,5 C11.2917094,5 13.9347228,5.18393058 14.5555355,5.36365294 C15.4956953,5.6358248 16.1007636,6.54842131 15.9854799,7.52037174 L15.4003458,12.453398 C15.1695222,14.3994583 13.5627887,15.8917226 11.6050027,15.9783479 C11.2787694,15.9927826 10.9309126,16 10.5614322,16 C8.26932534,16 5.96929775,15.5833647 3.66134943,14.7500941 C3.48507939,14.9056289 3.25356047,15 3,15 L1,15 C0.44771525,15 9.55813795e-16,14.5522847 8.8817842e-16,14 L0,7 C-6.76353751e-17,6.44771525 0.44771525,6 1,6 L3,6 C3.26864355,6 3.51254526,6.10593235 3.69221229,6.27830418 Z M4,13.8091814 C6.20119331,14.6040204 8.38688296,15 10.5614322,15 C10.9165976,15 11.2497722,14.9930873 11.5607993,14.9793254 C13.0291389,14.9143564 14.234189,13.7951581 14.4073072,12.3356081 L14.9924408,7.40258668 C15.0500835,6.91660442 14.7475449,6.46029956 14.2774582,6.32421166 C13.5567436,6.11556815 12.4345748,6 11.0655277,6 C10.3454719,6 9.8614209,5.26192978 10.1483536,4.60151325 C10.3799687,4.06841808 10.439962,3.67430067 10.4810744,2.79587405 C10.4891371,2.62360296 10.494653,2.52550216 10.5032691,2.41920669 C10.5973175,1.25895032 10.3968737,1 9.55324125,1 C8.52959862,1 8.5211035,1.00881499 8.35972624,1.90518551 C8.1247038,3.21061845 7.94288548,3.78771012 7.32631017,4.60313145 C6.37422659,5.86226273 5.26417976,6.7457863 4,7.23161754 L4,13.8091814 Z" transform="matrix(1 0 0 -1 0 16)"/>
</svg>
