<svg xmlns="http://www.w3.org/2000/svg" width="16" height="16" viewBox="0 0 16 16">
  <path fill="#333" d="M3.5,2 L5,2 L5,1 L5,1 C5,0.44771525 5.44771525,1.01453063e-16 6,0 L10,0 C10.5522847,-1.01453063e-16 11,0.44771525 11,1 L11,2 L12.5,2 L14.5,2 C14.7761424,2 15,2.22385763 15,2.5 C15,2.77614237 14.7761424,3 14.5,3 L14,3 L14,14 C14,15.1045695 13.1045695,16 12,16 L4,16 C2.8954305,16 2,15.1045695 2,14 L2,3 L1.5,3 C1.22385763,3 1,2.77614237 1,2.5 C1,2.22385763 1.22385763,2 1.5,2 L1.5,2 L3.5,2 Z M3,3 L3,14 C3,14.5522847 3.44771525,15 4,15 L12,15 C12.5522847,15 13,14.5522847 13,14 L13,3 L3,3 Z M6,1 L6,2 L10,2 L10,1 L6,1 Z M6.5,5 C6.77614237,5 7,5.22385763 7,5.5 L7,12.5 C7,12.7761424 6.77614237,13 6.5,13 C6.22385763,13 6,12.7761424 6,12.5 L6,5.5 C6,5.22385763 6.22385763,5 6.5,5 Z M9.5,5 C9.77614237,5 10,5.22385763 10,5.5 L10,12.5 C10,12.7761424 9.77614237,13 9.5,13 C9.22385763,13 9,12.7761424 9,12.5 L9,5.5 C9,5.22385763 9.22385763,5 9.5,5 Z"/>
</svg>
