<?xml version="1.0" encoding="UTF-8"?>
<svg width="16px" height="16px" viewBox="0 0 16 16" version="1.1" xmlns="http://www.w3.org/2000/svg" xmlns:xlink="http://www.w3.org/1999/xlink">
    <!-- Generator: Sketch 52.4 (67378) - http://www.bohemiancoding.com/sketch -->
    <title>标签_icon/tree_ico</title>
    <desc>Created with Sketch.</desc>
    <defs>
        <path d="M2,1 L14,1 C15.1045695,1 16,1.8954305 16,3 L16,12 C16,13.1045695 15.1045695,14 14,14 L2,14 C0.8954305,14 1.3527075e-16,13.1045695 0,12 L0,3 C-1.3527075e-16,1.8954305 0.8954305,1 2,1 Z M2,2 C1.44771525,2 1,2.44771525 1,3 L1,12 C1,12.5522847 1.44771525,13 2,13 L14,13 C14.5522847,13 15,12.5522847 15,12 L15,3 C15,2.44771525 14.5522847,2 14,2 L2,2 Z M3,4 L7,4 L7,8 L3,8 L3,4 Z M4,5 L4,7 L6,7 L6,5 L4,5 Z M8,4 L13,4 L13,5 L8,5 L8,4 Z M8,7 L13,7 L13,8 L8,8 L8,7 Z M3,10 L13,10 L13,11 L3,11 L3,10 Z" id="path-1"></path>
    </defs>
    <g id="标签_icon/tree_ico" stroke="none" stroke-width="1" fill="none" fill-rule="evenodd">
        <mask id="mask-2" fill="white">
            <use xlink:href="#path-1"></use>
        </mask>
        <use id="Combined-Shape" fill="#000000" fill-rule="nonzero" xlink:href="#path-1"></use>
    </g>
</svg>