<svg xmlns="http://www.w3.org/2000/svg" width="16" height="16" viewBox="0 0 16 16">
  <path fill="#333" d="M2,12 L2,14 C2,14.5522847 2.41573559,15 2.92857143,15 L14.0714286,15 C14.5842644,15 15,14.5522847 15,14 L15,12 L2,12 Z M8.145092,1.14780122 C8.23567878,1.0565233 8.36123596,1 8.49999486,1 C8.63806736,1 8.76306842,1.05596547 8.85355082,1.14644918 L11.8535534,4.14644661 L11.1464466,4.85355339 L8.99999486,2.70710164 L8.99999486,10.5 L8.99999486,10.5 C8.99999486,10.7761424 8.77613724,11 8.49999486,11 C8.22385249,11 7.99999486,10.7761424 7.99999486,10.5 L7.99999486,2.70711192 L5.85355339,4.85355339 L5.14644661,4.14644661 L8.145092,1.14780122 Z M1,12 L16,12 L16,14 C16,15.1045695 15.1605339,16 14.125,16 L2.875,16 C1.83946609,16 1,15.1045695 1,14 L1,12 Z"/>
</svg>
