<svg xmlns="http://www.w3.org/2000/svg" width="16" height="16" viewBox="0 0 16 16">
  <path fill="#333" fill-rule="evenodd" d="M8.98594919,7.56050516 L8.19072129,8.35604664 C8.12876298,8.42138446 8.04720559,8.45073274 7.96229739,8.45073274 C7.87745245,8.45073274 7.79589506,8.41815868 7.73064915,8.35604664 C7.60331848,8.22878651 7.60331848,8.02309569 7.73064915,7.89583556 L9.13059107,6.49527841 C9.19462211,6.43121924 9.27848541,6.39940563 9.3622311,6.39983767 C9.44597806,6.39940531 9.52985855,6.43126999 9.59392259,6.49543173 L10.9938968,7.89494424 C11.121104,8.02240878 11.121104,8.22843001 10.9938968,8.35589455 C10.9286494,8.42133732 10.8470902,8.45073274 10.7622432,8.45073274 C10.6773331,8.45073274 10.5957738,8.41810636 10.5304632,8.35589455 L9.73850417,7.56233316 L9.73850417,9.91644919 C9.73850417,10.1242615 9.57003901,10.2927267 9.36222668,10.2927267 C9.15441437,10.2927267 8.98594919,10.1242615 8.98594919,9.91644919 L8.98594919,7.56050516 Z M2.9298563,9.10651515 L2.9298563,4.89930482 C2.9298563,4.23500441 3.45798463,3.69461427 4.10721161,3.69461427 L13.0254869,3.69461427 L13.0254869,3.09926944 C13.0254869,2.81870639 12.7964615,2.61104845 12.5128117,2.61104845 L10.968165,2.61104845 C10.9510121,2.61104845 10.9341442,2.60962557 10.9176522,2.60689822 L8.53422137,2.60689822 C7.88499439,2.60689822 7.35680087,2.06644138 7.35680087,1.40220767 L7.35680087,1.22314466 C7.35680087,1.19973563 7.35911601,1.17685199 7.36352369,1.15472189 C7.35475952,0.773228688 7.20347144,0.680510397 6.89069018,0.680510397 L1.21014464,0.680510397 C0.923099537,0.680510397 0.691453803,0.908401945 0.691453803,1.19081079 L0.691453803,11.9935425 C0.691453803,12.2759514 0.923099537,12.5039089 1.21014464,12.5039089 L2.53005991,12.5039089 C2.75697573,12.4516149 2.92545048,12.2507669 2.92545048,12.0100772 L2.92545048,9.16063343 C2.92545048,9.1422238 2.92695776,9.12414612 2.9298563,9.10651515 Z M3.60267732,9.09651558 C3.60675061,9.11728923 3.60888498,9.13872631 3.60888498,9.16063343 L3.60888498,12.0100772 C3.60797312,12.1862422 3.56842431,12.3535383 3.49818446,12.5039089 L13.9861477,12.5039089 C14.0092841,12.4987158 14.0332929,12.4959778 14.0578974,12.4959778 C14.3369849,12.4959778 14.5624969,12.2653633 14.5624969,11.9796628 L14.5624969,4.89930482 C14.5624969,4.61367099 14.3369849,4.38298981 14.0578974,4.38298981 L4.10721161,4.38298981 C3.82799381,4.38298981 3.60267732,4.61367099 3.60267732,4.89930482 L3.60267732,9.09651558 Z M14.5660236,13.0663013 C14.5030514,13.1384997 14.4095137,13.1843533 14.3035546,13.1843533 L2.55914432,13.1843533 C2.51118214,13.1901736 2.46233539,13.1931704 2.41277529,13.1931704 L2.14283124,13.1931704 C2.11620566,13.1931704 2.09026686,13.1901194 2.06535449,13.1843533 L1.21014464,13.1843533 C0.542806642,13.1843533 0,12.6501233 0,11.9935425 L0,1.19081079 C0,0.534229997 0.542806642,0 1.21014464,0 L6.89069018,0 C7.53765606,0 7.99027406,0.50211051 8.01730568,1.13103338 C8.02532906,1.16037957 8.02962189,1.19127522 8.02962189,1.22314466 L8.02962189,1.40220767 C8.02962189,1.68790819 8.25506876,1.91845598 8.53422137,1.91845598 L10.9285017,1.91845598 C10.9415197,1.91695047 10.9547552,1.91617622 10.968165,1.91617622 L12.5128117,1.91617622 C13.1723439,1.91617622 13.7089214,2.44691452 13.7089214,3.09926944 L13.7089214,3.69461427 L14.0578974,3.69461427 C14.7071244,3.69461427 15.2352527,4.23500441 15.2352527,4.89930482 L15.2352527,11.9796628 C15.2352527,12.4578813 14.9615601,12.8718856 14.5660236,13.0663013 Z" transform="translate(0 2)"/>
</svg>
