<svg xmlns="http://www.w3.org/2000/svg" width="16" height="16" viewBox="0 0 16 16">
  <path fill="#333" d="M8,9 C10.209139,9 12,7.209139 12,5 C12,2.790861 10.209139,1 8,1 C5.790861,1 4,2.790861 4,5 C4,7.209139 5.790861,9 8,9 Z M8,10 C5.23857625,10 3,7.76142375 3,5 C3,2.23857625 5.23857625,0 8,0 C10.7614237,0 13,2.23857625 13,5 C13,7.76142375 10.7614237,10 8,10 Z M14,16 C14,12.6062446 11.130511,11 8,11 C4.869489,11 2,12.6062446 2,16 L1,16 C1,10.8571429 6.25,10 8,10 C9.75,10 15,10.8571429 15,16 L14,16 Z"/>
</svg>
