<?xml version="1.0" encoding="UTF-8"?>
<svg width="16px" height="16px" viewBox="0 0 16 16" version="1.1" xmlns="http://www.w3.org/2000/svg" xmlns:xlink="http://www.w3.org/1999/xlink">
    <!-- Generator: Sketch 52.4 (67378) - http://www.bohemiancoding.com/sketch -->
    <title>user</title>
    <desc>Created with Sketch.</desc>
    <defs>
        <path d="M8,8 C5.790861,8 4,6.209139 4,4 C4,1.790861 5.790861,0 8,0 C10.209139,0 12,1.790861 12,4 C12,6.209139 10.209139,8 8,8 Z M8,7 C9.65685425,7 11,5.65685425 11,4 C11,2.34314575 9.65685425,1 8,1 C6.34314575,1 5,2.34314575 5,4 C5,5.65685425 6.34314575,7 8,7 Z M16,14.7918074 L16,16.0021973 L0,16.0021973 L0,14.7918074 C-4.01588539e-16,11.5125882 2.25485522,8.76001855 5.29866423,8 C6.0776872,8.50110865 7.00489543,8.79180744 8,8.79180744 C8.99510457,8.79180744 9.9223128,8.50110865 10.7013358,8 C13.7451448,8.76001855 16,11.5125882 16,14.7918074 Z M8,9.71345086 C6.9947688,9.71345086 6.02444192,9.4650543 5.1606631,9.00024414 C2.71297654,9.78624102 1,12.3751664 1,15.0100098 L15,15 C15,12.3651566 13.2870235,9.78624102 10.8393369,9.00024414 C9.97555808,9.4650543 9.0052312,9.71345086 8,9.71345086 Z" id="path-1"></path>
    </defs>
    <g id="user" stroke="none" stroke-width="1" fill="none" fill-rule="evenodd">
        <mask id="mask-2" fill="white">
            <use xlink:href="#path-1"></use>
        </mask>
        <use id="Combined-Shape" fill="#000000" fill-rule="nonzero" xlink:href="#path-1"></use>
    </g>
</svg>