<?xml version="1.0" encoding="UTF-8"?>
<svg width="16px" height="16px" viewBox="0 0 16 16" version="1.1" xmlns="http://www.w3.org/2000/svg" xmlns:xlink="http://www.w3.org/1999/xlink">
    <!-- Generator: Sketch 52.4 (67378) - http://www.bohemiancoding.com/sketch -->
    <title>warning-circle</title>
    <desc>Created with Sketch.</desc>
    <defs>
        <path d="M8,16 C3.581722,16 0,12.418278 0,8 C0,3.581722 3.581722,0 8,0 C12.418278,0 16,3.581722 16,8 C16,12.418278 12.418278,16 8,16 Z M9.5,4.67567568 C9.53603622,4.40540405 9.51801838,4.14864986 9.44594595,3.90540541 C9.37387351,3.66216095 9.20720851,3.45045135 8.94594595,3.27027027 C8.68468338,3.09008919 8.39189351,3 8.06756757,3 C7.6891873,3.01801811 7.38738851,3.11711622 7.16216216,3.2972973 C6.93693581,3.47747838 6.78828865,3.68918797 6.71621622,3.93243243 C6.64414378,4.17567689 6.62612595,4.42342216 6.66216216,4.67567568 L7.36486486,8.97297297 C7.38288297,9.15315405 7.45044986,9.32432351 7.56756757,9.48648649 C7.68468527,9.64864946 7.85135027,9.72972973 8.06756757,9.72972973 C8.26576676,9.74774784 8.4279273,9.66666757 8.55405405,9.48648649 C8.68018081,9.30630541 8.76126108,9.13513595 8.7972973,8.97297297 L9.5,4.67567568 Z M8.09459459,10.3783784 C7.82432297,10.3963965 7.57207324,10.4639634 7.33783784,10.5810811 C7.10360243,10.6981988 6.92342405,10.8828816 6.7972973,11.1351351 C6.67117054,11.3693705 6.60810811,11.6171158 6.60810811,11.8783784 C6.60810811,12.1396409 6.67117054,12.3873862 6.7972973,12.6216216 C6.92342405,12.855857 7.09909797,13.0360354 7.32432432,13.1621622 C7.54955068,13.2882889 7.80630486,13.3513514 8.09459459,13.3513514 C8.36486622,13.3693695 8.60810703,13.3153159 8.82432432,13.1891892 C9.04054162,13.0630624 9.22072,12.8738751 9.36486486,12.6216216 C9.50900973,12.3693681 9.59009,12.1171184 9.60810811,11.8648649 C9.60810811,11.6306295 9.5315323,11.3873886 9.37837838,11.1351351 C9.22522446,10.8828816 9.04054162,10.6936943 8.82432432,10.5675676 C8.60810703,10.4414408 8.36486622,10.3783784 8.09459459,10.3783784 Z" id="path-1"></path>
    </defs>
    <g id="warning-circle" stroke="none" stroke-width="1" fill="none" fill-rule="evenodd">
        <mask id="mask-2" fill="white">
            <use xlink:href="#path-1"></use>
        </mask>
        <use id="Combined-Shape" fill="#000000" xlink:href="#path-1"></use>
    </g>
</svg>