<svg xmlns="http://www.w3.org/2000/svg" width="16" height="16" viewBox="0 0 16 16">
  <path fill="#333" fill-rule="evenodd" d="M7,6 L8.5,6 C8.77614237,6 9,6.22385763 9,6.5 C9,6.77614237 8.77614237,7 8.5,7 L7,7 L7,8.5 C7,8.77614237 6.77614237,9 6.5,9 C6.22385763,9 6,8.77614237 6,8.5 L6,7 L4.5,7 C4.22385763,7 4,6.77614237 4,6.5 C4,6.22385763 4.22385763,6 4.5,6 L6,6 L6,4.5 C6,4.22385763 6.22385763,4 6.5,4 C6.77614237,4 7,4.22385763 7,4.5 L7,6 Z M11.4362127,10.7291059 L16.3535534,15.6464466 L15.6464466,16.3535534 L10.7291059,11.4362127 C9.59233848,12.4110487 8.11494771,13 6.5,13 C2.91014913,13 0,10.0898509 0,6.5 C0,2.91014913 2.91014913,0 6.5,0 C10.0898509,0 13,2.91014913 13,6.5 C13,8.11494771 12.4110487,9.59233848 11.4362127,10.7291059 Z M6.5,12 C9.53756612,12 12,9.53756612 12,6.5 C12,3.46243388 9.53756612,1 6.5,1 C3.46243388,1 1,3.46243388 1,6.5 C1,9.53756612 3.46243388,12 6.5,12 Z"/>
</svg>
